<?xml version="1.0" standalone="no"?>
<!DOCTYPE svg PUBLIC "-//W3C//DTD SVG 20010904//EN"
 "http://www.w3.org/TR/2001/REC-SVG-20010904/DTD/svg10.dtd">
<svg version="1.0" xmlns="http://www.w3.org/2000/svg"
 width="512.000000pt" height="512.000000pt" viewBox="0 0 512.000000 512.000000"
 preserveAspectRatio="xMidYMid meet">
<metadata>
Created by potrace 1.11, written by Peter Selinger 2001-2013
</metadata>
<g transform="translate(0.000000,512.000000) scale(0.100000,-0.100000)"
fill="#000000" stroke="none">
<path d="M2400 5110 c-25 -4 -61 -11 -80 -14 -125 -22 -204 -53 -258 -101 -68
-62 -95 -116 -108 -225 -3 -25 -7 -56 -9 -70 -2 -14 -7 -61 -10 -105 -14 -177
-23 -205 -79 -243 -78 -53 -142 -39 -250 52 -129 110 -243 196 -283 213 -23
10 -66 16 -113 16 -61 1 -85 -4 -130 -26 -144 -70 -333 -221 -417 -335 -16
-20 -34 -43 -41 -50 -24 -26 -109 -177 -124 -222 -22 -66 -15 -157 16 -220 22
-43 133 -189 206 -270 13 -14 35 -44 51 -68 34 -54 35 -119 1 -174 -35 -56
-69 -68 -241 -83 -198 -17 -277 -31 -328 -61 -53 -31 -119 -106 -133 -152 -6
-21 -14 -44 -17 -52 -10 -25 -12 -32 -32 -140 -49 -261 1 -604 105 -719 62
-69 117 -94 229 -107 28 -3 59 -7 70 -9 11 -2 58 -7 105 -10 150 -11 178 -18
216 -51 30 -27 44 -58 50 -108 7 -55 -10 -90 -85 -176 -106 -121 -201 -251
-213 -293 -6 -23 -12 -72 -11 -108 0 -56 6 -78 38 -140 96 -188 233 -340 425
-470 122 -82 189 -107 277 -103 79 3 129 26 228 105 44 35 82 66 85 69 3 3 40
34 83 70 72 58 82 64 130 66 100 4 162 -55 172 -161 11 -128 17 -183 20 -210
2 -16 7 -52 10 -80 11 -95 34 -146 95 -206 64 -65 119 -87 293 -119 99 -18
332 -21 417 -5 83 15 226 57 254 75 83 51 141 147 151 250 3 36 8 76 10 90 2
14 7 59 10 100 12 138 14 150 31 185 29 63 119 98 189 75 20 -6 55 -28 78 -48
260 -224 315 -256 438 -256 55 1 77 6 138 38 206 105 384 274 504 478 24 40
49 89 57 108 21 52 18 166 -7 220 -20 45 -108 161 -208 275 -68 78 -83 110
-81 166 2 56 37 112 83 134 32 16 46 18 188 30 66 5 112 10 195 21 147 19 256
123 284 270 2 10 9 37 14 59 19 70 23 107 27 240 5 147 -11 273 -50 401 -43
142 -142 224 -285 238 -36 4 -76 9 -90 11 -27 5 -112 13 -201 20 -94 7 -152
56 -165 142 -7 49 16 106 69 164 32 36 49 56 148 179 28 36 60 83 70 106 23
51 31 135 18 193 -25 113 -217 372 -352 475 -38 29 -60 32 -97 13 -23 -12 -30
-10 -80 22 -38 24 -55 41 -52 53 6 28 -26 77 -56 85 -53 14 -155 7 -202 -15
-39 -17 -112 -70 -195 -140 -11 -9 -51 -42 -88 -74 -101 -84 -163 -97 -241
-48 -54 33 -67 70 -80 235 -3 33 -7 78 -10 100 -3 22 -8 63 -11 90 -9 83 -34
142 -82 195 -60 66 -133 99 -298 130 -74 14 -324 21 -385 10z m365 -1849 c168
-52 297 -145 393 -286 99 -144 139 -283 129 -454 -8 -143 -38 -236 -113 -353
-109 -171 -278 -286 -479 -326 -40 -8 -232 -9 -270 -1 -114 25 -201 63 -300
133 -139 100 -243 263 -279 438 -43 208 2 412 129 583 52 70 152 165 174 165
6 0 11 4 11 8 0 8 96 58 155 81 120 46 323 51 450 12z"/>
</g>
</svg>
