<?xml version="1.0" standalone="no"?>
<!DOCTYPE svg PUBLIC "-//W3C//DTD SVG 20010904//EN"
 "http://www.w3.org/TR/2001/REC-SVG-20010904/DTD/svg10.dtd">
<svg version="1.0" xmlns="http://www.w3.org/2000/svg"
 width="700.000000pt" height="700.000000pt" viewBox="0 0 700.000000 700.000000"
 preserveAspectRatio="xMidYMid meet">
<metadata>
Created by potrace 1.11, written by Peter Selinger 2001-2013
</metadata>
<g transform="translate(0.000000,700.000000) scale(0.100000,-0.100000)"
fill="#000000" stroke="none">
<path d="M3177 6624 c-1 -1 -78 -5 -172 -9 -93 -4 -188 -8 -210 -10 -22 -1
-92 -6 -155 -10 -63 -4 -122 -8 -130 -10 -8 -2 -53 -6 -100 -10 -47 -4 -96 -8
-110 -10 -14 -2 -50 -6 -80 -9 -30 -4 -66 -8 -80 -11 -14 -2 -43 -7 -65 -10
-158 -20 -193 -27 -215 -44 -52 -38 -51 -104 2 -144 25 -19 32 -19 120 -7 51
7 100 14 108 15 20 4 91 12 165 20 33 4 69 8 80 10 11 2 56 6 100 10 44 4 90
8 102 10 12 2 77 6 145 10 68 4 134 8 148 10 147 22 1122 22 1340 0 19 -2 88
-6 153 -10 65 -3 126 -8 135 -10 9 -1 53 -6 97 -9 44 -4 96 -9 115 -11 19 -3
73 -9 120 -15 173 -21 213 -27 380 -56 118 -21 249 -49 370 -78 313 -76 593
-214 630 -311 32 -85 -126 -198 -419 -297 -147 -49 -431 -118 -591 -143 -19
-3 -57 -10 -85 -15 -27 -5 -75 -12 -105 -16 -30 -3 -62 -8 -70 -9 -47 -9 -261
-33 -350 -40 -41 -4 -88 -8 -105 -10 -16 -2 -79 -7 -140 -11 -60 -3 -126 -8
-145 -10 -221 -20 -990 -20 -1320 1 -291 18 -296 19 -505 41 -47 5 -267 32
-310 39 -11 1 -42 6 -70 10 -134 19 -395 73 -533 111 -328 88 -556 205 -593
301 -38 100 177 228 581 347 93 27 119 52 115 109 -2 32 -39 74 -69 79 -48 8
-323 -77 -472 -147 -161 -75 -268 -161 -315 -254 l-24 -46 -2 -2430 c-2 -2409
-1 -2430 18 -2483 22 -57 99 -143 166 -185 117 -73 281 -145 428 -187 44 -12
107 -31 141 -41 49 -14 242 -57 339 -75 89 -16 332 -54 380 -59 33 -3 67 -8
75 -10 8 -2 47 -7 85 -10 39 -3 84 -8 100 -10 17 -2 59 -6 95 -10 36 -3 90 -7
120 -10 75 -7 180 -13 335 -22 174 -10 995 -9 1165 0 247 15 474 32 541 43 15
2 56 6 92 9 36 3 79 8 96 10 17 3 43 7 59 9 15 3 47 7 72 10 79 10 114 15 140
21 14 3 41 7 60 9 109 14 417 83 550 122 367 110 582 240 639 386 20 53 20 61
18 2483 l-2 2430 -23 46 c-21 39 -60 86 -112 132 -117 103 -479 244 -775 303
-11 2 -55 11 -98 20 -42 8 -87 17 -100 19 -145 25 -208 35 -237 39 -100 14
-190 26 -230 31 -25 3 -61 8 -80 10 -19 3 -64 7 -100 10 -36 3 -85 7 -110 10
-41 4 -92 8 -265 20 -194 13 -389 18 -698 20 -191 0 -349 0 -350 -1z m-2116
-1123 c165 -65 405 -132 599 -167 27 -5 134 -25 180 -34 25 -5 81 -14 125 -20
88 -12 111 -16 170 -24 37 -5 63 -9 170 -21 99 -11 186 -18 350 -31 44 -3 100
-7 125 -9 123 -10 475 -19 725 -19 261 0 673 11 713 19 9 1 64 6 122 10 58 3
121 8 140 10 19 2 69 6 110 10 41 3 86 8 100 10 14 1 54 6 90 10 36 4 72 8 80
10 15 3 105 15 145 20 58 8 118 18 190 31 44 9 91 17 105 20 176 33 390 88
540 139 106 36 281 116 312 142 9 8 18 11 21 6 2 -4 4 -303 3 -663 -1 -501 -4
-660 -14 -677 -28 -50 -146 -127 -282 -183 -134 -55 -407 -132 -580 -164 -14
-2 -63 -11 -110 -20 -47 -9 -102 -18 -124 -22 -21 -3 -48 -8 -60 -10 -30 -6
-319 -41 -391 -48 -157 -15 -215 -20 -360 -31 -184 -13 -412 -19 -755 -19
-438 0 -708 10 -1005 39 -27 3 -75 7 -105 10 -30 3 -70 7 -90 10 -19 2 -73 9
-120 15 -116 14 -159 19 -192 25 -15 3 -40 7 -55 9 -110 18 -218 38 -223 41
-3 2 -22 6 -42 9 -21 3 -59 11 -85 17 -27 6 -55 12 -63 14 -326 72 -645 220
-685 318 -10 25 -12 176 -12 684 l0 652 81 -44 c45 -24 115 -57 157 -74z
m5115 -2128 c-1 -755 7 -684 -88 -755 -44 -34 -145 -87 -243 -129 -98 -41
-486 -142 -626 -163 -20 -3 -42 -7 -50 -10 -8 -3 -32 -7 -54 -10 -22 -3 -119
-16 -215 -30 -96 -14 -204 -28 -240 -31 -36 -4 -81 -8 -100 -10 -19 -2 -75 -7
-125 -10 -49 -4 -101 -8 -115 -10 -23 -3 -190 -12 -380 -21 -109 -4 -767 -4
-890 0 -149 6 -359 19 -492 31 -32 3 -86 7 -120 10 -35 3 -79 8 -98 10 -19 3
-93 12 -165 20 -71 9 -139 18 -150 20 -11 3 -37 7 -57 10 -86 12 -118 17 -213
37 -55 11 -111 22 -125 24 -109 20 -361 92 -483 138 -151 58 -285 144 -310
200 -20 43 -21 1336 -1 1336 7 0 16 -5 19 -10 8 -13 208 -110 227 -110 8 0 18
-4 23 -9 17 -16 349 -113 435 -127 14 -2 43 -8 65 -14 22 -5 65 -14 95 -19 30
-6 69 -13 85 -16 17 -3 55 -10 85 -15 30 -5 66 -11 80 -14 14 -2 52 -7 85 -11
32 -4 67 -8 76 -10 19 -4 177 -22 259 -30 30 -3 71 -8 90 -10 19 -2 76 -7 125
-10 50 -4 106 -8 125 -10 291 -27 1245 -27 1575 0 28 2 86 7 130 10 44 3 98 8
120 10 22 2 87 9 145 15 58 6 116 12 130 14 14 2 50 6 80 10 358 45 804 146
1022 232 90 36 233 106 253 125 5 5 10 9 10 9 1 0 1 -300 1 -667z m-5287 -958
c149 -87 515 -209 722 -240 24 -4 46 -8 49 -10 7 -4 274 -51 335 -59 22 -3 72
-9 110 -15 39 -5 97 -13 130 -16 66 -7 122 -13 175 -20 45 -6 126 -12 380 -30
312 -23 1225 -23 1410 -1 19 3 80 8 135 11 55 3 116 8 135 10 19 2 73 6 119
10 46 4 93 8 104 11 11 2 52 6 91 10 39 3 73 8 76 9 3 2 33 6 65 10 33 3 67 8
75 10 8 2 38 7 65 11 41 5 164 27 285 50 156 30 474 116 535 144 11 5 58 25
105 45 47 20 106 50 133 66 26 16 49 29 50 29 2 0 3 -298 3 -663 l-1 -664 -29
-37 c-87 -114 -457 -258 -851 -330 -166 -31 -342 -59 -440 -71 -11 -2 -45 -6
-75 -10 -64 -9 -78 -10 -185 -20 -44 -4 -87 -9 -96 -10 -9 -2 -65 -6 -125 -10
-60 -4 -125 -9 -144 -10 -234 -24 -1219 -24 -1460 -1 -19 2 -83 7 -141 10 -59
4 -115 8 -125 10 -11 2 -55 7 -99 10 -44 4 -91 9 -105 11 -14 2 -50 7 -80 10
-30 4 -71 9 -90 11 -19 3 -53 7 -75 10 -22 2 -65 9 -95 14 -30 5 -71 12 -90
15 -559 94 -997 262 -1038 398 -9 28 -14 1327 -6 1327 2 0 30 -16 63 -35z"/>
<path d="M5109 4971 c-104 -22 -201 -99 -250 -199 -20 -40 -24 -62 -24 -147 0
-85 4 -107 24 -147 37 -75 95 -134 169 -170 59 -30 76 -33 152 -33 76 0 93 3
152 33 265 130 268 502 5 632 -67 33 -161 46 -228 31z m162 -203 c78 -44 103
-150 55 -232 -62 -105 -217 -110 -286 -9 -33 49 -36 147 -4 189 59 80 149 100
235 52z"/>
<path d="M1517 4739 c-38 -10 -58 -34 -64 -77 -9 -71 24 -92 202 -128 11 -2
31 -6 45 -9 101 -21 413 -69 517 -80 34 -3 71 -8 83 -10 12 -2 57 -7 101 -10
43 -3 87 -8 97 -10 10 -2 65 -6 123 -10 57 -3 124 -8 149 -10 349 -29 1220
-24 1595 10 17 2 40 3 53 4 13 0 37 14 53 30 39 40 39 82 -1 123 l-30 30 -103
-7 c-56 -4 -120 -8 -142 -10 -276 -23 -1078 -23 -1380 0 -22 1 -84 6 -138 9
-108 7 -176 13 -252 21 -27 3 -72 8 -100 11 -87 9 -129 14 -155 19 -14 2 -47
7 -75 10 -27 3 -59 7 -70 9 -11 2 -45 8 -75 12 -30 4 -57 8 -60 9 -3 1 -18 4
-35 8 -16 3 -46 8 -65 11 -19 3 -82 16 -141 29 -65 14 -115 20 -132 16z"/>
<path d="M5122 3408 c-109 -17 -213 -96 -261 -198 -22 -47 -26 -69 -26 -150 0
-84 3 -102 28 -152 132 -270 515 -264 638 9 63 137 36 284 -72 393 -49 49
-113 85 -172 95 -67 11 -83 11 -135 3z m163 -212 c124 -95 66 -291 -89 -304
-145 -12 -235 137 -157 259 37 59 80 81 153 76 43 -2 65 -10 93 -31z"/>
<path d="M1505 3176 c-72 -31 -70 -136 3 -165 27 -11 292 -66 367 -76 22 -3
54 -8 70 -12 17 -3 41 -7 55 -9 14 -1 97 -12 185 -23 88 -11 187 -23 220 -26
33 -3 83 -7 110 -10 53 -5 168 -14 262 -20 382 -25 1127 -24 1448 1 94 8 154
12 188 13 17 1 40 13 58 30 40 40 39 82 -1 123 l-31 30 -112 -6 c-62 -4 -131
-9 -155 -11 -264 -22 -1125 -22 -1342 -1 -19 2 -82 7 -140 11 -105 7 -150 10
-245 20 -27 2 -75 7 -105 10 -194 19 -471 62 -655 101 -38 8 -80 16 -93 19
-13 2 -31 6 -40 9 -9 3 -31 -1 -47 -8z"/>
<path d="M5102 1840 c-99 -21 -194 -98 -243 -198 -20 -40 -24 -62 -24 -147 0
-85 4 -107 24 -147 37 -75 95 -134 169 -170 61 -30 74 -33 157 -32 112 1 166
23 246 103 174 174 119 464 -107 568 -60 27 -155 37 -222 23z m174 -203 c100
-65 98 -217 -2 -287 -51 -34 -137 -34 -188 0 -67 46 -94 143 -60 215 44 94
163 128 250 72z"/>
<path d="M1500 1582 c-27 -13 -37 -26 -44 -54 -16 -63 20 -105 105 -122 25 -5
110 -22 144 -30 60 -12 329 -56 380 -61 11 -2 56 -8 101 -14 44 -6 101 -13
125 -15 131 -12 187 -17 214 -21 17 -2 75 -7 130 -10 55 -4 125 -8 155 -10 81
-6 413 -16 583 -19 162 -2 195 6 216 50 14 32 14 47 -1 79 -21 47 -48 52 -253
54 -104 1 -226 4 -270 6 -44 2 -145 6 -225 10 -80 3 -161 8 -180 10 -19 2 -71
7 -115 10 -97 7 -181 15 -215 20 -14 2 -54 7 -90 11 -36 3 -72 7 -80 9 -8 1
-40 6 -70 10 -110 13 -341 52 -390 65 -19 5 -48 11 -65 14 -44 8 -88 17 -105
22 -8 2 -31 -4 -50 -14z"/>
<path d="M4277 1434 c-1 -1 -63 -5 -137 -9 -74 -3 -147 -10 -161 -16 -86 -34
-60 -165 33 -170 24 -2 255 10 318 16 19 2 52 4 73 4 29 1 46 9 68 30 37 38
38 79 3 121 -27 31 -28 31 -111 28 -46 -1 -85 -3 -86 -4z"/>
</g>
</svg>
