<svg width="20" height="20" viewBox="0 0 20 20" fill="none" xmlns="http://www.w3.org/2000/svg">
<path d="M10 20C15.5228 20 20 15.5228 20 10C20 4.47715 15.5228 0 10 0C4.47715 0 0 4.47715 0 10C0 15.5228 4.47715 20 10 20Z" fill="#FF4646"/>
<path d="M13.5354 5.05028L5.05018 13.5355C4.65966 13.926 4.65966 14.5592 5.05018 14.9497C5.4407 15.3402 6.07386 15.3402 6.46438 14.9497L14.9496 6.46448C15.3401 6.07396 15.3401 5.4408 14.9496 5.05028C14.5591 4.65976 13.9259 4.65976 13.5354 5.05028Z" fill="white"/>
<path d="M5.05031 6.46459L13.5355 14.9498C13.926 15.3403 14.5592 15.3403 14.9497 14.9498C15.3402 14.5593 15.3402 13.9261 14.9497 13.5356L6.46451 5.05039C6.07399 4.65987 5.44084 4.65987 5.05031 5.05039C4.65979 5.44091 4.65979 6.07407 5.05031 6.46459Z" fill="white"/>
</svg>
