<svg width="40" height="40" viewBox="0 0 40 40" fill="none" xmlns="http://www.w3.org/2000/svg">
<path d="M16.4791 20.4563C16.1888 20.4563 15.9498 20.5346 15.9327 20.7774C15.9071 21.1063 15.8388 21.6152 15.062 21.6152C14.473 21.6152 14.1486 21.3256 14.1486 20.7147V18.5299C14.1485 17.9191 14.4729 17.6293 15.0448 17.6293C15.8558 17.6293 15.9155 18.1618 15.9326 18.4045C15.9412 18.6395 16.1717 18.7256 16.4876 18.7256C16.8631 18.7256 17.0424 18.6317 17.0424 18.2245C17.0424 17.3161 16.1973 16.7366 15.0108 16.7366C13.9351 16.7366 13.0388 17.2221 13.0388 18.5299V20.7147C13.0388 22.0225 13.9266 22.508 15.0022 22.508C16.1973 22.508 17.0424 21.905 17.0424 20.9574C17.0424 20.5581 16.8632 20.4563 16.4791 20.4563Z" fill="#3498DB"/>
<path d="M19.9276 16.7366H18.2117C17.9556 16.7366 17.7935 16.8853 17.7935 17.0499V22.14C17.7935 22.3514 18.0667 22.4611 18.3483 22.4611C18.6214 22.4611 18.9031 22.3514 18.9031 22.14V20.3232H19.8592C20.9861 20.3232 21.8653 19.8299 21.8653 18.5456V18.4985C21.8653 17.2142 21.0117 16.7366 19.9276 16.7366ZM20.7556 18.6239C20.7556 19.2348 20.4141 19.5245 19.8592 19.5245H18.9031V17.6293H19.8592C20.4142 17.6293 20.7556 17.9191 20.7556 18.5299V18.6239Z" fill="#3498DB"/>
<path d="M26.0651 16.7366C25.7833 16.7366 25.5102 16.8306 25.5102 17.0499V20.7148C25.5102 21.3256 25.1602 21.6153 24.5712 21.6153C23.9822 21.6153 23.6322 21.3256 23.6322 20.7148V17.0499C23.6322 16.8306 23.3504 16.7366 23.0773 16.7366C22.7956 16.7366 22.5224 16.8306 22.5224 17.0499V20.7148C22.5224 22.0226 23.4187 22.5081 24.5712 22.5081C25.7151 22.5081 26.6199 22.0225 26.6199 20.7148V17.0499C26.6199 16.8306 26.3382 16.7366 26.0651 16.7366Z" fill="#3498DB"/>
<path d="M5.23437 5.60001C5.58171 5.60001 5.86328 5.31843 5.86328 4.9711C5.86328 4.62376 5.58171 4.34219 5.23437 4.34219C4.88704 4.34219 4.60547 4.62376 4.60547 4.9711C4.60547 5.31843 4.88704 5.60001 5.23437 5.60001Z" fill="#3498DB"/>
<path d="M7.90936 5.60001C8.2567 5.60001 8.53827 5.31843 8.53827 4.9711C8.53827 4.62376 8.2567 4.34219 7.90936 4.34219C7.56203 4.34219 7.28046 4.62376 7.28046 4.9711C7.28046 5.31843 7.56203 5.60001 7.90936 5.60001Z" fill="#3498DB"/>
<path d="M10.5851 5.60001C10.9325 5.60001 11.2141 5.31843 11.2141 4.9711C11.2141 4.62376 10.9325 4.34219 10.5851 4.34219C10.2378 4.34219 9.95624 4.62376 9.95624 4.9711C9.95624 5.31843 10.2378 5.60001 10.5851 5.60001Z" fill="#3498DB"/>
<path d="M13.2601 5.60001C13.6075 5.60001 13.889 5.31843 13.889 4.9711C13.889 4.62376 13.6075 4.34219 13.2601 4.34219C12.9128 4.34219 12.6312 4.62376 12.6312 4.9711C12.6312 5.31843 12.9128 5.60001 13.2601 5.60001Z" fill="#3498DB"/>
<path d="M15.9351 5.60001C16.2825 5.60001 16.564 5.31843 16.564 4.9711C16.564 4.62376 16.2825 4.34219 15.9351 4.34219C15.5878 4.34219 15.3062 4.62376 15.3062 4.9711C15.3062 5.31843 15.5878 5.60001 15.9351 5.60001Z" fill="#3498DB"/>
<path d="M18.6102 5.60001C18.9575 5.60001 19.2391 5.31843 19.2391 4.9711C19.2391 4.62376 18.9575 4.34219 18.6102 4.34219C18.2628 4.34219 17.9813 4.62376 17.9813 4.9711C17.9813 5.31843 18.2628 5.60001 18.6102 5.60001Z" fill="#3498DB"/>
<path d="M21.2852 5.60001C21.6325 5.60001 21.9141 5.31843 21.9141 4.9711C21.9141 4.62376 21.6325 4.34219 21.2852 4.34219C20.9378 4.34219 20.6562 4.62376 20.6562 4.9711C20.6562 5.31843 20.9378 5.60001 21.2852 5.60001Z" fill="#3498DB"/>
<path d="M23.9601 5.60001C24.3075 5.60001 24.5891 5.31843 24.5891 4.9711C24.5891 4.62376 24.3075 4.34219 23.9601 4.34219C23.6128 4.34219 23.3312 4.62376 23.3312 4.9711C23.3312 5.31843 23.6128 5.60001 23.9601 5.60001Z" fill="#3498DB"/>
<path d="M26.6359 5.60001C26.9833 5.60001 27.2648 5.31843 27.2648 4.9711C27.2648 4.62376 26.9833 4.34219 26.6359 4.34219C26.2886 4.34219 26.007 4.62376 26.007 4.9711C26.007 5.31843 26.2886 5.60001 26.6359 5.60001Z" fill="#3498DB"/>
<path d="M29.311 5.60001C29.6583 5.60001 29.9399 5.31843 29.9399 4.9711C29.9399 4.62376 29.6583 4.34219 29.311 4.34219C28.9636 4.34219 28.6821 4.62376 28.6821 4.9711C28.6821 5.31843 28.9636 5.60001 29.311 5.60001Z" fill="#3498DB"/>
<path d="M31.9859 5.60001C32.3332 5.60001 32.6148 5.31843 32.6148 4.9711C32.6148 4.62376 32.3332 4.34219 31.9859 4.34219C31.6386 4.34219 31.357 4.62376 31.357 4.9711C31.357 5.31843 31.6386 5.60001 31.9859 5.60001Z" fill="#3498DB"/>
<path d="M34.661 5.60001C35.0083 5.60001 35.2899 5.31843 35.2899 4.9711C35.2899 4.62376 35.0083 4.34219 34.661 4.34219C34.3136 4.34219 34.032 4.62376 34.032 4.9711C34.032 5.31843 34.3136 5.60001 34.661 5.60001Z" fill="#3498DB"/>
<path d="M5.23437 8.30939C5.58171 8.30939 5.86328 8.02782 5.86328 7.68048C5.86328 7.33315 5.58171 7.05157 5.23437 7.05157C4.88704 7.05157 4.60547 7.33315 4.60547 7.68048C4.60547 8.02782 4.88704 8.30939 5.23437 8.30939Z" fill="#3498DB"/>
<path d="M7.90936 8.30939C8.2567 8.30939 8.53827 8.02782 8.53827 7.68048C8.53827 7.33315 8.2567 7.05157 7.90936 7.05157C7.56203 7.05157 7.28046 7.33315 7.28046 7.68048C7.28046 8.02782 7.56203 8.30939 7.90936 8.30939Z" fill="#3498DB"/>
<path d="M10.5851 8.30939C10.9325 8.30939 11.2141 8.02782 11.2141 7.68048C11.2141 7.33315 10.9325 7.05157 10.5851 7.05157C10.2378 7.05157 9.95624 7.33315 9.95624 7.68048C9.95624 8.02782 10.2378 8.30939 10.5851 8.30939Z" fill="#3498DB"/>
<path d="M13.2601 8.30939C13.6075 8.30939 13.889 8.02782 13.889 7.68048C13.889 7.33315 13.6075 7.05157 13.2601 7.05157C12.9128 7.05157 12.6312 7.33315 12.6312 7.68048C12.6312 8.02782 12.9128 8.30939 13.2601 8.30939Z" fill="#3498DB"/>
<path d="M15.9351 8.30939C16.2825 8.30939 16.564 8.02782 16.564 7.68048C16.564 7.33315 16.2825 7.05157 15.9351 7.05157C15.5878 7.05157 15.3062 7.33315 15.3062 7.68048C15.3062 8.02782 15.5878 8.30939 15.9351 8.30939Z" fill="#3498DB"/>
<path d="M18.6102 8.30939C18.9575 8.30939 19.2391 8.02782 19.2391 7.68048C19.2391 7.33315 18.9575 7.05157 18.6102 7.05157C18.2628 7.05157 17.9813 7.33315 17.9813 7.68048C17.9813 8.02782 18.2628 8.30939 18.6102 8.30939Z" fill="#3498DB"/>
<path d="M21.2852 8.30939C21.6325 8.30939 21.9141 8.02782 21.9141 7.68048C21.9141 7.33315 21.6325 7.05157 21.2852 7.05157C20.9378 7.05157 20.6562 7.33315 20.6562 7.68048C20.6562 8.02782 20.9378 8.30939 21.2852 8.30939Z" fill="#3498DB"/>
<path d="M23.9601 8.30939C24.3075 8.30939 24.5891 8.02782 24.5891 7.68048C24.5891 7.33315 24.3075 7.05157 23.9601 7.05157C23.6128 7.05157 23.3312 7.33315 23.3312 7.68048C23.3312 8.02782 23.6128 8.30939 23.9601 8.30939Z" fill="#3498DB"/>
<path d="M26.6359 8.30939C26.9833 8.30939 27.2648 8.02782 27.2648 7.68048C27.2648 7.33315 26.9833 7.05157 26.6359 7.05157C26.2886 7.05157 26.007 7.33315 26.007 7.68048C26.007 8.02782 26.2886 8.30939 26.6359 8.30939Z" fill="#3498DB"/>
<path d="M29.311 8.30939C29.6583 8.30939 29.9399 8.02782 29.9399 7.68048C29.9399 7.33315 29.6583 7.05157 29.311 7.05157C28.9636 7.05157 28.6821 7.33315 28.6821 7.68048C28.6821 8.02782 28.9636 8.30939 29.311 8.30939Z" fill="#3498DB"/>
<path d="M31.9859 8.30939C32.3332 8.30939 32.6148 8.02782 32.6148 7.68048C32.6148 7.33315 32.3332 7.05157 31.9859 7.05157C31.6386 7.05157 31.357 7.33315 31.357 7.68048C31.357 8.02782 31.6386 8.30939 31.9859 8.30939Z" fill="#3498DB"/>
<path d="M34.661 8.30939C35.0083 8.30939 35.2899 8.02782 35.2899 7.68048C35.2899 7.33315 35.0083 7.05157 34.661 7.05157C34.3136 7.05157 34.032 7.33315 34.032 7.68048C34.032 8.02782 34.3136 8.30939 34.661 8.30939Z" fill="#3498DB"/>
<path d="M5.23437 11.043C5.58171 11.043 5.86328 10.7614 5.86328 10.4141C5.86328 10.0667 5.58171 9.78516 5.23437 9.78516C4.88704 9.78516 4.60547 10.0667 4.60547 10.4141C4.60547 10.7614 4.88704 11.043 5.23437 11.043Z" fill="#3498DB"/>
<path d="M7.90936 11.043C8.2567 11.043 8.53827 10.7614 8.53827 10.4141C8.53827 10.0667 8.2567 9.78516 7.90936 9.78516C7.56203 9.78516 7.28046 10.0667 7.28046 10.4141C7.28046 10.7614 7.56203 11.043 7.90936 11.043Z" fill="#3498DB"/>
<path d="M31.9859 11.043C32.3332 11.043 32.6148 10.7614 32.6148 10.4141C32.6148 10.0667 32.3332 9.78516 31.9859 9.78516C31.6386 9.78516 31.357 10.0667 31.357 10.4141C31.357 10.7614 31.6386 11.043 31.9859 11.043Z" fill="#3498DB"/>
<path d="M34.661 11.043C35.0083 11.043 35.2899 10.7614 35.2899 10.4141C35.2899 10.0667 35.0083 9.78516 34.661 9.78516C34.3136 9.78516 34.032 10.0667 34.032 10.4141C34.032 10.7614 34.3136 11.043 34.661 11.043Z" fill="#3498DB"/>
<path d="M5.23437 13.7523C5.58171 13.7523 5.86328 13.4708 5.86328 13.1234C5.86328 12.7761 5.58171 12.4945 5.23437 12.4945C4.88704 12.4945 4.60547 12.7761 4.60547 13.1234C4.60547 13.4708 4.88704 13.7523 5.23437 13.7523Z" fill="#3498DB"/>
<path d="M7.90936 13.7523C8.2567 13.7523 8.53827 13.4708 8.53827 13.1234C8.53827 12.7761 8.2567 12.4945 7.90936 12.4945C7.56203 12.4945 7.28046 12.7761 7.28046 13.1234C7.28046 13.4708 7.56203 13.7523 7.90936 13.7523Z" fill="#3498DB"/>
<path d="M31.9859 13.7523C32.3332 13.7523 32.6148 13.4708 32.6148 13.1234C32.6148 12.7761 32.3332 12.4945 31.9859 12.4945C31.6386 12.4945 31.357 12.7761 31.357 13.1234C31.357 13.4708 31.6386 13.7523 31.9859 13.7523Z" fill="#3498DB"/>
<path d="M34.661 13.7523C35.0083 13.7523 35.2899 13.4708 35.2899 13.1234C35.2899 12.7761 35.0083 12.4945 34.661 12.4945C34.3136 12.4945 34.032 12.7761 34.032 13.1234C34.032 13.4708 34.3136 13.7523 34.661 13.7523Z" fill="#3498DB"/>
<path d="M5.23437 16.4859C5.58171 16.4859 5.86328 16.2044 5.86328 15.857C5.86328 15.5097 5.58171 15.2281 5.23437 15.2281C4.88704 15.2281 4.60547 15.5097 4.60547 15.857C4.60547 16.2044 4.88704 16.4859 5.23437 16.4859Z" fill="#3498DB"/>
<path d="M7.90936 16.4859C8.2567 16.4859 8.53827 16.2044 8.53827 15.857C8.53827 15.5097 8.2567 15.2281 7.90936 15.2281C7.56203 15.2281 7.28046 15.5097 7.28046 15.857C7.28046 16.2044 7.56203 16.4859 7.90936 16.4859Z" fill="#3498DB"/>
<path d="M31.9859 16.4859C32.3332 16.4859 32.6148 16.2044 32.6148 15.857C32.6148 15.5097 32.3332 15.2281 31.9859 15.2281C31.6386 15.2281 31.357 15.5097 31.357 15.857C31.357 16.2044 31.6386 16.4859 31.9859 16.4859Z" fill="#3498DB"/>
<path d="M34.661 16.4859C35.0083 16.4859 35.2899 16.2044 35.2899 15.857C35.2899 15.5097 35.0083 15.2281 34.661 15.2281C34.3136 15.2281 34.032 15.5097 34.032 15.857C34.032 16.2044 34.3136 16.4859 34.661 16.4859Z" fill="#3498DB"/>
<path d="M5.23437 19.1953C5.58171 19.1953 5.86328 18.9137 5.86328 18.5664C5.86328 18.2191 5.58171 17.9375 5.23437 17.9375C4.88704 17.9375 4.60547 18.2191 4.60547 18.5664C4.60547 18.9137 4.88704 19.1953 5.23437 19.1953Z" fill="#3498DB"/>
<path d="M7.90936 19.1953C8.2567 19.1953 8.53827 18.9137 8.53827 18.5664C8.53827 18.2191 8.2567 17.9375 7.90936 17.9375C7.56203 17.9375 7.28046 18.2191 7.28046 18.5664C7.28046 18.9137 7.56203 19.1953 7.90936 19.1953Z" fill="#3498DB"/>
<path d="M31.9859 19.1953C32.3332 19.1953 32.6148 18.9137 32.6148 18.5664C32.6148 18.2191 32.3332 17.9375 31.9859 17.9375C31.6386 17.9375 31.357 18.2191 31.357 18.5664C31.357 18.9137 31.6386 19.1953 31.9859 19.1953Z" fill="#3498DB"/>
<path d="M34.661 19.1953C35.0083 19.1953 35.2899 18.9137 35.2899 18.5664C35.2899 18.2191 35.0083 17.9375 34.661 17.9375C34.3136 17.9375 34.032 18.2191 34.032 18.5664C34.032 18.9137 34.3136 19.1953 34.661 19.1953Z" fill="#3498DB"/>
<path d="M5.23437 21.9289C5.58171 21.9289 5.86328 21.6473 5.86328 21.3C5.86328 20.9527 5.58171 20.6711 5.23437 20.6711C4.88704 20.6711 4.60547 20.9527 4.60547 21.3C4.60547 21.6473 4.88704 21.9289 5.23437 21.9289Z" fill="#3498DB"/>
<path d="M7.90936 21.9289C8.2567 21.9289 8.53827 21.6473 8.53827 21.3C8.53827 20.9527 8.2567 20.6711 7.90936 20.6711C7.56203 20.6711 7.28046 20.9527 7.28046 21.3C7.28046 21.6473 7.56203 21.9289 7.90936 21.9289Z" fill="#3498DB"/>
<path d="M31.9859 21.9289C32.3332 21.9289 32.6148 21.6473 32.6148 21.3C32.6148 20.9527 32.3332 20.6711 31.9859 20.6711C31.6386 20.6711 31.357 20.9527 31.357 21.3C31.357 21.6473 31.6386 21.9289 31.9859 21.9289Z" fill="#3498DB"/>
<path d="M34.661 21.9289C35.0083 21.9289 35.2899 21.6473 35.2899 21.3C35.2899 20.9527 35.0083 20.6711 34.661 20.6711C34.3136 20.6711 34.032 20.9527 34.032 21.3C34.032 21.6473 34.3136 21.9289 34.661 21.9289Z" fill="#3498DB"/>
<path d="M5.23437 24.6383C5.58171 24.6383 5.86328 24.3567 5.86328 24.0094C5.86328 23.662 5.58171 23.3805 5.23437 23.3805C4.88704 23.3805 4.60547 23.662 4.60547 24.0094C4.60547 24.3567 4.88704 24.6383 5.23437 24.6383Z" fill="#3498DB"/>
<path d="M7.90936 24.6383C8.2567 24.6383 8.53827 24.3567 8.53827 24.0094C8.53827 23.662 8.2567 23.3805 7.90936 23.3805C7.56203 23.3805 7.28046 23.662 7.28046 24.0094C7.28046 24.3567 7.56203 24.6383 7.90936 24.6383Z" fill="#3498DB"/>
<path d="M31.9859 24.6383C32.3332 24.6383 32.6148 24.3567 32.6148 24.0094C32.6148 23.662 32.3332 23.3805 31.9859 23.3805C31.6386 23.3805 31.357 23.662 31.357 24.0094C31.357 24.3567 31.6386 24.6383 31.9859 24.6383Z" fill="#3498DB"/>
<path d="M34.661 24.6383C35.0083 24.6383 35.2899 24.3567 35.2899 24.0094C35.2899 23.662 35.0083 23.3805 34.661 23.3805C34.3136 23.3805 34.032 23.662 34.032 24.0094C34.032 24.3567 34.3136 24.6383 34.661 24.6383Z" fill="#3498DB"/>
<path d="M5.23437 27.3719C5.58171 27.3719 5.86328 27.0903 5.86328 26.743C5.86328 26.3956 5.58171 26.1141 5.23437 26.1141C4.88704 26.1141 4.60547 26.3956 4.60547 26.743C4.60547 27.0903 4.88704 27.3719 5.23437 27.3719Z" fill="#3498DB"/>
<path d="M7.90936 27.3719C8.2567 27.3719 8.53827 27.0903 8.53827 26.743C8.53827 26.3956 8.2567 26.1141 7.90936 26.1141C7.56203 26.1141 7.28046 26.3956 7.28046 26.743C7.28046 27.0903 7.56203 27.3719 7.90936 27.3719Z" fill="#3498DB"/>
<path d="M31.9859 27.3719C32.3332 27.3719 32.6148 27.0903 32.6148 26.743C32.6148 26.3956 32.3332 26.1141 31.9859 26.1141C31.6386 26.1141 31.357 26.3956 31.357 26.743C31.357 27.0903 31.6386 27.3719 31.9859 27.3719Z" fill="#3498DB"/>
<path d="M34.661 27.3719C35.0083 27.3719 35.2899 27.0903 35.2899 26.743C35.2899 26.3956 35.0083 26.1141 34.661 26.1141C34.3136 26.1141 34.032 26.3956 34.032 26.743C34.032 27.0903 34.3136 27.3719 34.661 27.3719Z" fill="#3498DB"/>
<path d="M5.23437 30.0805C5.58171 30.0805 5.86328 29.7989 5.86328 29.4516C5.86328 29.1042 5.58171 28.8227 5.23437 28.8227C4.88704 28.8227 4.60547 29.1042 4.60547 29.4516C4.60547 29.7989 4.88704 30.0805 5.23437 30.0805Z" fill="#3498DB"/>
<path d="M7.90936 30.0805C8.2567 30.0805 8.53827 29.7989 8.53827 29.4516C8.53827 29.1042 8.2567 28.8227 7.90936 28.8227C7.56203 28.8227 7.28046 29.1042 7.28046 29.4516C7.28046 29.7989 7.56203 30.0805 7.90936 30.0805Z" fill="#3498DB"/>
<path d="M31.9859 30.0805C32.3332 30.0805 32.6148 29.7989 32.6148 29.4516C32.6148 29.1042 32.3332 28.8227 31.9859 28.8227C31.6386 28.8227 31.357 29.1042 31.357 29.4516C31.357 29.7989 31.6386 30.0805 31.9859 30.0805Z" fill="#3498DB"/>
<path d="M34.661 30.0805C35.0083 30.0805 35.2899 29.7989 35.2899 29.4516C35.2899 29.1042 35.0083 28.8227 34.661 28.8227C34.3136 28.8227 34.032 29.1042 34.032 29.4516C34.032 29.7989 34.3136 30.0805 34.661 30.0805Z" fill="#3498DB"/>
<path d="M5.23437 32.8148C5.58171 32.8148 5.86328 32.5333 5.86328 32.1859C5.86328 31.8386 5.58171 31.557 5.23437 31.557C4.88704 31.557 4.60547 31.8386 4.60547 32.1859C4.60547 32.5333 4.88704 32.8148 5.23437 32.8148Z" fill="#3498DB"/>
<path d="M7.90936 32.8148C8.2567 32.8148 8.53827 32.5333 8.53827 32.1859C8.53827 31.8386 8.2567 31.557 7.90936 31.557C7.56203 31.557 7.28046 31.8386 7.28046 32.1859C7.28046 32.5333 7.56203 32.8148 7.90936 32.8148Z" fill="#3498DB"/>
<path d="M10.5851 32.8148C10.9325 32.8148 11.2141 32.5333 11.2141 32.1859C11.2141 31.8386 10.9325 31.557 10.5851 31.557C10.2378 31.557 9.95624 31.8386 9.95624 32.1859C9.95624 32.5333 10.2378 32.8148 10.5851 32.8148Z" fill="#3498DB"/>
<path d="M13.2601 32.8148C13.6075 32.8148 13.889 32.5333 13.889 32.1859C13.889 31.8386 13.6075 31.557 13.2601 31.557C12.9128 31.557 12.6312 31.8386 12.6312 32.1859C12.6312 32.5333 12.9128 32.8148 13.2601 32.8148Z" fill="#3498DB"/>
<path d="M15.9351 32.8148C16.2825 32.8148 16.564 32.5333 16.564 32.1859C16.564 31.8386 16.2825 31.557 15.9351 31.557C15.5878 31.557 15.3062 31.8386 15.3062 32.1859C15.3062 32.5333 15.5878 32.8148 15.9351 32.8148Z" fill="#3498DB"/>
<path d="M18.6102 32.8148C18.9575 32.8148 19.2391 32.5333 19.2391 32.1859C19.2391 31.8386 18.9575 31.557 18.6102 31.557C18.2628 31.557 17.9813 31.8386 17.9813 32.1859C17.9813 32.5333 18.2628 32.8148 18.6102 32.8148Z" fill="#3498DB"/>
<path d="M21.2852 32.8148C21.6325 32.8148 21.9141 32.5333 21.9141 32.1859C21.9141 31.8386 21.6325 31.557 21.2852 31.557C20.9378 31.557 20.6562 31.8386 20.6562 32.1859C20.6562 32.5333 20.9378 32.8148 21.2852 32.8148Z" fill="#3498DB"/>
<path d="M23.9601 32.8148C24.3075 32.8148 24.5891 32.5333 24.5891 32.1859C24.5891 31.8386 24.3075 31.557 23.9601 31.557C23.6128 31.557 23.3312 31.8386 23.3312 32.1859C23.3312 32.5333 23.6128 32.8148 23.9601 32.8148Z" fill="#3498DB"/>
<path d="M26.6359 32.8148C26.9833 32.8148 27.2648 32.5333 27.2648 32.1859C27.2648 31.8386 26.9833 31.557 26.6359 31.557C26.2886 31.557 26.007 31.8386 26.007 32.1859C26.007 32.5333 26.2886 32.8148 26.6359 32.8148Z" fill="#3498DB"/>
<path d="M29.311 32.8148C29.6583 32.8148 29.9399 32.5333 29.9399 32.1859C29.9399 31.8386 29.6583 31.557 29.311 31.557C28.9636 31.557 28.6821 31.8386 28.6821 32.1859C28.6821 32.5333 28.9636 32.8148 29.311 32.8148Z" fill="#3498DB"/>
<path d="M31.9859 32.8148C32.3332 32.8148 32.6148 32.5333 32.6148 32.1859C32.6148 31.8386 32.3332 31.557 31.9859 31.557C31.6386 31.557 31.357 31.8386 31.357 32.1859C31.357 32.5333 31.6386 32.8148 31.9859 32.8148Z" fill="#3498DB"/>
<path d="M34.661 32.8148C35.0083 32.8148 35.2899 32.5333 35.2899 32.1859C35.2899 31.8386 35.0083 31.557 34.661 31.557C34.3136 31.557 34.032 31.8386 34.032 32.1859C34.032 32.5333 34.3136 32.8148 34.661 32.8148Z" fill="#3498DB"/>
<path d="M5.23437 35.5234C5.58171 35.5234 5.86328 35.2419 5.86328 34.8945C5.86328 34.5472 5.58171 34.2656 5.23437 34.2656C4.88704 34.2656 4.60547 34.5472 4.60547 34.8945C4.60547 35.2419 4.88704 35.5234 5.23437 35.5234Z" fill="#3498DB"/>
<path d="M7.90936 35.5234C8.2567 35.5234 8.53827 35.2419 8.53827 34.8945C8.53827 34.5472 8.2567 34.2656 7.90936 34.2656C7.56203 34.2656 7.28046 34.5472 7.28046 34.8945C7.28046 35.2419 7.56203 35.5234 7.90936 35.5234Z" fill="#3498DB"/>
<path d="M10.5851 35.5234C10.9325 35.5234 11.2141 35.2419 11.2141 34.8945C11.2141 34.5472 10.9325 34.2656 10.5851 34.2656C10.2378 34.2656 9.95624 34.5472 9.95624 34.8945C9.95624 35.2419 10.2378 35.5234 10.5851 35.5234Z" fill="#3498DB"/>
<path d="M13.2601 35.5234C13.6075 35.5234 13.889 35.2419 13.889 34.8945C13.889 34.5472 13.6075 34.2656 13.2601 34.2656C12.9128 34.2656 12.6312 34.5472 12.6312 34.8945C12.6312 35.2419 12.9128 35.5234 13.2601 35.5234Z" fill="#3498DB"/>
<path d="M15.9351 35.5234C16.2825 35.5234 16.564 35.2419 16.564 34.8945C16.564 34.5472 16.2825 34.2656 15.9351 34.2656C15.5878 34.2656 15.3062 34.5472 15.3062 34.8945C15.3062 35.2419 15.5878 35.5234 15.9351 35.5234Z" fill="#3498DB"/>
<path d="M18.6102 35.5234C18.9575 35.5234 19.2391 35.2419 19.2391 34.8945C19.2391 34.5472 18.9575 34.2656 18.6102 34.2656C18.2628 34.2656 17.9813 34.5472 17.9813 34.8945C17.9813 35.2419 18.2628 35.5234 18.6102 35.5234Z" fill="#3498DB"/>
<path d="M21.2852 35.5234C21.6325 35.5234 21.9141 35.2419 21.9141 34.8945C21.9141 34.5472 21.6325 34.2656 21.2852 34.2656C20.9378 34.2656 20.6562 34.5472 20.6562 34.8945C20.6562 35.2419 20.9378 35.5234 21.2852 35.5234Z" fill="#3498DB"/>
<path d="M23.9601 35.5234C24.3075 35.5234 24.5891 35.2419 24.5891 34.8945C24.5891 34.5472 24.3075 34.2656 23.9601 34.2656C23.6128 34.2656 23.3312 34.5472 23.3312 34.8945C23.3312 35.2419 23.6128 35.5234 23.9601 35.5234Z" fill="#3498DB"/>
<path d="M26.6359 35.5234C26.9833 35.5234 27.2648 35.2419 27.2648 34.8945C27.2648 34.5472 26.9833 34.2656 26.6359 34.2656C26.2886 34.2656 26.007 34.5472 26.007 34.8945C26.007 35.2419 26.2886 35.5234 26.6359 35.5234Z" fill="#3498DB"/>
<path d="M29.311 35.5234C29.6583 35.5234 29.9399 35.2419 29.9399 34.8945C29.9399 34.5472 29.6583 34.2656 29.311 34.2656C28.9636 34.2656 28.6821 34.5472 28.6821 34.8945C28.6821 35.2419 28.9636 35.5234 29.311 35.5234Z" fill="#3498DB"/>
<path d="M31.9859 35.5234C32.3332 35.5234 32.6148 35.2419 32.6148 34.8945C32.6148 34.5472 32.3332 34.2656 31.9859 34.2656C31.6386 34.2656 31.357 34.5472 31.357 34.8945C31.357 35.2419 31.6386 35.5234 31.9859 35.5234Z" fill="#3498DB"/>
<path d="M34.661 35.5234C35.0083 35.5234 35.2899 35.2419 35.2899 34.8945C35.2899 34.5472 35.0083 34.2656 34.661 34.2656C34.3136 34.2656 34.032 34.5472 34.032 34.8945C34.032 35.2419 34.3136 35.5234 34.661 35.5234Z" fill="#3498DB"/>
<path d="M29.0935 9.54733H10.9066C10.1571 9.54733 9.54742 10.157 9.54742 10.9065V18.4375C9.54742 18.7611 9.80977 19.0234 10.1334 19.0234C10.457 19.0234 10.7193 18.7611 10.7193 18.4375V10.9065C10.7193 10.8032 10.8034 10.7192 10.9066 10.7192H29.0935C29.1968 10.7192 29.2808 10.8032 29.2808 10.9065V18.4375C29.2808 18.7611 29.5431 19.0234 29.8667 19.0234C30.1903 19.0234 30.4527 18.7611 30.4527 18.4375V10.9065C30.4527 10.157 29.843 9.54733 29.0935 9.54733Z" fill="#3498DB"/>
<path d="M29.8667 20.9766C29.5431 20.9766 29.2808 21.2389 29.2808 21.5625V25.1396C29.2808 25.2809 29.2232 25.4191 29.1229 25.5185L25.4837 29.1262C25.3831 29.2259 25.2497 29.2808 25.1081 29.2808H10.9065C10.8032 29.2808 10.7192 29.1968 10.7192 29.0935V21.5625C10.7192 21.2389 10.4569 20.9766 10.1333 20.9766C9.80971 20.9766 9.54736 21.2389 9.54736 21.5625V29.0935C9.54736 29.843 10.1571 30.4527 10.9065 30.4527H25.1081C25.5608 30.4527 25.9872 30.2771 26.3087 29.9584L29.9479 26.3507C30.2687 26.0327 30.4527 25.5913 30.4527 25.1396V21.5625C30.4527 21.2389 30.1904 20.9766 29.8667 20.9766Z" fill="#3498DB"/>
<path d="M39.4141 11.4699C39.7377 11.4699 40 11.2076 40 10.884C40 10.5604 39.7377 10.298 39.4141 10.298H37.7282V6.91195H39.4141C39.7377 6.91195 40 6.64961 40 6.32602C40 6.00242 39.7377 5.74008 39.4141 5.74008H37.7282V4.5875C37.7282 3.31063 36.6894 2.2718 35.4125 2.2718H34.2599V0.585938C34.2599 0.262344 33.9976 0 33.674 0C33.3504 0 33.088 0.262344 33.088 0.585938V2.2718H29.702V0.585938C29.702 0.262344 29.4396 0 29.116 0C28.7924 0 28.5301 0.262344 28.5301 0.585938V2.2718H25.1439V0.585938C25.1439 0.262344 24.8816 0 24.558 0C24.2344 0 23.972 0.262344 23.972 0.585938V2.2718H20.5859V0.585938C20.5859 0.262344 20.3236 0 20 0C19.6764 0 19.4141 0.262344 19.4141 0.585938V2.2718H16.028V0.585938C16.028 0.262344 15.7656 0 15.442 0C15.1184 0 14.8561 0.262344 14.8561 0.585938V2.2718H11.4699V0.585938C11.4699 0.262344 11.2076 0 10.884 0C10.5604 0 10.298 0.262344 10.298 0.585938V2.2718H6.91195V0.585938C6.91195 0.262344 6.64961 0 6.32602 0C6.00242 0 5.74008 0.262344 5.74008 0.585938V2.2718H4.5875C3.31063 2.2718 2.2718 3.31063 2.2718 4.5875V5.74008H0.585938C0.262344 5.74008 0 6.00242 0 6.32602C0 6.64961 0.262344 6.91195 0.585938 6.91195H2.2718V10.298H0.585938C0.262344 10.298 0 10.5604 0 10.884C0 11.2076 0.262344 11.4699 0.585938 11.4699H2.2718V14.8561H0.585938C0.262344 14.8561 0 15.1184 0 15.442C0 15.7656 0.262344 16.028 0.585938 16.028H2.2718V19.4141H0.585938C0.262344 19.4141 0 19.6764 0 20C0 20.3236 0.262344 20.5859 0.585938 20.5859H2.2718V23.972H0.585938C0.262344 23.972 0 24.2344 0 24.558C0 24.8816 0.262344 25.1439 0.585938 25.1439H2.2718V28.5301H0.585938C0.262344 28.5301 0 28.7924 0 29.116C0 29.4396 0.262344 29.702 0.585938 29.702H2.2718V33.088H0.585938C0.262344 33.088 0 33.3504 0 33.674C0 33.9976 0.262344 34.2599 0.585938 34.2599H2.2718V35.4125C2.2718 36.6894 3.31063 37.7282 4.5875 37.7282H5.74008V39.4141C5.74008 39.7377 6.00242 40 6.32602 40C6.64961 40 6.91195 39.7377 6.91195 39.4141V37.7282H10.298V39.4141C10.298 39.7377 10.5604 40 10.884 40C11.2076 40 11.4699 39.7377 11.4699 39.4141V37.7282H14.8561V39.4141C14.8561 39.7377 15.1184 40 15.442 40C15.7656 40 16.028 39.7377 16.028 39.4141V37.7282H19.4141V39.4141C19.4141 39.7377 19.6764 40 20 40C20.3236 40 20.5859 39.7377 20.5859 39.4141V37.7282H23.972V39.4141C23.972 39.7377 24.2344 40 24.558 40C24.8816 40 25.1439 39.7377 25.1439 39.4141V37.7282H28.5301V39.4141C28.5301 39.7377 28.7924 40 29.116 40C29.4396 40 29.702 39.7377 29.702 39.4141V37.7282H33.088V39.4141C33.088 39.7377 33.3504 40 33.674 40C33.9976 40 34.2599 39.7377 34.2599 39.4141V37.7282H35.4125C36.6894 37.7282 37.7282 36.6894 37.7282 35.4125V34.2599H39.4141C39.7377 34.2599 40 33.9976 40 33.674C40 33.3504 39.7377 33.088 39.4141 33.088H37.7282V29.702H39.4141C39.7377 29.702 40 29.4396 40 29.116C40 28.7924 39.7377 28.5301 39.4141 28.5301H37.7282V25.1439H39.4141C39.7377 25.1439 40 24.8816 40 24.558C40 24.2344 39.7377 23.972 39.4141 23.972H37.7282V20.5859H39.4141C39.7377 20.5859 40 20.3236 40 20C40 19.6764 39.7377 19.4141 39.4141 19.4141H37.7282V16.028H39.4141C39.7377 16.028 40 15.7656 40 15.442C40 15.1184 39.7377 14.8561 39.4141 14.8561H37.7282V11.4699H39.4141ZM36.5563 6.32523C36.5563 6.32547 36.5563 6.3257 36.5563 6.32602C36.5563 6.32633 36.5563 6.32648 36.5563 6.3268V10.8833C36.5563 10.8835 36.5563 10.8837 36.5563 10.8841C36.5563 10.8844 36.5563 10.8845 36.5563 10.8848V15.4413C36.5563 15.4416 36.5563 15.4418 36.5563 15.4421C36.5563 15.4424 36.5563 15.4426 36.5563 15.4429V19.9994C36.5563 19.9996 36.5563 19.9998 36.5563 20.0002C36.5563 20.0005 36.5563 20.0006 36.5563 20.0009V24.5574C36.5563 24.5577 36.5563 24.5579 36.5563 24.5582C36.5563 24.5585 36.5563 24.5587 36.5563 24.559V29.1155C36.5563 29.1157 36.5563 29.1159 36.5563 29.1162C36.5563 29.1166 36.5563 29.1167 36.5563 29.117V33.6735C36.5563 33.6737 36.5563 33.674 36.5563 33.6743C36.5563 33.6746 36.5563 33.6748 36.5563 33.6751V35.4128C36.5563 36.0435 36.0432 36.5566 35.4125 36.5566H4.5875C3.9568 36.5566 3.44367 36.0435 3.44367 35.4128V4.5875C3.44367 3.9568 3.9568 3.44367 4.5875 3.44367H35.4125C36.0432 3.44367 36.5563 3.9568 36.5563 4.5875V6.32523Z" fill="#3498DB"/>
</svg>
