<svg width="40" height="40" viewBox="0 0 40 40" fill="none" xmlns="http://www.w3.org/2000/svg">
<path d="M24.8449 34.9254H15.1551C14.8313 34.9254 14.569 35.1879 14.569 35.5115C14.569 35.8353 14.8313 36.0976 15.1551 36.0976H24.8449C25.1687 36.0976 25.431 35.8352 25.431 35.5115C25.431 35.1879 25.1687 34.9254 24.8449 34.9254Z" fill="#3498DB"/>
<path d="M35.2554 13.579C34.9317 13.579 34.6693 13.8414 34.6693 14.1651V37.222C34.6693 38.1075 33.949 38.8279 33.0635 38.8279H6.93642C6.05095 38.8279 5.33063 38.1075 5.33063 37.222V30.3619C5.33063 30.0382 5.06829 29.7758 4.74454 29.7758C4.42079 29.7758 4.15845 30.0382 4.15845 30.3619V37.222C4.15853 38.7537 5.4047 40 6.93642 40H33.0635C34.5952 40 35.8414 38.7537 35.8414 37.222V14.1651C35.8415 13.8414 35.5792 13.579 35.2554 13.579Z" fill="#3498DB"/>
<path d="M33.0636 0H6.9364C5.40468 0 4.15851 1.24625 4.15851 2.77797V27.236C4.15851 27.5597 4.42085 27.8221 4.7446 27.8221C5.06835 27.8221 5.3307 27.5597 5.3307 27.236V2.77797C5.3307 1.8925 6.05101 1.17211 6.93648 1.17211H33.0636C33.9491 1.17211 34.6694 1.8925 34.6694 2.77797V11.0393C34.6694 11.363 34.9317 11.6254 35.2555 11.6254C35.5792 11.6254 35.8416 11.363 35.8416 11.0393V2.77797C35.8415 1.24625 34.5953 0 33.0636 0Z" fill="#3498DB"/>
<path d="M22.904 23.233C22.3545 22.5459 21.3997 22.3613 20.6337 22.794L12.6235 27.3191C11.7872 27.7916 11.203 28.6034 11.0207 29.5464C10.8383 30.4894 11.0779 31.4605 11.6777 32.2106C12.2776 32.9606 13.1722 33.4078 14.1322 33.4373C14.166 33.4383 14.1996 33.4388 14.2333 33.4388C15.1565 33.4388 16.0353 33.0503 16.6574 32.3634L22.8331 25.5442C23.4237 24.8921 23.4534 23.9201 22.904 23.233ZM21.9641 24.7574L15.7884 31.5766C15.3748 32.0334 14.7855 32.2846 14.1681 32.2657C13.552 32.2468 12.978 31.9598 12.5931 31.4785C12.2082 30.9972 12.0545 30.3741 12.1715 29.7689C12.2884 29.1638 12.6634 28.6429 13.2 28.3398L21.2103 23.8146C21.3055 23.7608 21.4093 23.7348 21.5118 23.7348C21.6919 23.7348 21.8685 23.815 21.9885 23.9651C22.1769 24.2006 22.1666 24.5338 21.9641 24.7574Z" fill="#3498DB"/>
<path d="M20 6.54617C13.903 6.54617 8.94257 11.5065 8.94257 17.6036C8.94257 20.4116 9.99671 23.0887 11.9108 25.1415C12.1316 25.3781 12.5023 25.3912 12.7391 25.1705C12.9758 24.9498 12.9888 24.5789 12.768 24.3421C11.057 22.507 10.1148 20.1139 10.1148 17.6036C10.1148 12.1529 14.5493 7.71836 20 7.71836C25.4507 7.71836 29.8852 12.1528 29.8852 17.6036C29.8852 21.5687 27.5291 25.1381 23.883 26.6973C23.5853 26.8245 23.4472 27.169 23.5744 27.4666C23.6696 27.6891 23.886 27.8223 24.1137 27.8223C24.1905 27.8223 24.2687 27.8071 24.3437 27.775C28.4221 26.0312 31.0574 22.0387 31.0574 17.6036C31.0574 11.5065 26.097 6.54617 20 6.54617Z" fill="#3498DB"/>
<path d="M20 15.4546C18.8151 15.4546 17.851 16.4186 17.851 17.6036C17.851 18.7885 18.8151 19.7526 20 19.7526C21.1849 19.7526 22.149 18.7885 22.149 17.6036C22.149 16.4187 21.1849 15.4546 20 15.4546ZM20 18.5804C19.4614 18.5804 19.0232 18.1422 19.0232 17.6036C19.0232 17.065 19.4614 16.6268 20 16.6268C20.5386 16.6268 20.9768 17.065 20.9768 17.6036C20.9768 18.1422 20.5386 18.5804 20 18.5804Z" fill="#3498DB"/>
<path d="M8.95563 2.66101C7.75407 2.66101 6.77649 3.63851 6.77649 4.84007C6.77649 6.04164 7.75407 7.01914 8.95563 7.01914C10.1572 7.01914 11.1347 6.04164 11.1347 4.84007C11.1347 3.63851 10.1572 2.66101 8.95563 2.66101ZM8.95563 5.84695C8.4004 5.84695 7.94868 5.39523 7.94868 4.84007C7.94868 4.28492 8.4004 3.8332 8.95563 3.8332C9.51079 3.8332 9.9625 4.28492 9.9625 4.84007C9.9625 5.39523 9.51086 5.84695 8.95563 5.84695Z" fill="#3498DB"/>
<path d="M31.0444 2.66101C29.8428 2.66101 28.8653 3.63851 28.8653 4.84007C28.8653 6.04164 29.8428 7.01914 31.0444 7.01914C32.2459 7.01914 33.2235 6.04164 33.2235 4.84007C33.2235 3.63851 32.2458 2.66101 31.0444 2.66101ZM31.0444 5.84695C30.4892 5.84695 30.0375 5.39523 30.0375 4.84007C30.0375 4.28492 30.4892 3.8332 31.0444 3.8332C31.5996 3.8332 32.0513 4.28492 32.0513 4.84007C32.0513 5.39523 31.5996 5.84695 31.0444 5.84695Z" fill="#3498DB"/>
<path d="M8.95562 32.9808C7.75405 32.9808 6.77655 33.9584 6.77655 35.1599C6.77655 36.3614 7.75413 37.339 8.95562 37.339C10.1572 37.339 11.1347 36.3615 11.1347 35.1599C11.1347 33.9583 10.1572 32.9808 8.95562 32.9808ZM8.95562 36.1668C8.40038 36.1668 7.94866 35.7151 7.94866 35.1599C7.94874 34.6047 8.40038 34.153 8.95562 34.153C9.51077 34.153 9.96249 34.6047 9.96249 35.1599C9.96249 35.7151 9.51077 36.1668 8.95562 36.1668Z" fill="#3498DB"/>
<path d="M31.0444 32.9808C29.8428 32.9808 28.8653 33.9583 28.8653 35.1599C28.8653 36.3615 29.8428 37.339 31.0444 37.339C32.2459 37.339 33.2235 36.3615 33.2235 35.1599C33.2235 33.9583 32.2458 32.9808 31.0444 32.9808ZM31.0444 36.1669C30.4892 36.1669 30.0375 35.7151 30.0375 35.16C30.0375 34.6047 30.4892 34.1531 31.0444 34.1531C31.5996 34.1531 32.0513 34.6048 32.0513 35.16C32.0512 35.7151 31.5996 36.1669 31.0444 36.1669Z" fill="#3498DB"/>
</svg>
