<svg width="20" height="20" viewBox="0 0 20 20" fill="none" xmlns="http://www.w3.org/2000/svg">
<path d="M18.75 3.75H5C4.30965 3.75 3.75 4.30965 3.75 5V18.75C3.75 19.4404 4.30965 20 5 20H18.75C19.4404 20 20 19.4404 20 18.75V5C20 4.30965 19.4404 3.75 18.75 3.75ZM18.75 18.75H5V5H18.75V18.75Z" fill="#F2F2F2"/>
<path d="M1.25 1.25H15V2.5H16.25V1.25C16.25 0.559648 15.6904 0 15 0H1.25C0.559648 0 0 0.559648 0 1.25V15C0 15.6904 0.559648 16.25 1.25 16.25H2.5V15H1.25V1.25Z" fill="#F2F2F2"/>
<path d="M11.25 14.375H12.5V12.5H14.375V11.25H12.5V9.375H11.25V11.25H9.375V12.5H11.25V14.375Z" fill="#F2F2F2"/>
</svg>
