<svg width="22" height="13" viewBox="0 0 22 13" fill="none" xmlns="http://www.w3.org/2000/svg">
<path d="M6.5 5.41667H15.1667V7.58333H6.5V5.41667ZM2.05833 6.5C2.05833 8.99167 4.00833 10.9417 6.5 10.9417H9.75V13H6.5C2.925 13 0 10.075 0 6.5C0 2.925 2.925 0 6.5 0H9.75V2.05833H6.5C4.00833 2.05833 2.05833 4.00833 2.05833 6.5ZM15.1667 13H11.9167V10.9417H15.1667C17.6583 10.9417 19.6083 8.99167 19.6083 6.5C19.6083 4.00833 17.6584 2.05833 15.1667 2.05833H11.9167V0H15.1667C18.7417 0 21.6667 2.925 21.6667 6.5C21.6667 10.075 18.7417 13 15.1667 13Z" fill="#3498DB"/>
</svg>
