<svg width="40" height="40" viewBox="0 0 40 40" fill="none" xmlns="http://www.w3.org/2000/svg">
<path d="M14.6803 18.2613C14.6803 17.9043 15.0128 17.6885 15.5966 17.6885C16.2778 17.6885 16.4643 17.9712 16.7158 17.9712C17.0077 17.9712 17.1374 17.629 17.1374 17.4578C17.1374 16.9669 16.0752 16.8627 15.5966 16.8627C14.6641 16.8627 13.626 17.2421 13.626 18.3506C13.626 20.1137 16.2292 19.7715 16.2292 20.8874C16.2292 21.3337 15.8075 21.5345 15.3209 21.5345C14.4938 21.5345 14.2749 20.9617 13.9424 20.9617C13.6909 20.9617 13.4802 21.2741 13.4802 21.4825C13.4802 21.914 14.291 22.405 15.3534 22.405C16.4726 22.405 17.2834 21.8545 17.2834 20.7906C17.2834 18.8639 14.6803 19.1838 14.6803 18.2613Z" fill="#3498DB"/>
<path d="M18.9134 18.2613C18.9134 17.9043 19.2459 17.6885 19.8297 17.6885C20.5109 17.6885 20.6974 17.9712 20.9489 17.9712C21.2408 17.9712 21.3705 17.629 21.3705 17.4578C21.3705 16.9669 20.3083 16.8627 19.8297 16.8627C18.8972 16.8627 17.8591 17.2421 17.8591 18.3506C17.8591 20.1137 20.4623 19.7715 20.4623 20.8874C20.4622 21.3337 20.0406 21.5345 19.554 21.5345C18.7269 21.5345 18.5079 20.9617 18.1754 20.9617C17.924 20.9617 17.7133 21.2741 17.7133 21.4825C17.7133 21.914 18.5241 22.405 19.5865 22.405C20.7057 22.405 21.5165 21.8545 21.5165 20.7906C21.5165 18.8639 18.9134 19.1838 18.9134 18.2613Z" fill="#3498DB"/>
<path d="M24.1356 16.8997H22.7002C22.4245 16.8997 22.238 17.0411 22.238 17.1974V22.0404C22.2381 22.1966 22.4245 22.3379 22.7002 22.3379H24.1356C25.2061 22.3379 26.0414 21.8766 26.0414 20.6343V18.6033C26.0414 17.361 25.2062 16.8997 24.1356 16.8997ZM24.9871 20.6344C24.9871 21.2147 24.6709 21.4899 24.1356 21.4899H23.2923V17.7479H24.1356C24.6709 17.7479 24.9871 18.0231 24.9871 18.6034V20.6344Z" fill="#3498DB"/>
<path d="M35.2555 11.8975C34.9317 11.8975 34.6694 12.1599 34.6694 12.4836V37.222C34.6694 38.1075 33.9491 38.8279 33.0636 38.8279H6.93643C6.05096 38.8279 5.33057 38.1075 5.33057 37.222V29.4144C5.33057 29.0908 5.06815 28.8283 4.74448 28.8283C4.42081 28.8283 4.15839 29.0908 4.15839 29.4144V37.222C4.15846 38.7537 5.40464 40 6.93643 40H33.0635C34.5953 40 35.8414 38.7537 35.8414 37.222V12.4836C35.8414 12.1599 35.5792 11.8975 35.2555 11.8975Z" fill="#3498DB"/>
<path d="M33.0635 0H6.93642C5.40462 0 4.15845 1.24625 4.15845 2.77797V26.2886C4.15845 26.6123 4.42087 26.8747 4.74454 26.8747C5.06821 26.8747 5.33063 26.6123 5.33063 26.2886V2.77797C5.33063 1.8925 6.05103 1.17211 6.93649 1.17211H33.0636C33.9491 1.17211 34.6694 1.8925 34.6694 2.77797V9.35781C34.6694 9.68149 34.9317 9.94391 35.2555 9.94391C35.5792 9.94391 35.8416 9.68149 35.8416 9.35781V2.77797C35.8414 1.24625 34.5952 0 33.0635 0Z" fill="#3498DB"/>
<path d="M28.1364 8.59587H27.3811V6.88071C27.3811 6.55704 27.1187 6.29462 26.795 6.29462C26.4712 6.29462 26.2089 6.55704 26.2089 6.88071V8.59594H23.9837V6.88071C23.9837 6.55704 23.7213 6.29462 23.3976 6.29462C23.0738 6.29462 22.8115 6.55704 22.8115 6.88071V8.59594H20.5862V6.88071C20.5862 6.55704 20.3238 6.29462 20.0001 6.29462C19.6764 6.29462 19.414 6.55704 19.414 6.88071V8.59594H17.1887V6.88071C17.1887 6.55704 16.9263 6.29462 16.6026 6.29462C16.279 6.29462 16.0166 6.55704 16.0166 6.88071V8.59594H13.7913V6.88071C13.7912 6.55704 13.5289 6.29462 13.2052 6.29462C12.8816 6.29462 12.6191 6.55704 12.6191 6.88071V8.59594H11.8639C11.0137 8.59594 10.322 9.28759 10.322 10.1378V29.8624C10.322 30.7126 11.0137 31.4042 11.8639 31.4042H12.6191V33.1195C12.6191 33.4431 12.8816 33.7056 13.2052 33.7056C13.5289 33.7056 13.7913 33.4431 13.7913 33.1195V31.4042H16.0166V33.1195C16.0166 33.4431 16.279 33.7056 16.6026 33.7056C16.9263 33.7056 17.1887 33.4431 17.1887 33.1195V31.4042H19.414V33.1195C19.414 33.4431 19.6764 33.7056 20.0001 33.7056C20.3238 33.7056 20.5862 33.4431 20.5862 33.1195V31.4042H22.8115V33.1195C22.8115 33.4431 23.0738 33.7056 23.3976 33.7056C23.7213 33.7056 23.9837 33.4431 23.9837 33.1195V31.4042H26.2089V33.1195C26.2089 33.4431 26.4712 33.7056 26.795 33.7056C27.1187 33.7056 27.3811 33.4431 27.3811 33.1195V31.4042H28.1364C28.9866 31.4042 29.6782 30.7126 29.6782 29.8624V10.1377C29.6782 9.28751 28.9865 8.59587 28.1364 8.59587ZM28.5058 29.8623C28.5058 30.0662 28.3399 30.232 28.1361 30.232H11.8639C11.66 30.232 11.4942 30.0661 11.4942 29.8623V10.1377C11.4942 9.93384 11.6601 9.76805 11.8639 9.76805H28.1362C28.34 9.76805 28.5058 9.93391 28.5058 10.1377V29.8623H28.5058Z" fill="#3498DB"/>
<path d="M8.95561 2.66101C7.75405 2.66101 6.77655 3.63851 6.77655 4.84007C6.77655 6.04164 7.75405 7.01914 8.95561 7.01914C10.1572 7.01914 11.1347 6.04164 11.1347 4.84007C11.1347 3.63851 10.1572 2.66101 8.95561 2.66101ZM8.95561 5.84695C8.40038 5.84695 7.94874 5.39523 7.94874 4.84007C7.94874 4.28492 8.40045 3.8332 8.95561 3.8332C9.51084 3.8332 9.96256 4.28492 9.96256 4.84007C9.96256 5.39523 9.51077 5.84695 8.95561 5.84695Z" fill="#3498DB"/>
<path d="M31.0444 2.66101C29.8428 2.66101 28.8653 3.63851 28.8653 4.84007C28.8653 6.04164 29.8428 7.01914 31.0444 7.01914C32.2459 7.01914 33.2235 6.04164 33.2235 4.84007C33.2235 3.63851 32.2458 2.66101 31.0444 2.66101ZM31.0444 5.84695C30.4892 5.84695 30.0375 5.39523 30.0375 4.84007C30.0375 4.28492 30.4892 3.8332 31.0444 3.8332C31.5996 3.8332 32.0513 4.28492 32.0513 4.84007C32.0513 5.39523 31.5996 5.84695 31.0444 5.84695Z" fill="#3498DB"/>
<path d="M8.95561 32.9808C7.75405 32.9808 6.77655 33.9583 6.77655 35.1599C6.77655 36.3615 7.75413 37.339 8.95561 37.339C10.1572 37.339 11.1347 36.3615 11.1347 35.1599C11.1347 33.9583 10.1572 32.9808 8.95561 32.9808ZM8.95561 36.1668C8.40038 36.1668 7.94874 35.7151 7.94874 35.1599C7.94874 34.6047 8.40045 34.153 8.95561 34.153C9.51084 34.153 9.96256 34.6047 9.96256 35.1599C9.96248 35.7151 9.51077 36.1668 8.95561 36.1668Z" fill="#3498DB"/>
<path d="M31.0444 32.9808C29.8428 32.9808 28.8653 33.9583 28.8653 35.1599C28.8653 36.3615 29.8428 37.339 31.0444 37.339C32.2459 37.339 33.2235 36.3615 33.2235 35.1599C33.2235 33.9583 32.2458 32.9808 31.0444 32.9808ZM31.0444 36.1669C30.4892 36.1669 30.0375 35.7151 30.0375 35.16C30.0375 34.6047 30.4892 34.1531 31.0444 34.1531C31.5996 34.1531 32.0513 34.6048 32.0513 35.16C32.0513 35.7151 31.5996 36.1669 31.0444 36.1669Z" fill="#3498DB"/>
</svg>
