<svg width="40" height="40" viewBox="0 0 40 40" fill="none" xmlns="http://www.w3.org/2000/svg">
<path d="M38.5533 15.3427V7.63462C38.5533 6.43368 37.6361 5.45657 36.5085 5.45657H3.04482C1.91727 5.45665 1 6.43368 1 7.63462V15.3427C1 15.9702 1.2507 16.5362 1.65066 16.934C1.2507 17.3319 1 17.8978 1 18.5253V26.2335C1 27.4345 1.91727 28.4116 3.04482 28.4116H17.6643V31.7483H15.0785C14.5204 31.7483 14.0518 32.1587 13.9213 32.7106H5.704C5.10278 32.7106 4.61363 33.2315 4.61363 33.872V36.0492C4.61363 36.6895 5.1027 37.2106 5.704 37.2106H13.8881C13.9309 37.8712 14.4478 38.3951 15.0786 38.3951H24.4747C25.1056 38.3951 25.6224 37.8712 25.6652 37.2106H33.8493C34.4506 37.2106 34.9397 36.6896 34.9397 36.0492V33.8719C34.9397 33.2315 34.4506 32.7105 33.8493 32.7105H25.632C25.5014 32.1586 25.0328 31.7482 24.4747 31.7482H21.889V28.4115H36.5084C37.636 28.4115 38.5533 27.4345 38.5533 26.2334V18.5252C38.5533 17.8977 38.3026 17.3318 37.9026 16.934C38.3026 16.5362 38.5533 15.9702 38.5533 15.3427ZM5.71551 36.0367V33.8841H13.8839V36.0367H5.71551ZM25.6695 33.8841H33.8378V36.0367H25.6695V33.8841ZM24.4747 32.9219C24.5258 32.9219 24.5675 32.9662 24.5675 33.0207V37.1224C24.5675 37.1769 24.5258 37.2213 24.4747 37.2213H15.0786C15.0275 37.2213 14.9858 37.177 14.9858 37.1224V33.0207C14.9858 32.9663 15.0275 32.9219 15.0786 32.9219H24.4747ZM18.7663 31.7481V28.4115H20.7872V31.7481H18.7663ZM37.4515 26.2333C37.4515 26.7872 37.0285 27.2378 36.5085 27.2378H3.04482C2.52487 27.2378 2.10188 26.7871 2.10188 26.2333V18.5252C2.10188 17.9713 2.52487 17.5207 3.04482 17.5207H36.5085C37.0285 17.5207 37.4515 17.9713 37.4515 18.5252V26.2333ZM37.4515 15.3427C37.4515 15.8966 37.0285 16.3472 36.5085 16.3472H3.04482C2.52487 16.3472 2.10188 15.8966 2.10188 15.3427V7.63462C2.10188 7.08079 2.52487 6.63025 3.04482 6.63025H36.5085C37.0285 6.63025 37.4515 7.08079 37.4515 7.63462V15.3427Z" fill="#3498DB"/>
<path d="M37.1628 2.61561C36.8261 1.99225 36.1975 1.60498 35.5222 1.60498H4.03112C3.34445 1.60498 2.71074 2.00193 2.37716 2.64092C2.2293 2.92404 2.32494 3.28139 2.59089 3.43889C2.67576 3.48912 2.76751 3.51303 2.85817 3.51295C3.05166 3.51295 3.23942 3.40412 3.3402 3.21123C3.47948 2.94443 3.74427 2.77865 4.0312 2.77865H35.5223C35.8045 2.77865 36.0671 2.94045 36.2077 3.20076C36.3594 3.4817 36.6963 3.5785 36.9599 3.41686C37.2237 3.25529 37.3145 2.89654 37.1628 2.61561Z" fill="#3498DB"/>
<path d="M34.1885 7.74609H29.4772C28.8522 7.74609 28.3438 8.28766 28.3438 8.95328V13.9716C28.3438 14.6373 28.8522 15.1787 29.4772 15.1787H34.1885C34.8135 15.1787 35.3219 14.6372 35.3219 13.9716V8.95328C35.322 8.2875 34.8135 7.74609 34.1885 7.74609ZM34.2201 13.9715C34.2201 13.99 34.2059 14.005 34.1886 14.005H29.4773C29.4599 14.005 29.4458 13.9899 29.4458 13.9715V8.9532C29.4458 8.93469 29.4599 8.91969 29.4773 8.91969H34.1886C34.2059 8.91969 34.2201 8.93477 34.2201 8.9532V13.9715Z" fill="#3498DB"/>
<path d="M34.1885 18.6366H29.4772C28.8522 18.6366 28.3438 19.1781 28.3438 19.8438V24.862C28.3438 25.5277 28.8522 26.0693 29.4772 26.0693H34.1885C34.8135 26.0693 35.3219 25.5277 35.3219 24.862V19.8438C35.322 19.1781 34.8135 18.6366 34.1885 18.6366ZM34.2201 24.862C34.2201 24.8806 34.2059 24.8956 34.1886 24.8956H29.4773C29.4599 24.8956 29.4458 24.8806 29.4458 24.862V19.8438C29.4458 19.8252 29.4599 19.8102 29.4773 19.8102H34.1886C34.2059 19.8102 34.2201 19.8253 34.2201 19.8438V24.862Z" fill="#3498DB"/>
<path d="M17.5781 8.02524H4.68086C4.37662 8.02524 4.12988 8.28797 4.12988 8.61211C4.12988 8.93625 4.37655 9.19899 4.68086 9.19899H17.5782C17.8824 9.19899 18.1291 8.93625 18.1291 8.61211C18.1291 8.28789 17.8824 8.02524 17.5781 8.02524Z" fill="#3498DB"/>
<path d="M22.7517 8.02524H20.5165C20.2123 8.02524 19.9655 8.28797 19.9655 8.61211C19.9655 8.93625 20.2122 9.19899 20.5165 9.19899H22.7517C23.056 9.19899 23.3027 8.93625 23.3027 8.61211C23.3027 8.28789 23.056 8.02524 22.7517 8.02524Z" fill="#3498DB"/>
<path d="M22.7517 10.8755H20.5165C20.2123 10.8755 19.9655 11.1383 19.9655 11.4624C19.9655 11.7866 20.2122 12.0493 20.5165 12.0493H22.7517C23.056 12.0493 23.3027 11.7866 23.3027 11.4624C23.3027 11.1383 23.056 10.8755 22.7517 10.8755Z" fill="#3498DB"/>
<path d="M17.5781 10.8755H4.68086C4.37662 10.8755 4.12988 11.1383 4.12988 11.4624C4.12988 11.7866 4.37655 12.0493 4.68086 12.0493H17.5782C17.8824 12.0493 18.1291 11.7866 18.1291 11.4624C18.1291 11.1383 17.8824 10.8755 17.5781 10.8755Z" fill="#3498DB"/>
<path d="M22.7517 13.7259H20.5165C20.2123 13.7259 19.9655 13.9887 19.9655 14.3128C19.9655 14.6369 20.2122 14.8997 20.5165 14.8997H22.7517C23.056 14.8997 23.3027 14.6369 23.3027 14.3128C23.3027 13.9886 23.056 13.7259 22.7517 13.7259Z" fill="#3498DB"/>
<path d="M17.5781 13.7259H4.68086C4.37662 13.7259 4.12988 13.9887 4.12988 14.3128C4.12988 14.6369 4.37655 14.8997 4.68086 14.8997H17.5782C17.8824 14.8997 18.1291 14.6369 18.1291 14.3128C18.1291 13.9886 17.8824 13.7259 17.5781 13.7259Z" fill="#3498DB"/>
<path d="M17.5781 18.9421H4.68086C4.37662 18.9421 4.12988 19.2048 4.12988 19.529C4.12988 19.8531 4.37655 20.1158 4.68086 20.1158H17.5782C17.8824 20.1158 18.1291 19.853 18.1291 19.529C18.1291 19.2048 17.8824 18.9421 17.5781 18.9421Z" fill="#3498DB"/>
<path d="M22.7517 18.9421H20.5165C20.2123 18.9421 19.9655 19.2048 19.9655 19.529C19.9655 19.8531 20.2122 20.1158 20.5165 20.1158H22.7517C23.056 20.1158 23.3027 19.853 23.3027 19.529C23.3027 19.2048 23.056 18.9421 22.7517 18.9421Z" fill="#3498DB"/>
<path d="M22.7517 21.7925H20.5165C20.2123 21.7925 19.9655 22.0552 19.9655 22.3794C19.9655 22.7035 20.2122 22.9663 20.5165 22.9663H22.7517C23.056 22.9663 23.3027 22.7035 23.3027 22.3794C23.3027 22.0552 23.056 21.7925 22.7517 21.7925Z" fill="#3498DB"/>
<path d="M17.5781 21.7925H4.68086C4.37662 21.7925 4.12988 22.0552 4.12988 22.3794C4.12988 22.7035 4.37655 22.9663 4.68086 22.9663H17.5782C17.8824 22.9663 18.1291 22.7035 18.1291 22.3794C18.1291 22.0552 17.8824 21.7925 17.5781 21.7925Z" fill="#3498DB"/>
<path d="M22.7517 24.6428H20.5165C20.2123 24.6428 19.9655 24.9055 19.9655 25.2297C19.9655 25.5538 20.2122 25.8165 20.5165 25.8165H22.7517C23.056 25.8165 23.3027 25.5538 23.3027 25.2297C23.3027 24.9055 23.056 24.6428 22.7517 24.6428Z" fill="#3498DB"/>
<path d="M17.5781 24.6428H4.68086C4.37662 24.6428 4.12988 24.9055 4.12988 25.2297C4.12988 25.5538 4.37655 25.8165 4.68086 25.8165H17.5782C17.8824 25.8165 18.1291 25.5538 18.1291 25.2297C18.1291 24.9055 17.8824 24.6428 17.5781 24.6428Z" fill="#3498DB"/>
</svg>
