<svg width="20" height="20" viewBox="0 0 20 20" fill="none" xmlns="http://www.w3.org/2000/svg">
<path d="M10 20C15.5228 20 20 15.5228 20 10C20 4.47715 15.5228 0 10 0C4.47715 0 0 4.47715 0 10C0 15.5228 4.47715 20 10 20Z" fill="#6FCF97"/>
<path d="M16 9H4C3.44772 9 3 9.44771 3 10C3 10.5523 3.44772 11 4 11H16C16.5523 11 17 10.5523 17 10C17 9.44771 16.5523 9 16 9Z" fill="white"/>
<path d="M11 16V4C11 3.44772 10.5523 3 10 3C9.44772 3 9 3.44772 9 4V16C9 16.5523 9.44772 17 10 17C10.5523 17 11 16.5523 11 16Z" fill="white"/>
</svg>
