<svg width="20" height="20" viewBox="0 0 20 20" fill="none" xmlns="http://www.w3.org/2000/svg">
<path d="M15.7531 3.57144H14.637C14.6137 3.57144 14.5931 3.57943 14.5714 3.58466V2.41266C14.5714 1.63366 13.9233 1 13.1264 1H3.44503C2.64817 1 2 1.63366 2 2.41266V15.5873C2 16.3663 2.64817 17 3.44503 17H5.14286V17.6378C5.14286 18.389 5.76619 19 6.53265 19H15.7531C16.5195 19 17.1429 18.389 17.1429 17.6378V4.93359C17.1429 4.18248 16.5195 3.57144 15.7531 3.57144ZM2.57142 15.5873V2.41266C2.57142 1.94894 2.96345 1.57144 3.44503 1.57144H13.1264C13.608 1.57144 14 1.94894 14 2.41266V15.5873C14 16.0511 13.608 16.4286 13.1264 16.4286H3.44503C2.96345 16.4286 2.57142 16.0511 2.57142 15.5873ZM16.5714 17.6378C16.5714 18.074 16.2042 18.4286 15.7531 18.4286H6.53265C6.08147 18.4286 5.71427 18.074 5.71427 17.6378V17H13.1264C13.9233 17 14.5714 16.3663 14.5714 15.5873V4.12964C14.593 4.13487 14.6137 4.14286 14.637 4.14286H15.7531C16.2042 4.14286 16.5714 4.49748 16.5714 4.93359V17.6378Z" fill="#F2F2F2"/>
<path d="M11.4286 4.7143H5.14286C4.98494 4.7143 4.85714 4.84208 4.85714 5C4.85714 5.15795 4.98494 5.28572 5.14286 5.28572H11.4286C11.5865 5.28572 11.7143 5.15795 11.7143 5C11.7143 4.84208 11.5865 4.7143 11.4286 4.7143Z" fill="#F2F2F2"/>
<path d="M11.4286 7.00002H5.14286C4.98494 7.00002 4.85714 7.12779 4.85714 7.28571C4.85714 7.44363 4.98494 7.57143 5.14286 7.57143H11.4286C11.5865 7.57143 11.7143 7.44363 11.7143 7.28571C11.7143 7.12779 11.5865 7.00002 11.4286 7.00002Z" fill="#F2F2F2"/>
<path d="M11.4286 9.28571H5.14286C4.98494 9.28571 4.85714 9.41351 4.85714 9.57143C4.85714 9.72935 4.98494 9.85715 5.14286 9.85715H11.4286C11.5865 9.85715 11.7143 9.72935 11.7143 9.57143C11.7143 9.41351 11.5865 9.28571 11.4286 9.28571Z" fill="#F2F2F2"/>
<path d="M8.57144 11.5714H5.14286C4.98494 11.5714 4.85714 11.6992 4.85714 11.8571C4.85714 12.0151 4.98494 12.1429 5.14286 12.1429H8.57144C8.72936 12.1429 8.85713 12.0151 8.85713 11.8571C8.85713 11.6992 8.72936 11.5714 8.57144 11.5714Z" fill="#F2F2F2"/>
</svg>
