<svg width="22" height="20" viewBox="0 0 22 20" fill="none" xmlns="http://www.w3.org/2000/svg">
<path d="M15.2595 9.47518L12.9144 7.82184C12.4895 7.5223 11.9022 7.82732 11.9022 8.34668V9.35788H0.642141C0.287508 9.35788 0 9.64539 0 10C0 10.3547 0.287508 10.6422 0.642141 10.6422H11.9022V11.6533C11.9022 12.1761 12.4926 12.4754 12.9144 12.1782L15.2595 10.5249C15.6218 10.2695 15.6215 9.73088 15.2595 9.47518Z" fill="#F2F2F2"/>
<path d="M11.9184 0C8.23015 0 4.99081 2.00164 3.25664 4.99941C3.07907 5.3064 3.18395 5.69922 3.49094 5.87679C3.79797 6.05436 4.19074 5.9494 4.36832 5.64245C5.87679 3.03493 8.69609 1.28428 11.9184 1.28428C16.7243 1.28428 20.6341 5.19411 20.6341 10C20.6341 14.8059 16.7243 18.7158 11.9184 18.7158C8.69412 18.7158 5.87572 16.9634 4.36827 14.3575C4.1907 14.0505 3.79792 13.9456 3.49089 14.1231C3.18391 14.3007 3.07898 14.6935 3.2566 15.0005C4.99119 17.9992 8.23109 20 11.9184 20C17.4454 20 21.9184 15.5275 21.9184 10C21.9184 4.47294 17.4459 0 11.9184 0Z" fill="#F2F2F2"/>
</svg>
