<svg width="24" height="24" viewBox="0 0 24 24" fill="none" xmlns="http://www.w3.org/2000/svg">
<path d="M12 24C18.6274 24 24 18.6274 24 12C24 5.37258 18.6274 0 12 0C5.37258 0 0 5.37258 0 12C0 18.6274 5.37258 24 12 24Z" fill="#3498DB"/>
<path d="M19.4 10.8H4.59998C4.04769 10.8 3.59998 11.2477 3.59998 11.8V12.2C3.59998 12.7523 4.04769 13.2 4.59998 13.2H19.4C19.9523 13.2 20.4 12.7523 20.4 12.2V11.8C20.4 11.2477 19.9523 10.8 19.4 10.8Z" fill="white"/>
<path d="M12.2 3.60001H11.8C11.2477 3.60001 10.8 4.04772 10.8 4.60001V19.4C10.8 19.9523 11.2477 20.4 11.8 20.4H12.2C12.7523 20.4 13.2 19.9523 13.2 19.4V4.60001C13.2 4.04772 12.7523 3.60001 12.2 3.60001Z" fill="white"/>
</svg>
