<svg width="20" height="20" viewBox="0 0 20 20" fill="none" xmlns="http://www.w3.org/2000/svg">
<path d="M19.9036 1.36717C19.814 1.27994 19.6818 1.25295 19.5653 1.29827L0.203626 8.81774C0.0885484 8.86243 0.00960322 8.96942 0.000814174 9.09251C-0.00797487 9.21559 0.0549547 9.3327 0.162455 9.39329L4.17491 11.654L5.56752 18.461C5.57619 18.5091 5.59576 18.5539 5.62385 18.5924C5.62666 18.5963 5.62897 18.5992 5.63131 18.6022C5.68037 18.6636 5.74994 18.7064 5.83104 18.7194C5.84139 18.721 5.85178 18.7222 5.86209 18.7228C5.86877 18.7233 5.87541 18.7235 5.88205 18.7235C5.94295 18.7235 6.00065 18.7061 6.04983 18.6755C6.06647 18.6652 6.08229 18.6533 6.09697 18.6398C6.10154 18.6355 6.10553 18.6318 6.1094 18.6278L9.12982 15.5997C9.25427 15.4749 9.25404 15.2728 9.12923 15.1483C9.00431 15.0238 8.80236 15.0241 8.67787 15.1489L6.30526 17.5276L6.81791 13.1372L14.0638 17.1143C14.1368 17.1541 14.2179 17.1627 14.2922 17.1448C14.3003 17.1428 14.3078 17.1407 14.3152 17.1383C14.3885 17.1145 14.4529 17.065 14.4938 16.9939C14.4959 16.9902 14.4977 16.9869 14.4995 16.9835C14.5078 16.9678 14.5145 16.9523 14.5197 16.9366L19.9812 1.70346C20.0234 1.5858 19.9931 1.45432 19.9036 1.36717ZM1.06374 9.16845L16.8892 3.02232L4.44698 11.0747L1.06374 9.16845ZM6.35623 12.3803C6.32639 12.4043 6.30041 12.434 6.2801 12.4689C6.27744 12.4734 6.27494 12.4781 6.27252 12.4827C6.25315 12.5202 6.2419 12.5597 6.23819 12.5993L5.79549 16.3906L4.81475 11.597L15.561 4.6422L6.35623 12.3803ZM14.0432 16.3748L7.11807 12.5738L18.9815 2.60057L14.0432 16.3748Z" fill="#F2F2F2"/>
</svg>
