<svg width="40" height="40" viewBox="0 0 40 40" fill="none" xmlns="http://www.w3.org/2000/svg">
<path d="M24.839 30.0761L9.92429 15.1614C9.70334 14.9404 9.34509 14.9404 9.12414 15.1614C8.90312 15.3823 8.90312 15.7406 9.12414 15.9615L24.0388 30.8762C24.1493 30.9867 24.2942 31.042 24.4389 31.042C24.5837 31.042 24.7285 30.9867 24.839 30.8762C25.06 30.6553 25.06 30.297 24.839 30.0761Z" fill="#3498DB"/>
<path d="M27.3241 27.5912L12.4093 12.6765C12.1883 12.4555 11.8301 12.4555 11.6091 12.6765C11.3882 12.8974 11.3882 13.2557 11.6091 13.4766L26.5239 28.3913C26.6344 28.5019 26.7792 28.5571 26.924 28.5571C27.0687 28.5571 27.2136 28.5019 27.3241 28.3913C27.545 28.1704 27.545 27.8121 27.3241 27.5912Z" fill="#3498DB"/>
<path d="M25.4525 20.8437L14.8473 10.2384C14.6263 10.0175 14.2681 10.0175 14.0471 10.2384C13.8261 10.4594 13.8261 10.8176 14.0471 11.0386L24.6524 21.6439C24.7628 21.7543 24.9077 21.8096 25.0524 21.8096C25.1972 21.8096 25.342 21.7544 25.4525 21.6439C25.6735 21.4229 25.6735 21.0647 25.4525 20.8437Z" fill="#3498DB"/>
<path d="M29.762 25.1531L27.5865 22.9775C27.3655 22.7566 27.0074 22.7565 26.7863 22.9775C26.5653 23.1985 26.5653 23.5567 26.7863 23.7777L28.9617 25.9532C29.0723 26.0637 29.2171 26.119 29.3619 26.119C29.5067 26.119 29.6515 26.0637 29.762 25.9532C29.9829 25.7323 29.9829 25.374 29.762 25.1531Z" fill="#3498DB"/>
<path d="M38.6346 23.2865L34.9782 19.63L37.1827 17.4256C37.4105 17.1978 37.536 16.8949 37.536 16.5728C37.536 16.2506 37.4105 15.9477 37.1827 15.7199L24.2803 2.81765C24.0526 2.58987 23.7496 2.46436 23.4275 2.46436C23.1052 2.46436 22.8024 2.58987 22.5747 2.81765L20.3702 5.02209L16.7138 1.36563C16.2264 0.878161 15.4331 0.878086 14.9456 1.36563L13.5823 2.72895C13.3461 2.96512 13.216 3.27906 13.216 3.61305C13.216 3.94703 13.3461 4.26098 13.5823 4.49714L14.1833 5.09816L8.22327 11.0582C8.00232 11.2791 8.00232 11.6374 8.22327 11.8583C8.44422 12.0793 8.80247 12.0793 9.02342 11.8583L14.9834 5.89832L34.1018 25.0168L24.3282 34.7904C24.1891 34.9295 24.0042 35.0062 23.8074 35.0062C23.6107 35.0062 23.4257 34.9296 23.2866 34.7904L5.20984 16.7136C5.07068 16.5745 4.99409 16.3896 4.99409 16.1928C4.99409 15.9961 5.07068 15.8111 5.20984 15.672L6.88963 13.9922C7.11058 13.7712 7.11058 13.413 6.88963 13.192C6.66868 12.9711 6.31043 12.9711 6.08948 13.192L4.40969 14.8717C4.05685 15.2246 3.86247 15.6938 3.86247 16.1928C3.86247 16.6917 4.05685 17.1609 4.40969 17.5138L4.61119 17.7153L3.27674 19.0497C3.04213 19.2843 2.91299 19.5962 2.91299 19.9279C2.91299 20.2596 3.04221 20.5714 3.27674 20.806L4.27936 21.8087C4.51396 22.0433 4.82583 22.1725 5.15751 22.1725C5.4892 22.1725 5.80107 22.0433 6.03567 21.8087L7.37012 20.4743L7.80156 20.9057L6.07248 24.7034C5.80567 25.2894 5.93228 25.9889 6.38762 26.4441L7.76527 27.8218L7.04312 28.5439C6.42361 29.1634 6.42361 30.1715 7.04312 30.7911L7.72608 31.474L1.16596 38.0341C0.945007 38.2551 0.945007 38.6134 1.16596 38.8343C1.38691 39.0552 1.74516 39.0552 1.96618 38.8343L8.5263 32.2742L9.20927 32.9571C9.51905 33.2669 9.92592 33.4218 10.3329 33.4218C10.7397 33.4218 11.1467 33.2669 11.4565 32.9571L12.1785 32.2351L13.5562 33.6128C13.8525 33.9091 14.2524 34.0662 14.6569 34.0662C14.8739 34.0662 15.0924 34.021 15.2969 33.9278L19.0946 32.1988L19.526 32.6302L18.1916 33.9647C17.957 34.1993 17.8278 34.5111 17.8278 34.8428C17.8278 35.1745 17.9569 35.4864 18.1915 35.721L19.1942 36.7237C19.4288 36.9582 19.7407 37.0873 20.0724 37.0873C20.4041 37.0873 20.7159 36.9581 20.9505 36.7236L22.285 35.3891L22.4866 35.5907C22.8394 35.9436 23.3085 36.1379 23.8075 36.1379C24.3065 36.1379 24.7758 35.9436 25.1285 35.5906L34.9021 25.8171L35.5031 26.4181C35.7469 26.6618 36.067 26.7837 36.3872 26.7837C36.7073 26.7837 37.0276 26.6618 37.2714 26.4181L38.6347 25.0547C39.1221 24.5672 39.1221 23.774 38.6346 23.2865ZM5.23544 21.0086C5.20873 21.0353 5.1783 21.0409 5.15744 21.0409C5.13666 21.0409 5.10623 21.0353 5.07951 21.0086L4.07682 20.0059C4.05017 19.9792 4.04453 19.9488 4.04453 19.928C4.04453 19.9071 4.0501 19.8767 4.07682 19.85L5.41127 18.5155L6.56982 19.6741L5.23544 21.0086ZM10.6562 32.157C10.4779 32.3353 10.1877 32.3353 10.0093 32.157L7.84327 29.9909C7.665 29.8126 7.665 29.5225 7.84327 29.3442L8.56542 28.622L11.3782 31.4349L10.6562 32.157ZM14.8278 32.8978C14.6692 32.9702 14.4795 32.9358 14.3562 32.8125L7.18769 25.644C7.06434 25.5206 7.03005 25.3311 7.10234 25.1723L8.65589 21.7601L18.24 31.3443L14.8278 32.8978ZM20.1501 35.9234C20.1235 35.95 20.0931 35.9556 20.0723 35.9556C20.0514 35.9556 20.021 35.95 19.9944 35.9233L18.9917 34.9207C18.965 34.894 18.9594 34.8635 18.9594 34.8427C18.9594 34.8219 18.965 34.7915 18.9917 34.7647L20.3261 33.4303L21.4848 34.5888L20.1501 35.9234ZM23.375 3.6178C23.4038 3.58893 23.4512 3.58878 23.4802 3.6178L36.3825 16.5201C36.397 16.5346 36.4044 16.5523 36.4044 16.5728C36.4044 16.5932 36.397 16.6109 36.3825 16.6254L34.178 18.8298L21.1704 5.82224L23.375 3.6178ZM37.8344 24.2545L36.4712 25.6178C36.425 25.664 36.3495 25.6641 36.3033 25.6179L14.3824 3.69699C14.3537 3.66827 14.3477 3.63554 14.3477 3.61312C14.3477 3.59071 14.3537 3.5579 14.3825 3.52918L15.7458 2.16586C15.7689 2.1427 15.7993 2.13112 15.8297 2.13112C15.8601 2.13112 15.8904 2.1427 15.9136 2.16586L37.8345 24.0867C37.8806 24.133 37.8806 24.2082 37.8344 24.2545Z" fill="#3498DB"/>
<path d="M24.898 5.87256C24.677 5.65161 24.3188 5.65153 24.0978 5.87256L23.3609 6.6094C23.1399 6.83035 23.1399 7.18861 23.3608 7.40956C23.4713 7.52007 23.6161 7.57529 23.7609 7.57529C23.9057 7.57529 24.0505 7.52007 24.161 7.40956L24.8979 6.67271C25.1189 6.45176 25.1189 6.09351 24.898 5.87256Z" fill="#3498DB"/>
<path d="M29.5128 10.4875C29.2919 10.2666 28.9336 10.2665 28.7127 10.4875L27.9758 11.2244C27.7548 11.4453 27.7548 11.8036 27.9757 12.0245C28.0862 12.135 28.231 12.1903 28.3758 12.1903C28.5206 12.1903 28.6654 12.135 28.7759 12.0245L29.5128 11.2877C29.7338 11.0667 29.7338 10.7085 29.5128 10.4875Z" fill="#3498DB"/>
<path d="M34.1277 15.1025C33.9069 14.8815 33.5486 14.8816 33.3276 15.1025L32.5908 15.8394C32.3698 16.0604 32.3698 16.4186 32.5908 16.6395C32.7013 16.7501 32.8461 16.8053 32.9909 16.8053C33.1356 16.8053 33.2805 16.75 33.391 16.6395L34.1278 15.9027C34.3488 15.6817 34.3488 15.3235 34.1277 15.1025Z" fill="#3498DB"/>
</svg>
