<svg width="20" height="20" viewBox="0 0 20 20" fill="none" xmlns="http://www.w3.org/2000/svg">
<path d="M19.9023 2.76433L17.2357 0.0976667C17.1732 0.0351502 17.0884 1.88791e-05 17 0H1.66667C1.2248 0.000529286 0.801186 0.176294 0.48874 0.48874C0.176294 0.801186 0.000529286 1.2248 0 1.66667V18.3333C0.000529286 18.7752 0.176294 19.1988 0.48874 19.5113C0.801186 19.8237 1.2248 19.9995 1.66667 20H18.3333C18.7752 19.9995 19.1988 19.8237 19.5113 19.5113C19.8237 19.1988 19.9995 18.7752 20 18.3333V3C20 2.9116 19.9649 2.82683 19.9023 2.76433ZM15.3333 0.666667V6C15.3333 6.08841 15.2982 6.17319 15.2357 6.2357C15.1732 6.29821 15.0884 6.33333 15 6.33333H5C4.91159 6.33333 4.82681 6.29821 4.7643 6.2357C4.70179 6.17319 4.66667 6.08841 4.66667 6V0.666667H15.3333ZM2.66667 19.3333V11C2.66667 10.7348 2.77202 10.4804 2.95956 10.2929C3.1471 10.1054 3.40145 10 3.66667 10H16.3333C16.5986 10 16.8529 10.1054 17.0404 10.2929C17.228 10.4804 17.3333 10.7348 17.3333 11V19.3333H2.66667ZM19.3333 18.3333C19.3333 18.5986 19.228 18.8529 19.0404 19.0404C18.8529 19.228 18.5986 19.3333 18.3333 19.3333H18V11C17.9995 10.5581 17.8237 10.1345 17.5113 9.82207C17.1988 9.50963 16.7752 9.33386 16.3333 9.33333H3.66667C3.2248 9.33386 2.80119 9.50963 2.48874 9.82207C2.17629 10.1345 2.00053 10.5581 2 11V19.3333H1.66667C1.40145 19.3333 1.1471 19.228 0.95956 19.0404C0.772024 18.8529 0.666667 18.5986 0.666667 18.3333V1.66667C0.666667 1.40145 0.772024 1.1471 0.95956 0.95956C1.1471 0.772024 1.40145 0.666667 1.66667 0.666667H4V6C4 6.26522 4.10536 6.51957 4.29289 6.70711C4.48043 6.89464 4.73478 7 5 7H15C15.2652 7 15.5196 6.89464 15.7071 6.70711C15.8946 6.51957 16 6.26522 16 6V0.666667H16.862L19.3333 3.138V18.3333Z" fill="#F2F2F2"/>
<path d="M12.3333 5.66667H14.3333C14.4217 5.66667 14.5065 5.63155 14.569 5.56904C14.6315 5.50652 14.6667 5.42174 14.6667 5.33333V1.66667C14.6667 1.57826 14.6315 1.49348 14.569 1.43096C14.5065 1.36845 14.4217 1.33333 14.3333 1.33333H12.3333C12.2449 1.33333 12.1601 1.36845 12.0976 1.43096C12.0351 1.49348 12 1.57826 12 1.66667V5.33333C12 5.42174 12.0351 5.50652 12.0976 5.56904C12.1601 5.63155 12.2449 5.66667 12.3333 5.66667ZM12.6667 2H14V5H12.6667V2Z" fill="#F2F2F2"/>
<path d="M15 14.3333H5C4.91159 14.3333 4.82681 14.3685 4.7643 14.431C4.70179 14.4935 4.66667 14.5783 4.66667 14.6667C4.66667 14.7551 4.70179 14.8399 4.7643 14.9024C4.82681 14.9649 4.91159 15 5 15H15C15.0884 15 15.1732 14.9649 15.2357 14.9024C15.2982 14.8399 15.3333 14.7551 15.3333 14.6667C15.3333 14.5783 15.2982 14.4935 15.2357 14.431C15.1732 14.3685 15.0884 14.3333 15 14.3333Z" fill="#F2F2F2"/>
<path d="M15 12.3333H5C4.91159 12.3333 4.82681 12.3685 4.7643 12.431C4.70179 12.4935 4.66667 12.5783 4.66667 12.6667C4.66667 12.7551 4.70179 12.8399 4.7643 12.9024C4.82681 12.9649 4.91159 13 5 13H15C15.0884 13 15.1732 12.9649 15.2357 12.9024C15.2982 12.8399 15.3333 12.7551 15.3333 12.6667C15.3333 12.5783 15.2982 12.4935 15.2357 12.431C15.1732 12.3685 15.0884 12.3333 15 12.3333Z" fill="#F2F2F2"/>
<path d="M15 16.3333H5C4.91159 16.3333 4.82681 16.3685 4.7643 16.431C4.70179 16.4935 4.66667 16.5783 4.66667 16.6667C4.66667 16.7551 4.70179 16.8399 4.7643 16.9024C4.82681 16.9649 4.91159 17 5 17H15C15.0884 17 15.1732 16.9649 15.2357 16.9024C15.2982 16.8399 15.3333 16.7551 15.3333 16.6667C15.3333 16.5783 15.2982 16.4935 15.2357 16.431C15.1732 16.3685 15.0884 16.3333 15 16.3333Z" fill="#F2F2F2"/>
</svg>
