<?xml version="1.0" encoding="iso-8859-1"?>
<!-- Generator: Adobe Illustrator 19.0.0, SVG Export Plug-In . SVG Version: 6.00 Build 0)  -->
<svg version="1.1" id="Capa_1" xmlns="http://www.w3.org/2000/svg" xmlns:xlink="http://www.w3.org/1999/xlink" x="0px" y="0px"
	 viewBox="0 0 512 512" style="enable-background:new 0 0 512 512;" xml:space="preserve">
<g>
	<g>
		<path d="M114.076,231.451c-17.365,0-31.492,14.127-31.492,31.492v5.943H38.06c-15.95,0-28.927,12.976-28.927,28.927v77.638
			c0,15.95,12.977,28.926,28.927,28.926h44.523v5.944c0,17.364,14.127,31.491,31.492,31.491c17.365,0,31.492-14.127,31.492-31.491
			V262.943C145.568,245.578,131.44,231.451,114.076,231.451z M38.06,388.987c-7.465,0-13.538-6.072-13.538-13.537v-77.638
			c0-7.465,6.073-13.538,13.538-13.538h44.523v104.713H38.06z M130.178,410.32c0,8.879-7.224,16.103-16.103,16.103
			c-8.879,0-16.103-7.223-16.103-16.103V262.943c0-8.879,7.224-16.104,16.103-16.104c8.879,0,16.103,7.224,16.103,16.104V410.32z"/>
	</g>
</g>
<g>
	<g>
		<path d="M473.942,268.886h-44.523v-5.943c0-17.365-14.127-31.492-31.491-31.492c-17.365,0-31.492,14.127-31.492,31.492V410.32
			c0,17.364,14.127,31.491,31.492,31.491c17.364,0,31.491-14.127,31.491-31.491v-5.944h21.057v26.158
			c0,28.165-22.914,51.08-51.08,51.08h-88.341c0,0,0,0,0,0.001c-3.149-8.782-11.554-15.083-21.406-15.083h-16.392
			c-12.535,0-22.734,10.199-22.734,22.734c0,12.535,10.198,22.734,22.733,22.734h16.392c9.821,0,18.205-6.26,21.378-14.998h88.369
			c36.651,0,66.468-29.817,66.468-66.468v-26.158h8.078c15.951,0,28.927-12.976,28.927-28.926v-77.638
			C502.868,281.862,489.892,268.886,473.942,268.886z M414.03,410.32c0,8.879-7.223,16.103-16.103,16.103
			c-8.879,0-16.104-7.223-16.104-16.103V262.943c0-8.879,7.224-16.104,16.104-16.104c8.879,0,16.103,7.224,16.103,16.104V410.32z
			 M289.648,496.612h-16.392c-4.051,0-7.346-3.295-7.346-7.346c0-4.051,3.295-7.346,7.346-7.346h16.392
			c4.051,0,7.347,3.295,7.347,7.346C296.995,493.317,293.699,496.612,289.648,496.612z M487.48,375.45
			c0,7.465-6.073,13.537-13.538,13.537h-44.523V284.274h44.523c7.465,0,13.538,6.073,13.538,13.538V375.45z"/>
	</g>
</g>
<g>
	<g>
		<path d="M256,29.363c-108.323,0-196.45,88.127-196.45,196.45v9.731c0,4.25,3.445,7.694,7.694,7.694
			c4.249,0,7.694-3.444,7.694-7.694v-9.731c0-99.838,81.224-181.061,181.062-181.061s181.061,81.223,181.061,181.061v9.731
			c0.001,4.25,3.446,7.694,7.695,7.694c4.25,0,7.694-3.444,7.694-7.694v-9.731C452.45,117.49,364.323,29.363,256,29.363z"/>
	</g>
</g>
<g>
	<g>
		<path d="M415.676,66.138C373.025,23.488,316.318,0,256.001,0S138.977,23.488,96.326,66.138
			c-42.65,42.651-66.139,99.358-66.139,159.675v9.731c0,4.25,3.445,7.694,7.694,7.694s7.694-3.444,7.694-7.694v-9.731
			c0-56.206,21.888-109.049,61.632-148.793c39.745-39.744,92.587-61.632,148.794-61.632S365.05,37.276,404.794,77.02
			c39.745,39.744,61.633,92.586,61.633,148.793v9.731c0,4.25,3.444,7.694,7.694,7.694s7.694-3.444,7.694-7.694v-9.731
			C481.815,165.496,458.327,108.789,415.676,66.138z"/>
	</g>
</g>
<g>
</g>
<g>
</g>
<g>
</g>
<g>
</g>
<g>
</g>
<g>
</g>
<g>
</g>
<g>
</g>
<g>
</g>
<g>
</g>
<g>
</g>
<g>
</g>
<g>
</g>
<g>
</g>
<g>
</g>
</svg>
