<?xml version="1.0" encoding="iso-8859-1"?>
<!-- Generator: Adobe Illustrator 19.0.0, SVG Export Plug-In . SVG Version: 6.00 Build 0)  -->
<svg version="1.1" id="Capa_1" xmlns="http://www.w3.org/2000/svg" xmlns:xlink="http://www.w3.org/1999/xlink" x="0px" y="0px"
	 viewBox="0 0 512 512" style="enable-background:new 0 0 512 512;" xml:space="preserve">
<g>
	<g>
		<path d="M507.842,475.412l-33.645-250.907c-5.004-37.319-37.174-65.463-74.828-65.463h-53.276
			c-12.083,0-23.294,7.025-28.563,17.896c-2.78,5.735-8.693,9.441-15.066,9.441h-12.467v-12.605c0-8.694-7.073-15.766-15.766-15.766
			H263.5v-10.666c0-12.589,10.242-22.831,22.832-22.831h10.332c20.86,0,37.83-16.97,37.83-37.83s-16.971-37.831-37.83-37.831h-9.413
			c-12.589,0-22.832-10.242-22.832-22.831V7.499c0-4.142-3.358-7.499-7.499-7.499s-7.499,3.357-7.499,7.499v18.519
			c0,20.86,16.971,37.83,37.83,37.83h9.413c12.589,0,22.832,10.242,22.832,22.832c0,12.589-10.242,22.831-22.832,22.831h-10.332
			c-20.86,0-37.83,16.97-37.83,37.83v10.666h-9.232c-8.694,0-15.766,7.073-15.766,15.766v12.605h-13.967
			c-6.373,0-12.286-3.706-15.066-9.44c-5.269-10.872-16.48-17.897-28.563-17.897h-53.276c-37.654,0-69.824,28.143-74.828,65.463
			L4.157,475.434c-1.212,9.236,1.617,18.548,7.76,25.55C18.06,507.985,26.925,512,36.24,512h32.066
			c23.321,0,45.049-12.553,56.703-32.759c2.07-3.588,0.839-8.174-2.749-10.243c-3.589-2.069-8.175-0.839-10.243,2.75
			c-8.985,15.577-25.734,25.254-43.711,25.254H36.24c-4.997,0-9.753-2.154-13.049-5.911c-3.296-3.756-4.813-8.751-4.166-13.684
			L52.67,226.5c4.01-29.906,29.788-52.458,59.962-52.458h53.276c6.373,0,12.287,3.705,15.066,9.44
			c5.27,10.872,16.481,17.897,28.563,17.897h92.928c12.082,0,23.293-7.025,28.563-17.898c2.779-5.734,8.693-9.439,15.066-9.439
			h53.276c30.174,0,55.952,22.552,59.962,52.458l33.642,250.885c0.65,4.955-0.867,9.95-4.163,13.706
			c-3.296,3.757-8.052,5.911-13.049,5.911h-32.066c-18.171,0-35.008-9.832-43.942-25.659c-2.035-3.606-6.609-4.881-10.217-2.845
			c-3.607,2.036-4.88,6.61-2.845,10.217C398.28,499.246,420.123,512,443.696,512h32.066c9.315,0,18.18-4.015,24.323-11.017
			C506.228,493.982,509.056,484.669,507.842,475.412z M275,186.38L275,186.38h-36.498v-12.605c0-0.423,0.344-0.768,0.768-0.768
			h34.962c0.423,0,0.768,0.345,0.768,0.768V186.38z"/>
	</g>
</g>
<g>
	<g>
		<path d="M265.333,379.941h-18.928c-4.142,0-7.499,3.357-7.499,7.499c0,4.142,3.358,7.499,7.499,7.499h18.928
			c4.142,0,7.499-3.357,7.499-7.499C272.832,383.298,269.475,379.941,265.333,379.941z"/>
	</g>
</g>
<g>
	<g>
		<path d="M163.122,350.12c-29.106,0-52.785,23.679-52.785,52.785c0,29.106,23.679,52.786,52.785,52.786s52.786-23.68,52.786-52.786
			C215.908,373.799,192.228,350.12,163.122,350.12z M163.122,440.692c-20.836,0-37.787-16.951-37.787-37.787
			c0-20.835,16.951-37.786,37.787-37.786s37.787,16.951,37.787,37.786C200.909,423.741,183.958,440.692,163.122,440.692z"/>
	</g>
</g>
<g>
	<g>
		<path d="M348.88,350.12c-29.106,0-52.786,23.679-52.786,52.785c0,29.106,23.68,52.786,52.786,52.786s52.785-23.68,52.785-52.786
			C401.665,373.799,377.986,350.12,348.88,350.12z M348.88,440.692c-20.836,0-37.787-16.951-37.787-37.787
			c0-20.835,16.951-37.786,37.787-37.786s37.786,16.951,37.786,37.786C386.666,423.741,369.715,440.692,348.88,440.692z"/>
	</g>
</g>
<g>
	<g>
		<path d="M180.114,246.01H163.93v-16.184c0-13.74-11.179-24.919-24.919-24.919c-13.741,0-24.92,11.179-24.92,24.919v16.184H97.907
			c-13.741,0-24.919,11.179-24.919,24.92c0,13.74,11.179,24.919,24.919,24.919h16.184v16.184c0,13.74,11.179,24.919,24.92,24.919
			c13.741,0,24.919-11.179,24.919-24.919v-16.184h16.184c13.741,0,24.919-11.179,24.919-24.92
			C205.033,257.189,193.854,246.01,180.114,246.01z M180.114,280.85h-23.683c-4.142,0-7.499,3.357-7.499,7.499v23.684
			c0,5.47-4.45,9.92-9.921,9.92c-5.471,0-9.921-4.45-9.921-9.92V288.35c0-4.142-3.358-7.499-7.499-7.499H97.907
			c-5.47,0-9.921-4.451-9.921-9.921c0-5.47,4.45-9.92,9.921-9.92h23.683c4.142,0,7.499-3.357,7.499-7.499v-23.684
			c0-5.47,4.45-9.92,9.921-9.92c5.47,0,9.921,4.45,9.921,9.92v23.684c0,4.142,3.358,7.499,7.499,7.499h23.684v-0.001
			c5.47,0,9.921,4.451,9.921,9.921C190.035,276.4,185.585,280.85,180.114,280.85z"/>
	</g>
</g>
<g>
	<g>
		<path d="M372.991,204.907c-13.741,0-24.919,11.179-24.919,24.919c0,13.741,11.179,24.92,24.919,24.92
			c13.741,0,24.92-11.179,24.92-24.92C397.911,216.086,386.732,204.907,372.991,204.907z M372.991,239.747
			c-5.47,0-9.921-4.451-9.921-9.921c0-5.47,4.45-9.92,9.921-9.92c5.47,0,9.921,4.45,9.921,9.92
			C382.912,235.297,378.461,239.747,372.991,239.747z"/>
	</g>
</g>
<g>
	<g>
		<path d="M372.991,287.114c-13.741,0-24.919,11.179-24.919,24.92c0,13.74,11.179,24.919,24.919,24.919
			c13.741,0,24.92-11.179,24.92-24.919C397.911,298.293,386.732,287.114,372.991,287.114z M372.991,321.954
			c-5.47,0-9.921-4.45-9.921-9.92c0-5.47,4.45-9.921,9.921-9.921c5.47,0,9.921,4.451,9.921,9.921
			C382.912,317.504,378.461,321.954,372.991,321.954z"/>
	</g>
</g>
<g>
	<g>
		<path d="M414.095,246.01c-13.74,0-24.919,11.179-24.919,24.919c0,13.741,11.179,24.92,24.919,24.92
			c13.74,0,24.919-11.178,24.919-24.92C439.014,257.189,427.835,246.01,414.095,246.01z M414.095,280.85
			c-5.471,0.001-9.921-4.45-9.921-9.921c0-5.47,4.45-9.92,9.921-9.92c5.47,0,9.921,4.45,9.921,9.92
			C424.016,276.399,419.566,280.85,414.095,280.85z"/>
	</g>
</g>
<g>
	<g>
		<path d="M331.887,246.01c-13.74,0-24.919,11.179-24.919,24.919c0,13.741,11.179,24.92,24.919,24.92
			c13.74,0,24.919-11.179,24.919-24.92C356.806,257.189,345.627,246.01,331.887,246.01z M331.887,280.85
			c-5.47,0-9.921-4.451-9.921-9.921c0-5.47,4.45-9.92,9.921-9.92c5.471,0,9.921,4.45,9.921,9.92
			C341.808,276.399,337.358,280.85,331.887,280.85z"/>
	</g>
</g>
<g>
</g>
<g>
</g>
<g>
</g>
<g>
</g>
<g>
</g>
<g>
</g>
<g>
</g>
<g>
</g>
<g>
</g>
<g>
</g>
<g>
</g>
<g>
</g>
<g>
</g>
<g>
</g>
<g>
</g>
</svg>
