<?xml version="1.0" encoding="iso-8859-1"?>
<!-- Generator: Adobe Illustrator 19.0.0, SVG Export Plug-In . SVG Version: 6.00 Build 0)  -->
<svg version="1.1" id="Capa_1" xmlns="http://www.w3.org/2000/svg" xmlns:xlink="http://www.w3.org/1999/xlink" x="0px" y="0px"
	 viewBox="0 0 512 512" style="enable-background:new 0 0 512 512;" xml:space="preserve">
<g>
	<g>
		<path d="M512,196.387V97.723c0-15.372-12.506-27.879-27.879-27.879H27.879C12.506,69.845,0,82.351,0,97.723v98.664
			c0,8.032,3.418,15.276,8.871,20.368C3.418,221.848,0,229.092,0,237.124v98.664c0,15.373,12.506,27.88,27.879,27.88H227.2v42.71
			h-35.254c-7.61,0-13.998,5.253-15.778,12.317H64.134c-8.197,0-14.866,6.668-14.866,14.866v27.868
			c0,8.197,6.668,14.867,14.866,14.867h111.582c0.583,8.455,7.63,15.161,16.231,15.161h128.106c8.601,0,15.648-6.706,16.231-15.161
			h111.582c8.197,0,14.866-6.669,14.866-14.867V433.56c0-8.197-6.668-14.866-14.866-14.866H335.831
			c-1.78-7.064-8.169-12.317-15.778-12.317h-35.254v-42.71H484.12c15.373,0,27.879-12.506,27.879-27.88v-98.664
			c0-8.032-3.418-15.276-8.871-20.368C508.582,211.663,512,204.418,512,196.387z M64.291,461.27v-27.554h111.367v27.554H64.291z
			 M336.342,433.716h111.367v27.554H336.342V433.716z M320.053,421.4c0.697,0,1.265,0.567,1.265,1.265v52.502
			c0,0.697-0.568,1.265-1.265,1.265H191.947c-0.697,0-1.265-0.567-1.265-1.265v-52.502c0-0.697,0.568-1.265,1.265-1.265H320.053z
			 M242.224,406.376v-42.709h27.553v42.709H242.224z M496.977,335.786c0,7.09-5.767,12.857-12.856,12.857H27.879
			c-7.089,0-12.856-5.768-12.856-12.857v-98.664c0-7.089,5.767-12.857,12.856-12.857h456.242c7.089,0,12.856,5.768,12.856,12.857
			V335.786z M496.977,196.387c0,7.089-5.767,12.857-12.856,12.857H27.879c-7.089,0-12.856-5.768-12.856-12.857V97.723
			c0-7.089,5.767-12.856,12.856-12.856h456.242c7.089,0,12.856,5.767,12.856,12.856V196.387z"/>
	</g>
</g>
<g>
	<g>
		<path d="M493.041,33.48c-4.59-7.979-13.16-12.936-22.367-12.936H41.326c-9.362,0-18.002,5.081-22.55,13.26
			c-2.016,3.624-0.712,8.198,2.914,10.214c1.157,0.643,2.408,0.949,3.644,0.948c2.638,0,5.198-1.393,6.572-3.862
			c1.899-3.415,5.509-5.537,9.421-5.537h429.348c3.847,0,7.427,2.071,9.344,5.403c2.069,3.596,6.662,4.835,10.256,2.766
			C493.871,41.668,495.11,37.076,493.041,33.48z"/>
	</g>
</g>
<g>
	<g>
		<path d="M452.49,99.15h-64.233c-8.521,0-15.453,6.932-15.453,15.452v64.234c0,8.521,6.932,15.452,15.453,15.452h64.233
			c8.521,0,15.453-6.932,15.453-15.452v-64.234C467.944,106.08,461.011,99.15,452.49,99.15z M452.921,178.835
			c0,0.237-0.193,0.429-0.43,0.429h-64.233c-0.237,0-0.43-0.193-0.43-0.429v-64.234c0-0.237,0.193-0.429,0.43-0.429h64.233
			c0.237,0,0.43,0.193,0.43,0.429V178.835z"/>
	</g>
</g>
<g>
	<g>
		<path d="M452.49,238.548h-64.233c-8.521,0-15.453,6.932-15.453,15.453v64.233c0,8.521,6.932,15.453,15.453,15.453h64.233
			c8.521,0,15.453-6.932,15.453-15.453v-64.233C467.944,245.48,461.011,238.548,452.49,238.548z M452.921,318.234
			c0,0.238-0.193,0.43-0.43,0.43h-64.233c-0.237,0-0.43-0.193-0.43-0.43v-64.233c0-0.238,0.193-0.43,0.43-0.43h64.233
			c0.237,0,0.43,0.193,0.43,0.43V318.234z"/>
	</g>
</g>
<g>
	<g>
		<path d="M226.025,102.723H50.185c-4.148,0-7.512,3.363-7.512,7.512c0,4.149,3.363,7.512,7.512,7.512h175.841
			c4.148,0,7.512-3.363,7.512-7.512C233.538,106.085,230.174,102.723,226.025,102.723z"/>
	</g>
</g>
<g>
	<g>
		<path d="M296.562,102.723h-30.475c-4.148,0-7.512,3.363-7.512,7.512c0,4.149,3.363,7.512,7.512,7.512h30.475
			c4.148,0,7.512-3.363,7.512-7.512C304.074,106.085,300.711,102.723,296.562,102.723z"/>
	</g>
</g>
<g>
	<g>
		<path d="M296.562,139.207h-30.475c-4.148,0-7.512,3.363-7.512,7.512s3.363,7.512,7.512,7.512h30.475
			c4.148,0,7.512-3.363,7.512-7.512S300.711,139.207,296.562,139.207z"/>
	</g>
</g>
<g>
	<g>
		<path d="M226.025,139.207H50.185c-4.148,0-7.512,3.363-7.512,7.512s3.363,7.512,7.512,7.512h175.841
			c4.148,0,7.512-3.363,7.512-7.512S230.174,139.207,226.025,139.207z"/>
	</g>
</g>
<g>
	<g>
		<path d="M296.562,175.692h-30.475c-4.148,0-7.512,3.363-7.512,7.512s3.363,7.512,7.512,7.512h30.475
			c4.148,0,7.512-3.363,7.512-7.512C304.074,179.054,300.711,175.692,296.562,175.692z"/>
	</g>
</g>
<g>
	<g>
		<path d="M226.025,175.692H50.185c-4.148,0-7.512,3.363-7.512,7.512s3.363,7.512,7.512,7.512h175.841
			c4.148,0,7.512-3.363,7.512-7.512C233.537,179.054,230.174,175.692,226.025,175.692z"/>
	</g>
</g>
<g>
	<g>
		<path d="M226.025,242.459H50.185c-4.148,0-7.512,3.363-7.512,7.512s3.363,7.511,7.512,7.511h175.841
			c4.148,0,7.512-3.363,7.512-7.511C233.537,245.822,230.174,242.459,226.025,242.459z"/>
	</g>
</g>
<g>
	<g>
		<path d="M296.562,242.459h-30.475c-4.148,0-7.512,3.363-7.512,7.512s3.363,7.511,7.512,7.511h30.475
			c4.148,0,7.512-3.363,7.512-7.511C304.074,245.822,300.711,242.459,296.562,242.459z"/>
	</g>
</g>
<g>
	<g>
		<path d="M296.562,278.944h-30.475c-4.148,0-7.512,3.363-7.512,7.512s3.363,7.512,7.512,7.512h30.475
			c4.148,0,7.512-3.363,7.512-7.512C304.074,282.306,300.711,278.944,296.562,278.944z"/>
	</g>
</g>
<g>
	<g>
		<path d="M226.025,278.944H50.185c-4.148,0-7.512,3.363-7.512,7.512s3.363,7.512,7.512,7.512h175.841
			c4.148,0,7.512-3.363,7.512-7.512C233.537,282.306,230.174,278.944,226.025,278.944z"/>
	</g>
</g>
<g>
	<g>
		<path d="M296.562,315.428h-30.475c-4.148,0-7.512,3.363-7.512,7.512s3.363,7.512,7.512,7.512h30.475
			c4.148,0,7.512-3.363,7.512-7.512S300.711,315.428,296.562,315.428z"/>
	</g>
</g>
<g>
	<g>
		<path d="M226.025,315.428H50.185c-4.148,0-7.512,3.363-7.512,7.512s3.363,7.512,7.512,7.512h175.841
			c4.148,0,7.512-3.363,7.512-7.512C233.537,318.791,230.174,315.428,226.025,315.428z"/>
	</g>
</g>
<g>
</g>
<g>
</g>
<g>
</g>
<g>
</g>
<g>
</g>
<g>
</g>
<g>
</g>
<g>
</g>
<g>
</g>
<g>
</g>
<g>
</g>
<g>
</g>
<g>
</g>
<g>
</g>
<g>
</g>
</svg>
