<?xml version="1.0" encoding="iso-8859-1"?>
<!-- Generator: Adobe Illustrator 19.0.0, SVG Export Plug-In . SVG Version: 6.00 Build 0)  -->
<svg version="1.1" id="Capa_1" xmlns="http://www.w3.org/2000/svg" xmlns:xlink="http://www.w3.org/1999/xlink" x="0px" y="0px"
	 viewBox="0 0 512 512" style="enable-background:new 0 0 512 512;" xml:space="preserve">
<g>
	<g>
		<path d="M498.642,90.375l-14.848-14.849c-5.777-5.777-8.959-13.458-8.959-21.628c0-8.171,3.182-15.852,8.959-21.629l12.776-12.776
			c2.948-2.947,2.948-7.726,0-10.673c-2.947-2.947-7.725-2.948-10.673-0.001l-12.776,12.776c-8.628,8.629-13.38,20.1-13.38,32.303
			c0,12.202,4.752,23.673,13.38,32.301l14.848,14.849c5.777,5.777,8.959,13.458,8.959,21.629c0,8.17-3.181,15.851-8.959,21.628
			c-11.926,11.927-31.332,11.928-43.258,0l-14.848-14.847c-17.811-17.81-46.793-17.81-64.604,0l-17.593,17.593
			c-4.396-2.551-9.402-3.917-14.621-3.917c-7.803,0-15.138,3.038-20.655,8.555l-7.81,7.81
			c-54.449-35.381-128.216-29.223-175.93,18.49l-23.413,23.413c-0.001,0.001-0.002,0.002-0.002,0.003l-64.138,64.138
			c-54.796,54.796-54.796,143.955,0,198.751c27.398,27.397,63.386,41.096,99.375,41.096c35.989,0,71.978-13.699,99.376-41.097
			l6.732-6.732c2.947-2.947,2.947-7.726-0.001-10.673c-2.948-2.946-7.725-2.947-10.673,0.001l-6.731,6.731
			c-48.91,48.912-128.493,48.913-177.405,0c-48.91-48.91-48.91-128.494,0-177.403l58.804-58.805l14.703,14.703
			c2.947,2.946,7.726,2.946,10.673,0c2.948-2.948,2.948-7.726,0-10.674l-14.703-14.702l18.076-18.077
			c44.086-44.085,113.086-48.426,162.088-13.039c1.253,0.906,2.494,1.832,3.715,2.786c0.08,0.063,0.16,0.128,0.24,0.19
			c1.233,0.967,2.448,1.958,3.643,2.97c0.087,0.071,2.12,1.863,2.205,1.935l-11.793,11.793c-11.863-7.087-27.49-5.532-37.695,4.674
			l-40.466,40.466c-10.205,10.206-11.761,25.833-4.675,37.695l-11.972,11.972l-40.068-40.068c-2.947-2.946-7.726-2.946-10.673,0
			c-2.948,2.948-2.948,7.726,0,10.674l134.106,134.106l-23.107,23.107c-2.948,2.948-2.948,7.726,0,10.674
			c2.947,2.946,7.726,2.946,10.673,0l28.441-28.441c0.001-0.001,0.002-0.002,0.003-0.003l23.413-23.413
			c0.856-0.856,1.699-1.721,2.528-2.593c45.394-47.762,50.71-119.865,15.962-173.337l7.809-7.809
			c9.544-9.545,11.086-24.102,4.634-35.272l17.598-17.598c11.927-11.928,31.331-11.928,43.258,0l14.848,14.847
			c17.811,17.81,46.793,17.81,64.604,0C516.453,137.166,516.453,108.186,498.642,90.375z M231.933,251.111l40.466-40.466
			c6.162-6.161,16.187-6.161,22.348,0c2.985,2.984,4.628,6.952,4.628,11.173c0,4.222-1.644,8.19-4.628,11.174l-40.465,40.466
			c-6.162,6.162-16.187,6.161-22.348,0v0.001C225.772,267.296,225.772,257.271,231.933,251.111z M321.251,361.303
			c-0.03,0.033-0.059,0.067-0.089,0.1c-0.619,0.685-1.251,1.363-1.887,2.037c-0.104,0.11-0.204,0.222-0.308,0.331
			c-0.734,0.772-1.48,1.538-2.238,2.295l-18.077,18.077l-83.365-83.365l11.972-11.972c4.861,2.904,10.353,4.359,15.848,4.359
			c7.911,0,15.824-3.012,21.847-9.034l40.465-40.466c5.836-5.836,9.049-13.594,9.049-21.848c0-5.676-1.52-11.117-4.368-15.861
			c0.001,0.001,0.002,0.003,0.003,0.004l11.784-11.784c0.578,0.649,1.164,1.29,1.727,1.953c0.068,0.079,0.133,0.16,0.201,0.24
			c1.015,1.199,2.007,2.417,2.977,3.652c0.064,0.081,0.129,0.162,0.193,0.243c0.952,1.219,1.876,2.457,2.78,3.708
			C363.906,251.245,361.072,317.129,321.251,361.303z M343.029,182.326l-6.144,6.144c-2.955-3.613-6.114-7.113-9.483-10.482
			c-0.831-0.831-1.674-1.653-2.528-2.465c-2.582-2.457-5.236-4.795-7.953-7.017l6.143-6.144c2.666-2.666,6.211-4.134,9.983-4.134
			c3.771,0,7.316,1.468,9.982,4.135C348.533,167.866,348.533,176.822,343.029,182.326z"/>
	</g>
</g>
<g>
</g>
<g>
</g>
<g>
</g>
<g>
</g>
<g>
</g>
<g>
</g>
<g>
</g>
<g>
</g>
<g>
</g>
<g>
</g>
<g>
</g>
<g>
</g>
<g>
</g>
<g>
</g>
<g>
</g>
</svg>
