<?xml version="1.0" encoding="iso-8859-1"?>
<!-- Generator: Adobe Illustrator 19.0.0, SVG Export Plug-In . SVG Version: 6.00 Build 0)  -->
<svg version="1.1" id="Capa_1" xmlns="http://www.w3.org/2000/svg" xmlns:xlink="http://www.w3.org/1999/xlink" x="0px" y="0px"
	 viewBox="0 0 511.999 511.999" style="enable-background:new 0 0 511.999 511.999;" xml:space="preserve">
<g>
	<g>
		<path d="M256,176.744c-12.546,0-24.946,3.195-35.859,9.239c-3.645,2.019-4.963,6.61-2.944,10.255
			c2.019,3.646,6.61,4.963,10.255,2.945c8.682-4.809,18.553-7.35,28.549-7.35c32.543,0,59.018,26.475,59.018,59.018
			c0,32.543-26.476,59.017-59.019,59.017c-32.543,0-59.018-26.475-59.018-59.017c0-8.966,1.957-17.573,5.816-25.582
			c1.808-3.754,0.232-8.263-3.522-10.071c-3.756-1.811-8.263-0.232-10.072,3.521c-4.852,10.069-7.312,20.88-7.312,32.133
			c0.002,40.86,33.246,74.104,74.108,74.104s74.106-33.244,74.106-74.106S296.862,176.744,256,176.744z"/>
	</g>
</g>
<g>
	<g>
		<path d="M428.911,402.02c-2.776-3.103-7.547-3.371-10.652-0.592c-3.106,2.778-3.371,7.547-0.593,10.653
			c16.069,17.963,24.562,39.092,24.562,61.101v8.498c0,0.293-0.008,0.584-0.022,0.868c-0.344,6.804-6.551,10.502-9.203,11.776
			c-6.896,3.313-17.46,4.058-25.508-1.746c-7.432-5.359-15.567-10.12-24.178-14.151c-80.911-37.878-173.722-37.879-254.633,0
			c-8.611,4.031-16.746,8.792-24.178,14.151c-8.049,5.804-18.612,5.059-25.508,1.746c-2.652-1.274-8.86-4.972-9.203-11.769
			c-0.015-0.29-0.023-0.583-0.023-0.875v-8.498c0-21.592,8.203-42.391,23.722-60.151c2.742-3.138,2.42-7.903-0.716-10.645
			c-3.138-2.741-7.904-2.42-10.646,0.717c-17.957,20.549-27.449,44.782-27.449,70.079v8.498c0,0.544,0.014,1.086,0.041,1.631
			c0.522,10.328,7.153,19.529,17.739,24.614c13.33,6.401,29.37,5.182,40.867-3.109c6.67-4.81,13.988-9.091,21.75-12.724
			c76.846-35.975,164.993-35.975,241.839,0c7.761,3.634,15.08,7.915,21.75,12.724c6.594,4.754,14.681,7.183,22.894,7.183
			c6.108,0,12.288-1.344,17.973-4.074c10.586-5.085,17.217-14.287,17.74-24.621c0.027-0.538,0.04-1.081,0.04-1.625v-8.498
			C457.316,447.401,447.494,422.794,428.911,402.02z"/>
	</g>
</g>
<g>
	<g>
		<path d="M411.068,64.231C369.648,22.81,314.577,0,256,0S142.353,22.811,100.932,64.231
			c-41.421,41.42-64.231,96.491-64.231,155.068c0,58.577,22.811,113.648,64.231,155.068c41.42,41.42,96.491,64.231,155.068,64.231
			s113.647-22.811,155.068-64.231c41.421-41.42,64.231-96.491,64.231-155.068C475.299,160.722,452.488,105.652,411.068,64.231z
			 M256,423.509c-112.601,0-204.21-91.608-204.21-204.21S143.399,15.089,256,15.089s204.21,91.608,204.21,204.21
			S368.601,423.509,256,423.509z"/>
	</g>
</g>
<g>
	<g>
		<path d="M256,106.711c-79.478,0-144.138,64.66-144.138,144.139c0,79.478,64.66,144.138,144.138,144.138
			s144.138-64.66,144.138-144.138S335.478,106.711,256,106.711z M256,379.899c-71.158,0-129.049-57.891-129.049-129.049
			S184.842,121.8,256,121.8s129.049,57.892,129.049,129.05S327.158,379.899,256,379.899z"/>
	</g>
</g>
<g>
	<g>
		<path d="M257.229,224.508c-14.525,0-26.342,11.817-26.342,26.342c0,14.525,11.818,26.342,26.342,26.342
			c14.525,0,26.341-11.817,26.341-26.342C283.57,236.325,271.753,224.508,257.229,224.508z M257.229,262.103
			c-6.206,0-11.254-5.048-11.254-11.253c0-6.205,5.048-11.254,11.254-11.254c6.204,0,11.253,5.048,11.253,11.254
			C268.482,257.055,263.434,262.103,257.229,262.103z"/>
	</g>
</g>
<g>
</g>
<g>
</g>
<g>
</g>
<g>
</g>
<g>
</g>
<g>
</g>
<g>
</g>
<g>
</g>
<g>
</g>
<g>
</g>
<g>
</g>
<g>
</g>
<g>
</g>
<g>
</g>
<g>
</g>
</svg>
