<?xml version="1.0" encoding="iso-8859-1"?>
<!-- Generator: Adobe Illustrator 19.0.0, SVG Export Plug-In . SVG Version: 6.00 Build 0)  -->
<svg version="1.1" id="Capa_1" xmlns="http://www.w3.org/2000/svg" xmlns:xlink="http://www.w3.org/1999/xlink" x="0px" y="0px"
	 viewBox="0 0 512 512" style="enable-background:new 0 0 512 512;" xml:space="preserve">
<g>
	<g>
		<path d="M409.667,380.5H102.333c-4.142,0-7.5,3.358-7.5,7.5c0,4.142,3.358,7.5,7.5,7.5h307.333c4.142,0,7.5-3.358,7.5-7.5
			C417.166,383.858,413.809,380.5,409.667,380.5z"/>
	</g>
</g>
<g>
	<g>
		<path d="M409.667,448.833H102.333c-4.142,0-7.5,3.358-7.5,7.5c0,4.142,3.358,7.5,7.5,7.5h307.333c4.142,0,7.5-3.358,7.5-7.5
			C417.166,452.191,413.809,448.833,409.667,448.833z"/>
	</g>
</g>
<g>
	<g>
		<path d="M317.75,312H102.333c-4.142,0-7.5,3.358-7.5,7.5c0,4.142,3.358,7.5,7.5,7.5H317.75c4.142,0,7.5-3.358,7.5-7.5
			C325.25,315.358,321.892,312,317.75,312z"/>
	</g>
</g>
<g>
	<g>
		<path d="M409.667,312H357.75c-4.142,0-7.5,3.358-7.5,7.5c0,4.142,3.358,7.5,7.5,7.5h51.917c4.142,0,7.5-3.358,7.5-7.5
			C417.167,315.358,413.809,312,409.667,312z"/>
	</g>
</g>
<g>
	<g>
		<path d="M502.362,64.004L447.996,9.638C441.78,3.423,433.517,0,424.728,0h-38.394c-4.142,0-7.5,3.358-7.5,7.5V15H135
			c-4.142,0-7.5,3.358-7.5,7.5v148.608H87.288c-10.418,0-18.894-8.476-18.894-18.894V30H95c4.142,0,7.5-3.358,7.5-7.5
			S99.142,15,95,15H68.395V7.5c0-4.142-3.358-7.5-7.5-7.5H32.906C14.762,0,0,14.762,0,32.906v446.188
			C0,497.238,14.762,512,32.906,512h446.188C497.238,512,512,497.238,512,479.094V87.272C512,78.483,508.577,70.22,502.362,64.004z
			 M142.5,30h236.333v122.215c0,0.651-0.033,1.295-0.098,1.929c-0.969,9.515-9.029,16.965-18.796,16.965H142.5V30z M445.5,497h-379
			V300.428c0-9.157,7.45-16.607,16.607-16.607h345.786c9.157,0,16.607,7.45,16.607,16.607V497z M497,479.094
			c0,9.874-8.033,17.906-17.906,17.906H460.5V300.428c0-17.428-14.179-31.607-31.607-31.607H83.107
			C65.679,268.821,51.5,283,51.5,300.428V497H32.906C23.033,497,15,488.967,15,479.094V32.906C15,23.033,23.033,15,32.906,15h20.488
			v7.5v129.715c0,18.689,15.205,33.894,33.894,33.894h272.651c18.689,0,33.894-15.205,33.894-33.894V15h30.894
			c4.783,0,9.279,1.863,12.662,5.245l54.366,54.366C495.137,77.993,497,82.49,497,87.272V479.094z"/>
	</g>
</g>
<g>
	<g>
		<path d="M328.396,39.167h-32.792c-8.88,0-16.104,7.225-16.104,16.104v83.458c0,8.88,7.224,16.104,16.104,16.104h32.792
			c8.88,0,16.104-7.225,16.104-16.104V55.271C344.5,46.391,337.276,39.167,328.396,39.167z M329.5,138.729
			c0,0.609-0.495,1.104-1.104,1.104h-32.792c-0.609,0-1.104-0.496-1.104-1.104V55.271c0-0.609,0.495-1.104,1.104-1.104h32.792
			c0.609,0,1.104,0.496,1.104,1.104V138.729z"/>
	</g>
</g>
<g>
</g>
<g>
</g>
<g>
</g>
<g>
</g>
<g>
</g>
<g>
</g>
<g>
</g>
<g>
</g>
<g>
</g>
<g>
</g>
<g>
</g>
<g>
</g>
<g>
</g>
<g>
</g>
<g>
</g>
</svg>
