<?xml version="1.0" encoding="iso-8859-1"?>
<!-- Generator: Adobe Illustrator 19.0.0, SVG Export Plug-In . SVG Version: 6.00 Build 0)  -->
<svg version="1.1" id="Capa_1" xmlns="http://www.w3.org/2000/svg" xmlns:xlink="http://www.w3.org/1999/xlink" x="0px" y="0px"
	 viewBox="0 0 512 512" style="enable-background:new 0 0 512 512;" xml:space="preserve">
<g>
	<g>
		<path d="M424.03,3.505c-2.933-2.933-7.69-2.933-10.623,0c-2.934,2.933-2.934,7.69,0,10.623c16.38,16.38,25.4,38.158,25.4,61.322
			s-9.021,44.942-25.4,61.321c-2.934,2.933-2.934,7.69,0,10.623c1.467,1.467,3.389,2.2,5.311,2.2s3.845-0.734,5.311-2.2
			c19.217-19.217,29.801-44.767,29.801-71.944S443.247,22.722,424.03,3.505z"/>
	</g>
</g>
<g>
	<g>
		<path d="M290.764,14.128c2.934-2.933,2.934-7.69,0-10.623c-2.933-2.933-7.69-2.933-10.623,0c-39.67,39.67-39.67,104.218,0,143.888
			c1.468,1.468,3.39,2.201,5.312,2.201s3.845-0.734,5.311-2.2c2.934-2.933,2.934-7.69,0-10.623
			C256.952,102.958,256.952,47.941,290.764,14.128z"/>
	</g>
</g>
<g>
	<g>
		<path d="M398.113,29.422c-2.933-2.933-7.69-2.933-10.623,0c-2.934,2.933-2.934,7.69,0,10.623
			c19.523,19.523,19.523,51.288,0,70.811c-2.932,2.932-2.932,7.688,0.001,10.622c1.467,1.467,3.389,2.2,5.311,2.2
			s3.845-0.734,5.311-2.2C423.493,96.098,423.493,54.802,398.113,29.422z"/>
	</g>
</g>
<g>
	<g>
		<path d="M302.014,75.45c0-13.374,5.208-25.948,14.666-35.405c2.934-2.933,2.934-7.69,0-10.623c-2.933-2.934-7.689-2.934-10.623,0
			c-12.295,12.294-19.066,28.641-19.066,46.028c0,17.387,6.772,33.733,19.067,46.028c1.467,1.467,3.389,2.2,5.311,2.2
			s3.845-0.734,5.311-2.2c2.934-2.933,2.934-7.69,0-10.623C307.223,101.398,302.014,88.824,302.014,75.45z"/>
	</g>
</g>
<g>
	<g>
		<path d="M373.757,69.429c-0.305-11.843-9.824-21.12-21.671-21.12c-11.847,0-21.366,9.277-21.671,21.12l-5.267,204.632
			c-0.107,4.147,3.168,7.596,7.316,7.702c0.066,0.001,0.131,0.002,0.197,0.002c4.058,0,7.4-3.237,7.505-7.318l5.267-204.632
			c0.093-3.635,3.016-6.484,6.653-6.484s6.559,2.848,6.653,6.484l5.267,204.632c0.105,4.081,3.447,7.318,7.505,7.318
			c0.066,0,0.132-0.001,0.197-0.002c4.147-0.107,7.423-3.555,7.316-7.702L373.757,69.429z"/>
	</g>
</g>
<g>
	<g>
		<path d="M510.039,373.9l-14.662-48.581c-3.312-10.974-13.239-18.348-24.702-18.348H41.326c-11.463,0-21.39,7.374-24.702,18.348
			L1.961,373.9C0.701,377.075,0,380.532,0,384.151v98.664c0,15.373,12.506,27.879,27.879,27.879h456.242
			c15.373,0,27.879-12.506,27.879-27.879v-98.664C512,380.532,511.299,377.075,510.039,373.9z M496.977,482.815
			c0,7.089-5.767,12.856-12.856,12.856H27.879c-7.089,0-12.856-5.767-12.856-12.856v-98.664c0-1.77,0.36-3.457,1.009-4.992
			c0.006-0.014,0.013-0.026,0.018-0.04c0.148-0.348,0.314-0.686,0.491-1.018c0.031-0.059,0.065-0.116,0.097-0.175
			c0.175-0.315,0.36-0.623,0.56-0.92c0.013-0.019,0.025-0.039,0.038-0.058c1.373-2.023,3.308-3.633,5.578-4.61
			c0.04-0.017,0.079-0.034,0.119-0.051c0.724-0.303,1.483-0.54,2.267-0.707c0.09-0.019,0.182-0.034,0.273-0.051
			c0.295-0.056,0.594-0.101,0.895-0.137c0.11-0.013,0.219-0.027,0.33-0.037c0.389-0.036,0.782-0.06,1.181-0.06h22.932
			c4.148,0,7.512-3.363,7.512-7.512c0-4.148-3.363-7.512-7.512-7.512H27.879c-0.457,0-0.911,0.013-1.364,0.035
			c-0.139,0.007-0.277,0.019-0.416,0.028c-0.314,0.02-0.628,0.042-0.94,0.072c-0.154,0.015-0.306,0.035-0.459,0.052
			c-0.3,0.034-0.6,0.071-0.898,0.114c-0.142,0.021-0.283,0.044-0.424,0.068c-0.18,0.029-0.362,0.053-0.541,0.086l8.169-27.067
			c1.383-4.585,5.531-7.666,10.32-7.666h429.348c4.789,0,8.937,3.08,10.32,7.666l8.169,27.067c-0.179-0.033-0.361-0.057-0.541-0.086
			c-0.141-0.023-0.282-0.047-0.424-0.068c-0.298-0.044-0.597-0.08-0.898-0.114c-0.153-0.017-0.305-0.037-0.459-0.052
			c-0.312-0.03-0.626-0.052-0.94-0.072c-0.139-0.009-0.277-0.021-0.416-0.028c-0.453-0.022-0.907-0.035-1.364-0.035H90.872
			c-4.148,0-7.512,3.363-7.512,7.512c0,4.148,3.363,7.512,7.512,7.512h393.249c0.398,0,0.791,0.024,1.181,0.06
			c0.11,0.01,0.22,0.024,0.33,0.037c0.302,0.036,0.6,0.081,0.895,0.137c0.091,0.017,0.182,0.032,0.273,0.051
			c0.784,0.167,1.543,0.404,2.267,0.707c0.04,0.017,0.079,0.034,0.119,0.051c2.27,0.977,4.205,2.587,5.578,4.61
			c0.013,0.019,0.025,0.039,0.038,0.058c0.2,0.298,0.385,0.606,0.56,0.92c0.032,0.058,0.066,0.116,0.097,0.175
			c0.177,0.331,0.343,0.67,0.491,1.018c0.006,0.014,0.013,0.026,0.018,0.04c0.65,1.536,1.009,3.223,1.009,4.992V482.815z"/>
	</g>
</g>
<g>
	<g>
		<path d="M441.073,396.412c-19.06,0-34.568,15.507-34.568,34.568c0,19.06,15.507,34.568,34.568,34.568
			c19.061,0,34.568-15.507,34.568-34.568S460.133,396.412,441.073,396.412z M441.073,450.524c-10.777,0-19.545-8.768-19.545-19.545
			c0-10.777,8.768-19.545,19.545-19.545c10.777,0,19.545,8.768,19.545,19.545C460.618,441.756,451.85,450.524,441.073,450.524z"/>
	</g>
</g>
<g>
	<g>
		<path d="M362.967,396.412c-19.061,0-34.568,15.507-34.568,34.568c0,19.06,15.507,34.568,34.568,34.568
			c19.06,0,34.568-15.507,34.568-34.568C397.534,411.919,382.027,396.412,362.967,396.412z M362.967,450.524
			c-10.777,0-19.545-8.768-19.545-19.545c0-10.777,8.768-19.545,19.545-19.545c10.777,0,19.545,8.768,19.545,19.545
			C382.512,441.756,373.743,450.524,362.967,450.524z"/>
	</g>
</g>
<g>
	<g>
		<path d="M284.86,396.412c-19.061,0-34.568,15.507-34.568,34.568c0,19.06,15.507,34.568,34.568,34.568
			c19.06,0,34.568-15.507,34.568-34.568C319.428,411.919,303.921,396.412,284.86,396.412z M284.86,450.524
			c-10.777,0-19.545-8.768-19.545-19.545c0-10.777,8.768-19.545,19.545-19.545c10.777,0,19.545,8.768,19.545,19.545
			C304.405,441.756,295.637,450.524,284.86,450.524z"/>
	</g>
</g>
<g>
	<g>
		<path d="M187.214,397.599H51.882c-9.856,0-17.875,8.019-17.875,17.875v32.199c0,9.856,8.019,17.875,17.875,17.875h135.332
			c9.856,0,17.875-8.019,17.875-17.875v-32.199C205.089,405.618,197.07,397.599,187.214,397.599z M190.066,447.673L190.066,447.673
			c0,1.572-1.279,2.852-2.852,2.852H51.882c-1.572,0-2.852-1.279-2.852-2.852v-32.199c0-1.572,1.279-2.852,2.852-2.852h135.332
			c1.572,0,2.852,1.279,2.852,2.852V447.673z"/>
	</g>
</g>
<g>
</g>
<g>
</g>
<g>
</g>
<g>
</g>
<g>
</g>
<g>
</g>
<g>
</g>
<g>
</g>
<g>
</g>
<g>
</g>
<g>
</g>
<g>
</g>
<g>
</g>
<g>
</g>
<g>
</g>
</svg>
