<?xml version="1.0" encoding="iso-8859-1"?>
<!-- Generator: Adobe Illustrator 19.0.0, SVG Export Plug-In . SVG Version: 6.00 Build 0)  -->
<svg version="1.1" id="Capa_1" xmlns="http://www.w3.org/2000/svg" xmlns:xlink="http://www.w3.org/1999/xlink" x="0px" y="0px"
	 viewBox="0 0 512 512" style="enable-background:new 0 0 512 512;" xml:space="preserve">
<g>
	<g>
		<path d="M483.61,21.192H28.39C12.735,21.192,0,33.927,0,49.581v313.993c0,15.654,12.735,28.389,28.39,28.389h177.734
			l-11.728,49.708h-59.759c-9.507,0-17.242,7.734-17.242,17.242v14.653c0,9.507,7.734,17.242,17.242,17.242h242.726
			c9.507,0,17.242-7.735,17.242-17.242v-14.653c0-9.507-7.734-17.242-17.242-17.242h-59.759l-11.728-49.708H483.61
			c15.654,0,28.39-12.735,28.39-28.389V49.581C512,33.927,499.265,21.192,483.61,21.192z M377.363,456.683c1.229,0,2.23,1,2.23,2.23
			v14.653c0,1.23-1.001,2.231-2.23,2.231H134.637c-1.229,0-2.23-1.001-2.23-2.231v-14.653c0-1.23,1.001-2.23,2.23-2.23H377.363z
			 M209.82,441.672l11.728-49.708h68.906l11.728,49.708H209.82z M483.611,376.953H28.39c-7.377,0-13.378-6.001-13.378-13.378V49.581
			c0-7.377,6.002-13.378,13.378-13.378h455.22c7.377,0,13.378,6.002,13.378,13.378v313.994h0.001
			C496.989,370.952,490.987,376.953,483.611,376.953z"/>
	</g>
</g>
<g>
	<g>
		<path d="M471.469,219.087c-4.146,0-7.506,3.36-7.506,7.506v91.177H48.036v-91.177c0-4.145-3.36-7.506-7.506-7.506
			c-4.146,0-7.506,3.36-7.506,7.506v91.652c0,8.015,6.521,14.536,14.536,14.536h416.877c8.016,0,14.536-6.521,14.536-14.536v-91.652
			C478.975,222.448,475.615,219.087,471.469,219.087z"/>
	</g>
</g>
<g>
	<g>
		<path d="M464.439,54.217H47.561c-8.016,0-14.536,6.521-14.536,14.537v117.809c0,4.145,3.36,7.506,7.506,7.506
			s7.506-3.36,7.506-7.506V69.228h415.927v117.335c0,4.145,3.36,7.506,7.506,7.506c4.146,0,7.506-3.36,7.506-7.506V68.754
			C478.975,60.738,472.454,54.217,464.439,54.217z"/>
	</g>
</g>
<g>
</g>
<g>
</g>
<g>
</g>
<g>
</g>
<g>
</g>
<g>
</g>
<g>
</g>
<g>
</g>
<g>
</g>
<g>
</g>
<g>
</g>
<g>
</g>
<g>
</g>
<g>
</g>
<g>
</g>
</svg>
