<?xml version="1.0" encoding="iso-8859-1"?>
<!-- Generator: Adobe Illustrator 19.0.0, SVG Export Plug-In . SVG Version: 6.00 Build 0)  -->
<svg version="1.1" id="Capa_1" xmlns="http://www.w3.org/2000/svg" xmlns:xlink="http://www.w3.org/1999/xlink" x="0px" y="0px"
	 viewBox="0 0 512 512" style="enable-background:new 0 0 512 512;" xml:space="preserve">
<g>
	<g>
		<path d="M383.533,235.002H128.467c-4.142,0-7.499,3.358-7.499,7.499c0,4.142,3.357,7.499,7.499,7.499h255.066
			c4.142,0,7.499-3.358,7.499-7.499C391.032,238.359,387.675,235.002,383.533,235.002z"/>
	</g>
</g>
<g>
	<g>
		<path d="M287.712,282.252H128.467c-4.142,0-7.499,3.358-7.499,7.499s3.357,7.499,7.499,7.499h159.246
			c4.142,0,7.499-3.358,7.499-7.499S291.854,282.252,287.712,282.252z"/>
	</g>
</g>
<g>
	<g>
		<path d="M383.533,282.252h-55.824c-4.142,0-7.499,3.358-7.499,7.499s3.357,7.499,7.499,7.499h55.824
			c4.142,0,7.499-3.358,7.499-7.499S387.675,282.252,383.533,282.252z"/>
	</g>
</g>
<g>
	<g>
		<path d="M416.568,179.528h-25.747C386.916,108.546,327.941,51.995,256,51.995c-71.94,0-130.915,56.551-134.82,127.533H95.432
			c-16.661,0-30.215,13.554-30.215,30.215v272.042c0,16.661,13.555,30.215,30.215,30.215h321.136
			c16.661,0,30.215-13.554,30.215-30.215V209.743C446.783,193.082,433.229,179.528,416.568,179.528z M256,66.994
			c63.671,0,115.921,49.825,119.803,112.534h-74.2C298.01,157.6,278.929,140.817,256,140.817c-22.929,0-42.01,16.783-45.603,38.712
			h-74.199C140.08,116.819,192.33,66.994,256,66.994z M286.295,179.528h-60.591c3.368-13.599,15.67-23.713,30.295-23.713
			C270.625,155.815,282.928,165.929,286.295,179.528z M431.785,481.785c0,8.39-6.826,15.216-15.217,15.216H95.432
			c-8.391,0-15.217-6.826-15.217-15.216V209.743c0-8.39,6.826-15.216,15.217-15.216h321.136c8.391,0,15.217,6.826,15.217,15.216
			V481.785z"/>
	</g>
</g>
<g>
	<g>
		<path d="M430.607,0H81.393c-8.919,0-16.176,7.256-16.176,16.176v9.597c0,8.919,7.257,16.175,16.176,16.175h10.952v105.083
			c0,4.142,3.357,7.499,7.499,7.499c4.142,0,7.499-3.358,7.499-7.499V41.948h297.312v105.083c0,4.142,3.357,7.499,7.499,7.499
			c4.142,0,7.499-3.358,7.499-7.499V41.948h10.952c8.919,0,16.176-7.256,16.176-16.175v-9.597C446.783,7.256,439.526,0,430.607,0z
			 M431.785,25.773h-0.001c0,0.649-0.528,1.177-1.178,1.177H81.393c-0.649,0-1.178-0.528-1.178-1.177v-9.597
			c0-0.649,0.528-1.177,1.178-1.177h349.214c0.649,0,1.178,0.528,1.178,1.177V25.773z"/>
	</g>
</g>
<g>
</g>
<g>
</g>
<g>
</g>
<g>
</g>
<g>
</g>
<g>
</g>
<g>
</g>
<g>
</g>
<g>
</g>
<g>
</g>
<g>
</g>
<g>
</g>
<g>
</g>
<g>
</g>
<g>
</g>
</svg>
