<?xml version="1.0" encoding="iso-8859-1"?>
<!-- Generator: Adobe Illustrator 19.0.0, SVG Export Plug-In . SVG Version: 6.00 Build 0)  -->
<svg version="1.1" id="Capa_1" xmlns="http://www.w3.org/2000/svg" xmlns:xlink="http://www.w3.org/1999/xlink" x="0px" y="0px"
	 viewBox="0 0 511.999 511.999" style="enable-background:new 0 0 511.999 511.999;" xml:space="preserve">
<g>
	<g>
		<path d="M350.162,230.703l-43.681-43.681l11.13-11.13c1.982-1.982,0.991-5.261-1.372-7.624c-2.136-2.135-5.413-3.429-7.548-1.295
			l-32.246,32.246c-2.135,2.135-0.84,5.413,1.295,7.547c2.439,2.439,5.642,3.354,7.624,1.372l11.206-11.205l43.681,43.681
			c2.059,2.058,5.565,0.686,8.081-1.83C350.773,236.344,352.221,232.761,350.162,230.703z"/>
	</g>
</g>
<g>
	<g>
		<path d="M397.888,183.437l-33.315-62.587c-0.228-0.381-0.381-0.686-0.611-0.914c-2.363-2.364-7.698-0.534-10.366,2.135
			c-1.678,1.677-2.44,3.507-1.373,5.336l29.731,52.906l-52.982-29.655c-1.83-1.067-3.658-0.304-5.336,1.373
			c-2.669,2.669-4.574,7.928-2.135,10.367c0.152,0.152,0.534,0.381,0.915,0.61l62.665,33.236c3.049,1.524,6.86-0.153,9.758-3.05
			C397.734,190.297,399.488,186.409,397.888,183.437z"/>
	</g>
</g>
<g>
	<g>
		<path d="M502.327,156.577l-51.418-51.418c-2.94-2.939-7.707-2.939-10.648,0.002c-2.941,2.941-2.941,7.709,0,10.649l51.418,51.418
			c7.024,7.024,7.024,18.454,0,25.478L246.071,438.314L84.087,276.329l16.414-16.414c2.941-2.941,2.941-7.709,0-10.649
			c-2.941-2.941-7.708-2.941-10.649,0L73.438,265.68l-10.167-10.166c-7.224-7.224-18.978-7.224-26.202,0L4.225,288.356
			c-5.634,5.634-5.634,14.801,0,20.435l9.654,9.654c5.634,5.634,14.801,5.634,20.435,0L50.17,302.59l15.746,15.746l-8.688,8.688
			c-0.001,0.001-0.001,0.001-0.001,0.001c-3.101,3.101-4.81,7.225-4.809,11.61c-0.001,4.387,1.708,8.51,4.809,11.612l10.754,10.754
			c3.102,3.102,7.225,4.81,11.612,4.809c4.386,0,8.51-1.708,11.611-4.81l8.689-8.688l10.195,10.195l-8.689,8.689
			c-6.403,6.403-6.403,16.821,0,23.223l10.754,10.754c6.402,6.402,16.82,6.402,23.223,0l8.689-8.689l10.195,10.195l-8.689,8.689
			c-6.403,6.403-6.403,16.821,0,23.223l10.754,10.754c6.402,6.402,16.82,6.402,23.223,0l8.689-8.689l56.717,56.717
			c5.634,5.634,14.801,5.634,20.435,0l9.654-9.654c5.634-5.634,5.634-14.801,0-20.435l-18.323-18.323l10.995-10.995l11.002,11.002
			c6.402,6.402,16.82,6.402,23.222,0l50.981-50.98c6.402-6.402,6.402-16.82,0-23.222l-11.002-11.002l18.584-18.584l11.002,11.002
			c6.402,6.402,16.82,6.402,23.222,0l102.795-102.795c6.403-6.403,6.403-16.821,0-23.223l-11.002-11.002l15.808-15.808
			C515.223,190.458,515.223,169.474,502.327,156.577z M80.553,350.352c-0.329,0.329-0.704,0.398-0.962,0.398
			c-0.257,0-0.632-0.069-0.962-0.399l-10.754-10.754c-0.329-0.329-0.399-0.705-0.399-0.962c0-0.258,0.069-0.633,0.399-0.963
			l8.688-8.689l12.68,12.68L80.553,350.352z M124.727,394.525c-0.53,0.53-1.394,0.531-1.924,0l-10.754-10.754
			c-0.531-0.531-0.53-1.394,0-1.925l8.689-8.689l12.678,12.679L124.727,394.525z M168.899,438.697c-0.53,0.53-1.394,0.531-1.924,0
			l-10.754-10.754c-0.53-0.53-0.53-1.394,0-1.924l8.689-8.689l12.678,12.678L168.899,438.697z M263.963,477.504l-8.79,8.79
			l-61.61-61.61l-23.328-23.328l-20.845-20.845l-23.328-23.328l-20.844-20.844L81.89,313.011l-26.395-26.395
			c-2.941-2.941-7.708-2.941-10.649,0l-20.748,20.748l-8.79-8.79l32.411-32.411c1.352-1.352,3.551-1.352,4.903,0L263.963,477.504z
			 M291.289,438.321c-0.53,0.53-1.393,0.53-1.924,0l-11.002-11.002l10.266-10.266l11.965,11.963L291.289,438.321z M311.244,418.367
			l-11.964-11.964l11.073-11.073l11.964,11.964L311.244,418.367z M342.271,385.417c0.53,0.53,0.531,1.393,0,1.924l-9.304,9.304
			l-11.964-11.964l10.266-10.266L342.271,385.417z M384.077,345.534c-0.53,0.53-1.393,0.53-1.924,0l-11.002-11.002l10.909-10.909
			l11.964,11.964L384.077,345.534z M404.674,324.937l-11.964-11.964l13.434-13.434l11.964,11.964L404.674,324.937z M428.758,300.854
			l-11.964-11.964l13.434-13.434l11.964,11.964L428.758,300.854z M452.841,276.77l-11.964-11.964l13.434-13.434l11.965,11.964
			L452.841,276.77z M486.872,240.815c0.53,0.53,0.53,1.394,0,1.924l-9.947,9.947l-11.964-11.964l10.909-10.909L486.872,240.815z"/>
	</g>
</g>
<g>
	<g>
		<path d="M422.511,76.763l-56.69-56.69c-12.896-12.897-33.88-12.897-46.777-0.001L118.196,220.921
			c-2.941,2.941-2.941,7.709,0,10.649c2.941,2.941,7.708,2.941,10.649,0L329.695,30.722c7.024-7.024,18.454-7.024,25.478,0
			l56.69,56.69c2.941,2.941,7.708,2.941,10.649,0C425.452,84.471,425.453,79.703,422.511,76.763z"/>
	</g>
</g>
<g>
	<g>
		<path d="M176.876,284.753c-9.703-9.703-25.491-9.703-35.194,0s-9.703,25.491,0,35.194s25.491,9.703,35.194,0
			S186.579,294.456,176.876,284.753z M166.227,309.298c-3.831,3.831-10.065,3.831-13.896,0s-3.831-10.064,0-13.896
			c3.831-3.831,10.065-3.831,13.896,0S170.058,305.466,166.227,309.298z"/>
	</g>
</g>
<g>
	<g>
		<path d="M232.594,229.035c-9.703-9.703-25.491-9.703-35.194,0s-9.703,25.491,0,35.194s25.491,9.703,35.194,0
			S242.297,238.738,232.594,229.035z M221.945,253.58c-3.831,3.832-10.065,3.831-13.896,0c-3.831-3.831-3.831-10.064,0-13.896
			c3.831-3.831,10.065-3.831,13.896,0S225.776,249.748,221.945,253.58z"/>
	</g>
</g>
<g>
	<g>
		<path d="M237.648,345.525c-9.703-9.703-25.491-9.703-35.194,0s-9.703,25.491,0,35.194s25.491,9.703,35.194,0
			S247.351,355.228,237.648,345.525z M226.998,370.07c-3.831,3.831-10.065,3.831-13.896,0s-3.831-10.064,0-13.896
			c3.831-3.831,10.065-3.831,13.896,0S230.829,366.239,226.998,370.07z"/>
	</g>
</g>
<g>
	<g>
		<path d="M293.365,289.808c-9.703-9.703-25.491-9.703-35.194,0c-9.703,9.703-9.703,25.491,0,35.194
			c9.703,9.703,25.491,9.703,35.194,0C303.068,315.299,303.068,299.511,293.365,289.808z M282.716,314.353
			c-3.831,3.831-10.065,3.831-13.896,0c-3.831-3.832-3.831-10.065,0-13.896s10.065-3.831,13.896,0S286.547,310.521,282.716,314.353z
			"/>
	</g>
</g>
<g>
	<g>
		<path d="M411.367,110.211c-38.989-38.989-102.427-38.989-141.415,0s-38.988,102.427,0,141.415
			c38.988,38.989,102.427,38.989,141.415,0C450.356,212.638,450.356,149.199,411.367,110.211z M400.719,240.976
			c-33.116,33.116-87,33.116-120.116,0c-33.117-33.115-33.117-86.999-0.001-120.116c33.116-33.116,87-33.116,120.117,0
			C433.835,153.976,433.835,207.86,400.719,240.976z"/>
	</g>
</g>
<g>
</g>
<g>
</g>
<g>
</g>
<g>
</g>
<g>
</g>
<g>
</g>
<g>
</g>
<g>
</g>
<g>
</g>
<g>
</g>
<g>
</g>
<g>
</g>
<g>
</g>
<g>
</g>
<g>
</g>
</svg>
