<?xml version="1.0" encoding="iso-8859-1"?>
<!-- Generator: Adobe Illustrator 19.0.0, SVG Export Plug-In . SVG Version: 6.00 Build 0)  -->
<svg version="1.1" id="Capa_1" xmlns="http://www.w3.org/2000/svg" xmlns:xlink="http://www.w3.org/1999/xlink" x="0px" y="0px"
	 viewBox="0 0 511.999 511.999" style="enable-background:new 0 0 511.999 511.999;" xml:space="preserve">
<g>
	<g>
		<path d="M227.829,51.402h-37.821c-6.665,0-12.087,5.422-12.087,12.087v27.936c0,6.665,5.422,12.087,12.087,12.087h37.821
			c6.664,0,12.087-5.422,12.087-12.087V63.489C239.916,56.824,234.494,51.402,227.829,51.402z M224.918,88.514h-31.997V66.401
			h31.997V88.514z"/>
	</g>
</g>
<g>
	<g>
		<path d="M321.99,51.402h-37.821c-6.664,0-12.087,5.422-12.087,12.087v27.936c0,6.665,5.422,12.087,12.087,12.087h37.821
			c6.664,0,12.087-5.422,12.087-12.087V63.489C334.077,56.824,328.654,51.402,321.99,51.402z M319.078,88.514h-31.997V66.401h31.997
			V88.514z"/>
	</g>
</g>
<g>
	<g>
		<path d="M339.035,424.906H172.963c-14.22,0-25.788,11.569-25.788,25.788s11.568,25.788,25.788,25.788h166.072
			c14.22,0,25.788-11.569,25.788-25.788S353.255,424.906,339.035,424.906z M339.035,461.484H172.963
			c-5.949,0-10.789-4.841-10.789-10.79c0-5.949,4.84-10.79,10.789-10.79h166.072c5.949,0,10.789,4.84,10.789,10.79
			S344.984,461.484,339.035,461.484z"/>
	</g>
</g>
<g>
	<g>
		<path d="M418.558,263.622c-4.142,0-7.499,3.358-7.499,7.499v212.877c0,7.169-5.833,13.002-13.002,13.002H113.941
			c-7.169,0-13.002-5.833-13.002-13.002v-57.002c0-4.142-3.357-7.499-7.499-7.499c-4.142,0-7.499,3.358-7.499,7.499v57.002
			c0,15.44,12.561,28.001,28.001,28.001h284.116c15.439,0,28.001-12.561,28.001-28.001V271.122
			C426.057,266.98,422.7,263.622,418.558,263.622z"/>
	</g>
</g>
<g>
	<g>
		<path d="M398.057,157.928h-24.916V28.001C373.141,12.561,360.579,0,345.14,0H166.858c-15.439,0-28.001,12.561-28.001,28.001
			v129.927h-24.916c-15.439,0-28.001,12.561-28.001,28.002V387c0,4.142,3.357,7.499,7.499,7.499c4.142,0,7.499-3.358,7.499-7.499
			V185.93c0-7.17,5.833-13.003,13.002-13.003h284.116c7.169,0,13.002,5.833,13.002,13.003v45.195c0,4.142,3.357,7.499,7.499,7.499
			c4.142,0,7.499-3.358,7.499-7.499V185.93C426.057,170.49,413.496,157.928,398.057,157.928z M358.142,157.928H153.856V28.001
			c0-7.169,5.833-13.002,13.002-13.002H345.14c7.169,0,13.002,5.833,13.002,13.002V157.928z"/>
	</g>
</g>
<g>
</g>
<g>
</g>
<g>
</g>
<g>
</g>
<g>
</g>
<g>
</g>
<g>
</g>
<g>
</g>
<g>
</g>
<g>
</g>
<g>
</g>
<g>
</g>
<g>
</g>
<g>
</g>
<g>
</g>
</svg>
