<?xml version="1.0" encoding="iso-8859-1"?>
<!-- Generator: Adobe Illustrator 19.0.0, SVG Export Plug-In . SVG Version: 6.00 Build 0)  -->
<svg version="1.1" id="Capa_1" xmlns="http://www.w3.org/2000/svg" xmlns:xlink="http://www.w3.org/1999/xlink" x="0px" y="0px"
	 viewBox="0 0 512 512" style="enable-background:new 0 0 512 512;" xml:space="preserve">
<g>
	<g>
		<path d="M321.2,391.757L120.243,190.801c-2.977-2.977-7.804-2.977-10.781,0c-2.978,2.977-2.978,7.804,0,10.781l200.956,200.956
			c1.489,1.488,3.441,2.233,5.391,2.233c1.95,0,3.902-0.745,5.391-2.233C324.177,399.561,324.177,394.734,321.2,391.757z"/>
	</g>
</g>
<g>
	<g>
		<path d="M354.681,358.276L153.724,157.32c-2.977-2.977-7.804-2.977-10.781,0s-2.977,7.804,0,10.781l200.956,200.956
			c1.489,1.489,3.441,2.233,5.391,2.233c1.95,0,3.902-0.744,5.391-2.233C357.658,366.08,357.658,361.253,354.681,358.276z"/>
	</g>
</g>
<g>
	<g>
		<path d="M329.466,267.363L186.574,124.47c-2.977-2.977-7.804-2.977-10.781,0c-2.978,2.977-2.978,7.804,0,10.781l142.892,142.893
			c1.488,1.488,3.44,2.233,5.39,2.233c1.951,0,3.902-0.744,5.391-2.233C332.443,275.167,332.443,270.34,329.466,267.363z"/>
	</g>
</g>
<g>
	<g>
		<path d="M387.53,325.426l-29.312-29.313c-2.977-2.977-7.803-2.978-10.782,0c-2.977,2.977-2.977,7.804,0,10.781l29.312,29.313
			c1.489,1.489,3.44,2.233,5.391,2.233c1.951,0,3.902-0.745,5.391-2.233C390.507,333.23,390.507,328.403,387.53,325.426z"/>
	</g>
</g>
<g>
	<g>
		<path d="M507.074,300.281l-49.266-49.266l29.703-29.702c3.069-3.069,4.76-7.15,4.76-11.491s-1.691-8.422-4.76-11.491
			L313.669,24.49c-3.069-3.069-7.151-4.76-11.491-4.76c-4.342,0-8.423,1.691-11.491,4.76l-29.702,29.702L211.72,4.926
			c-6.568-6.568-17.256-6.569-23.824,0l-18.369,18.369c-3.182,3.182-4.935,7.412-4.935,11.912s1.753,8.73,4.935,11.912l8.098,8.098
			L97.321,135.52c-2.977,2.977-2.977,7.804,0,10.781c2.977,2.978,7.804,2.977,10.781,0l80.303-80.303L446,323.594L314.314,455.281
			c-1.874,1.874-4.366,2.907-7.017,2.907c-2.65,0-5.143-1.032-7.017-2.907L56.719,211.72c-1.875-1.874-2.907-4.366-2.907-7.017
			s1.032-5.143,2.907-7.018l22.633-22.633c2.977-2.977,2.977-7.804,0-10.781s-7.804-2.977-10.781,0l-22.633,22.632
			c-4.754,4.754-7.373,11.076-7.373,17.799c0,6.723,2.619,13.045,7.373,17.799l2.715,2.715l-17.98,17.98
			c-3.161,3.161-4.901,7.363-4.901,11.832c0,4.469,1.741,8.671,4.901,11.832l13.509,13.509c3.161,3.161,7.363,4.902,11.832,4.902
			c4.469,0,8.671-1.741,11.832-4.901l17.98-17.98l5.813,5.813l-23.297,51.169c-3.595,7.895-1.889,17.32,4.246,23.454l18.562,18.562
			l-9.73,9.73c-8.347,8.347-8.347,21.929,0,30.277l9.202,9.202L2.233,498.986c-2.977,2.977-2.977,7.804,0,10.781
			c2.977,2.977,7.804,2.977,10.782,0l88.389-88.389l9.202,9.202c4.174,4.174,9.656,6.261,15.139,6.261
			c5.482,0,10.965-2.087,15.139-6.261l9.729-9.729l18.562,18.563c3.992,3.992,9.38,6.109,14.831,6.109
			c2.924,0,5.867-0.609,8.623-1.864l51.169-23.297l5.813,5.813l-17.98,17.98c-3.161,3.161-4.902,7.363-4.902,11.832
			s1.74,8.671,4.901,11.832l13.51,13.51c3.161,3.16,7.363,4.9,11.832,4.9c4.47,0,8.671-1.741,11.832-4.901l17.98-17.98l2.716,2.716
			c4.754,4.754,11.075,7.372,17.798,7.372c6.724,0,13.046-2.618,17.799-7.373l131.686-131.686l8.098,8.098
			c3.285,3.284,7.597,4.926,11.912,4.926c4.313,0,8.628-1.642,11.913-4.926l18.369-18.37
			C513.642,317.536,513.642,306.849,507.074,300.281z M57.064,269.589c-0.36,0.36-0.77,0.435-1.051,0.435
			c-0.28,0-0.69-0.075-1.05-0.435l-13.51-13.51c-0.359-0.359-0.435-0.769-0.435-1.05s0.075-0.691,0.435-1.051l17.98-17.98
			l15.61,15.61L57.064,269.589z M130.101,419.799c-2.402,2.402-6.312,2.402-8.715,0l-29.185-29.185
			c-2.402-2.403-2.402-6.311,0-8.714l9.73-9.73l37.899,37.9L130.101,419.799z M186.308,429.781c-2.137,0.975-4.692,0.512-6.354-1.15
			l-96.586-96.586c-1.662-1.662-2.124-4.216-1.15-6.355l20.932-45.975l129.133,129.134L186.308,429.781z M258.02,470.546
			c-0.359,0.359-0.769,0.434-1.049,0.434c-0.281,0-0.691-0.075-1.05-0.435l-13.509-13.509c-0.36-0.36-0.436-0.77-0.436-1.051
			c0-0.28,0.075-0.69,0.436-1.05l17.979-17.98l15.611,15.61L258.02,470.546z M301.47,35.271c0.388-0.389,1.027-0.391,1.418,0
			L476.73,209.113c0.195,0.195,0.294,0.433,0.294,0.709c0,0.275-0.099,0.514-0.295,0.709l-29.702,29.702l-175.26-175.26
			L301.47,35.271z M496.292,313.323l-18.368,18.369c-0.622,0.623-1.639,0.624-2.261,0.001L180.307,36.338
			c-0.387-0.387-0.468-0.828-0.468-1.13s0.081-0.744,0.469-1.131l18.369-18.369c0.312-0.312,0.721-0.468,1.131-0.468
			c0.409,0,0.818,0.156,1.13,0.468l295.355,295.355C496.915,311.686,496.915,312.7,496.292,313.323z"/>
	</g>
</g>
<g>
	<g>
		<path d="M321.993,65.646c-2.977-2.977-7.804-2.978-10.781,0l-9.929,9.928c-2.978,2.977-2.978,7.804-0.001,10.781
			c1.489,1.489,3.44,2.233,5.391,2.233s3.902-0.744,5.39-2.233l9.929-9.928C324.97,73.45,324.97,68.623,321.993,65.646z"/>
	</g>
</g>
<g>
	<g>
		<path d="M384.173,127.827c-2.977-2.977-7.804-2.978-10.781,0l-9.929,9.928c-2.978,2.977-2.978,7.804-0.001,10.781
			c1.489,1.489,3.44,2.233,5.391,2.233s3.902-0.744,5.39-2.233l9.929-9.928C387.15,135.631,387.15,130.804,384.173,127.827z"/>
	</g>
</g>
<g>
	<g>
		<path d="M446.353,190.008c-2.976-2.978-7.803-2.977-10.781,0l-9.928,9.928c-2.977,2.978-2.977,7.804,0.001,10.781
			c1.488,1.489,3.44,2.233,5.39,2.233s3.902-0.745,5.391-2.233l9.928-9.928C449.331,197.812,449.331,192.985,446.353,190.008z"/>
	</g>
</g>
<g>
</g>
<g>
</g>
<g>
</g>
<g>
</g>
<g>
</g>
<g>
</g>
<g>
</g>
<g>
</g>
<g>
</g>
<g>
</g>
<g>
</g>
<g>
</g>
<g>
</g>
<g>
</g>
<g>
</g>
</svg>
