<svg width="40" height="40" viewBox="0 0 40 40" fill="none" xmlns="http://www.w3.org/2000/svg">
<g clip-path="url(#clip0)">
<path d="M18.9393 28.8985L18.5716 28.5307L18.7945 28.3078C19.0274 28.0749 19.0274 27.6974 18.7945 27.4646C18.5616 27.2317 18.184 27.2317 17.9512 27.4646L17.7283 27.6874L16.7249 26.684L16.9478 26.4611C17.1807 26.2282 17.1807 25.8506 16.9478 25.6178C16.7149 25.3849 16.3373 25.3849 16.1045 25.6178L15.8816 25.8407L14.8782 24.8373L15.1011 24.6144C15.334 24.3815 15.334 24.0039 15.1011 23.7711C14.8682 23.5382 14.4906 23.5382 14.2578 23.7711L14.0349 23.994L13.0312 22.9904L13.2541 22.7675C13.487 22.5346 13.487 22.1571 13.2541 21.9242C13.0212 21.6913 12.6436 21.6914 12.4108 21.9242L12.1879 22.1471L12.1004 22.0596C11.669 21.6282 10.9669 21.6282 10.5354 22.0596L7.48779 25.1072C7.27873 25.3163 7.16365 25.5942 7.16365 25.8897C7.16365 26.1853 7.27873 26.4632 7.48779 26.6722L7.57529 26.7597L7.26311 27.0719C7.03022 27.3048 7.03022 27.6823 7.26311 27.9152C7.37951 28.0317 7.53217 28.0899 7.68475 28.0899C7.83732 28.0899 7.98998 28.0317 8.10639 27.9152L8.41857 27.603L9.42201 28.6064L9.10982 28.9186C8.87693 29.1515 8.87693 29.5291 9.10982 29.7619C9.22623 29.8783 9.37888 29.9366 9.53146 29.9366C9.68404 29.9366 9.8367 29.8784 9.9531 29.7619L10.2653 29.4497L11.2687 30.4531L10.9565 30.7653C10.7236 30.9981 10.7236 31.3757 10.9565 31.6085C11.0729 31.7249 11.2256 31.7832 11.3782 31.7832C11.5308 31.7832 11.6834 31.725 11.7998 31.6085L12.112 31.2963L13.1154 32.2998L12.8033 32.612C12.5705 32.845 12.5705 33.2226 12.8034 33.4555C12.9198 33.5719 13.0725 33.6302 13.225 33.6302C13.3776 33.6302 13.5303 33.572 13.6467 33.4555L13.9589 33.1433L14.3267 33.5111C14.5424 33.7268 14.8258 33.8346 15.1092 33.8346C15.3926 33.8346 15.676 33.7267 15.8918 33.511L18.9393 30.4635C19.1483 30.2544 19.2634 29.9765 19.2634 29.6809C19.2634 29.3853 19.1483 29.1074 18.9393 28.8985ZM15.1096 32.6071L12.534 30.0317L12.5339 30.0317L12.5338 30.0316L10.6873 28.1851C10.6872 28.185 10.6872 28.1849 10.6872 28.1849C10.6871 28.1848 10.687 28.1847 10.6869 28.1847L8.39201 25.8898L11.318 22.9638L11.7664 23.4121C11.7664 23.4121 11.7664 23.4121 11.7665 23.4122C11.7665 23.4122 11.7665 23.4122 11.7665 23.4122L13.6133 25.2589C13.6133 25.2589 13.6133 25.2589 13.6133 25.259C13.6133 25.259 13.6133 25.259 13.6134 25.259L18.0355 29.6811L15.1096 32.6071Z" fill="#3498DB"/>
<path d="M26.2697 21.5679L25.902 21.2002L26.1249 20.9773C26.3578 20.7444 26.3578 20.3668 26.1249 20.134C25.892 19.9011 25.5144 19.9011 25.2816 20.134L25.0587 20.3569L24.0553 19.3535L24.2782 19.1306C24.5111 18.8977 24.5111 18.5201 24.2782 18.2873C24.0453 18.0543 23.6677 18.0544 23.4349 18.2873L23.212 18.5102L22.2086 17.5067L22.4315 17.2839C22.6644 17.051 22.6644 16.6734 22.4315 16.4406C22.1986 16.2076 21.821 16.2077 21.5882 16.4406L21.3653 16.6635L20.3619 15.66L20.5847 15.4372C20.8176 15.2043 20.8176 14.8268 20.5847 14.5939C20.3518 14.3611 19.9742 14.3611 19.7414 14.5939L19.5186 14.8168L19.4311 14.7293C18.9996 14.2978 18.2975 14.2978 17.866 14.7293L14.8184 17.7768C14.6094 17.9859 14.4943 18.2638 14.4943 18.5593C14.4943 18.8549 14.6094 19.1328 14.8184 19.3418L14.9059 19.4293L14.5937 19.7415C14.3608 19.9744 14.3608 20.3519 14.5937 20.5848C14.7101 20.7013 14.8628 20.7595 15.0154 20.7595C15.168 20.7595 15.3206 20.7013 15.437 20.5848L15.7492 20.2726L16.7526 21.276L16.4405 21.5882C16.2076 21.8211 16.2076 22.1987 16.4405 22.4315C16.5569 22.5479 16.7095 22.6062 16.8621 22.6062C17.0147 22.6062 17.1673 22.548 17.2837 22.4315L17.5959 22.1193L18.5994 23.1228L18.2872 23.4349C18.0543 23.6678 18.0543 24.0454 18.2872 24.2782C18.4036 24.3946 18.5562 24.4529 18.7088 24.4529C18.8614 24.4529 19.014 24.3947 19.1304 24.2782L19.4426 23.966L20.4461 24.9695L20.1339 25.2817C19.9011 25.5145 19.9011 25.8922 20.134 26.125C20.2504 26.2414 20.403 26.2997 20.5556 26.2997C20.7082 26.2997 20.8608 26.2415 20.9772 26.125L21.2894 25.8128L21.6572 26.1806C21.8662 26.3896 22.1441 26.5047 22.4397 26.5047C22.7353 26.5047 23.0132 26.3896 23.2222 26.1806L26.2697 23.133C26.4788 22.9239 26.5939 22.646 26.5939 22.3504C26.5939 22.0548 26.4789 21.7769 26.2697 21.5679ZM22.4401 25.2768L21.7118 24.5485C21.7117 24.5485 21.7115 24.5483 21.7115 24.5482C21.7114 24.5481 21.7112 24.548 21.7111 24.5479L19.8647 22.7014C19.8647 22.7013 19.8645 22.7012 19.8644 22.7011C19.8644 22.701 19.8642 22.7009 19.864 22.7008L18.018 20.8547C18.0179 20.8546 18.0177 20.8545 18.0176 20.8544C18.0176 20.8543 18.0174 20.8542 18.0172 20.8541L15.7225 18.5593L18.6485 15.6333L19.0969 16.0816C19.0969 16.0816 19.0969 16.0816 19.0969 16.0817C19.0969 16.0817 19.0969 16.0817 19.097 16.0818L20.9437 17.9285C20.9437 17.9285 20.9437 17.9285 20.9438 17.9285C20.9439 17.9286 20.9438 17.9285 20.9439 17.9286L22.7906 19.7753C22.7906 19.7753 22.7906 19.7753 22.7907 19.7754C22.7907 19.7754 22.7907 19.7754 22.7908 19.7755L25.3661 22.3508L22.4401 25.2768Z" fill="#3498DB"/>
<path d="M33.6002 14.2375L33.2324 13.8698L33.4553 13.6469C33.6882 13.414 33.6882 13.0365 33.4553 12.8036C33.2225 12.5707 32.8449 12.5707 32.612 12.8036L32.3892 13.0265L31.3857 12.023L31.6086 11.8001C31.8415 11.5673 31.8415 11.1897 31.6086 10.9569C31.3757 10.7239 30.9981 10.724 30.7653 10.9569L30.5424 11.1798L29.539 10.1762L29.7619 9.95335C29.9948 9.72046 29.9948 9.34289 29.7619 9.11007C29.529 8.87711 29.1514 8.87718 28.9186 9.11007L28.6957 9.33296L27.6923 8.32953L27.9151 8.10672C28.148 7.87383 28.148 7.49625 27.9151 7.26344C27.6822 7.03055 27.3046 7.03055 27.0718 7.26344L26.849 7.48625L26.7615 7.39875C26.33 6.96734 25.6279 6.96734 25.1964 7.39875L22.1488 10.4464C21.7174 10.8779 21.7174 11.58 22.1489 12.0114L22.2364 12.0989L21.9242 12.4111C21.6913 12.644 21.6913 13.0215 21.9242 13.2544C22.0406 13.3708 22.1932 13.429 22.3458 13.429C22.4984 13.429 22.6511 13.3708 22.7675 13.2544L23.0796 12.9422L24.0831 13.9456L23.7709 14.2578C23.538 14.4907 23.538 14.8682 23.7709 15.1011C23.8873 15.2176 24.04 15.2758 24.1925 15.2758C24.3451 15.2758 24.4978 15.2176 24.6142 15.1011L24.9264 14.7889L25.9298 15.7923L25.6176 16.1045C25.3847 16.3374 25.3847 16.715 25.6176 16.9478C25.734 17.0642 25.8867 17.1225 26.0392 17.1225C26.1918 17.1225 26.3445 17.0643 26.4609 16.9478L26.7731 16.6356L27.7765 17.639L27.4643 17.9512C27.2315 18.1841 27.2315 18.5617 27.4644 18.7946C27.5808 18.911 27.7335 18.9693 27.886 18.9693C28.0386 18.9693 28.1913 18.9111 28.3077 18.7946L28.6199 18.4824L28.9876 18.8501C29.1967 19.0592 29.4746 19.1743 29.7701 19.1743C30.0657 19.1743 30.3436 19.0592 30.5526 18.8501L33.6002 15.8026C33.8092 15.5935 33.9243 15.3156 33.9243 15.02C33.9243 14.7244 33.8093 14.4465 33.6002 14.2375ZM29.7706 17.9463L29.0423 17.218C29.0422 17.2179 29.0421 17.2178 29.042 17.2177C29.0419 17.2176 29.0417 17.2175 29.0416 17.2174L27.1952 15.371C27.1951 15.3709 27.1949 15.3708 27.1949 15.3707C27.1948 15.3706 27.1946 15.3705 27.1945 15.3704L23.0529 11.2288L25.9789 8.30281L26.4273 8.75117C26.4273 8.75117 26.4273 8.75117 26.4274 8.75125C26.4274 8.75125 26.4274 8.75125 26.4275 8.75125L28.2742 10.598C28.2742 10.598 28.2742 10.598 28.2742 10.598C28.2743 10.5981 28.2742 10.598 28.2743 10.5981L30.121 12.4448C30.121 12.4448 30.121 12.4448 30.1211 12.4449C30.1212 12.445 30.1211 12.4449 30.1212 12.445L31.9678 14.2916C31.9678 14.2916 31.9678 14.2916 31.9679 14.2917C31.9679 14.2917 31.9679 14.2917 31.968 14.2917L32.6966 15.0203L29.7706 17.9463Z" fill="#3498DB"/>
<path d="M39.6638 13.0518L34.5696 7.9576C34.3367 7.72471 33.9591 7.72471 33.7263 7.9576L33.2413 8.4426C33.0525 8.63142 32.7452 8.63142 32.5564 8.4426C32.3676 8.25377 32.3676 7.94658 32.5564 7.75775L33.0414 7.27276C33.1533 7.16096 33.2161 7.00924 33.2161 6.85112C33.2161 6.69299 33.1533 6.54127 33.0414 6.42948L27.9472 1.33535C27.4997 0.887768 26.7715 0.887846 26.3241 1.33535L25.8283 1.83113L24.346 0.348785C23.8813 -0.11598 23.1249 -0.116136 22.6601 0.348785L0.348571 22.6602C-0.116272 23.1251 -0.116272 23.8814 0.348571 24.3462L1.83076 25.8284L1.3349 26.3242C1.1181 26.541 0.998726 26.8292 0.998726 27.1358C0.998726 27.4423 1.1181 27.7306 1.3349 27.9473L6.42911 33.0415C6.54098 33.1534 6.69262 33.2162 6.85075 33.2162C7.00887 33.2162 7.16059 33.1534 7.27246 33.0415L7.75739 32.5565C7.84887 32.4651 7.97051 32.4147 8.09981 32.4147C8.2291 32.4147 8.35082 32.4651 8.44223 32.5565C8.53371 32.648 8.58402 32.7697 8.58402 32.899C8.58402 33.0283 8.53363 33.15 8.44215 33.2414L7.95715 33.7264C7.72426 33.9593 7.72434 34.3368 7.95715 34.5697L13.0513 39.6638C13.2681 39.8806 13.5563 40 13.8628 40C14.1694 40 14.4577 39.8806 14.6744 39.6638L32.5344 21.8038C32.7673 21.5709 32.7673 21.1934 32.5344 20.9605C32.3015 20.7277 31.9239 20.7277 31.6911 20.9605L13.8631 38.7888L9.22238 34.1481L9.28574 34.0847C9.93957 33.4309 9.93957 32.367 9.28574 31.7132C8.96902 31.3965 8.54793 31.222 8.09996 31.222C7.652 31.222 7.2309 31.3965 6.91418 31.7132L6.85082 31.7765L2.21013 27.1358L3.0956 26.2504C3.09568 26.2503 3.09575 26.2502 3.09591 26.2501C3.09599 26.2501 3.09607 26.25 3.09614 26.2498L5.13895 24.207C5.37184 23.9741 5.37184 23.5966 5.13895 23.3637C4.90614 23.1309 4.52856 23.1309 4.29567 23.3637L2.67419 24.9851L1.19201 23.5035L1.94122 22.7543L2.60333 23.4164C2.71974 23.5328 2.87239 23.5911 3.02497 23.5911C3.17755 23.5911 3.33021 23.5329 3.44661 23.4164C3.6795 23.1835 3.6795 22.8059 3.44661 22.5731L2.7845 21.911L3.9381 20.7573L4.6002 21.4194C4.71661 21.5359 4.86927 21.5941 5.02184 21.5941C5.17442 21.5941 5.32708 21.5359 5.44348 21.4194C5.67637 21.1866 5.67637 20.809 5.44348 20.5762L4.78137 19.9141L5.93505 18.7604L6.59723 19.4226C6.71364 19.539 6.86629 19.5973 7.01887 19.5973C7.17145 19.5973 7.3241 19.5391 7.44051 19.4226C7.6734 19.1897 7.6734 18.8121 7.44051 18.5793L6.77832 17.9171L7.93192 16.7634L8.5941 17.4256C8.71051 17.542 8.86316 17.6003 9.01574 17.6003C9.16832 17.6003 9.32098 17.5421 9.43738 17.4256C9.67027 17.1927 9.67027 16.8152 9.43738 16.5823L8.7752 15.9202L9.92887 14.7665L10.5911 15.4287C10.7075 15.5452 10.8601 15.6034 11.0127 15.6034C11.1653 15.6034 11.3179 15.5452 11.4343 15.4287C11.6672 15.1958 11.6672 14.8182 11.4343 14.5854L10.7721 13.9232L11.9258 12.7695L12.5881 13.4318C12.7045 13.5482 12.8571 13.6065 13.0097 13.6065C13.1623 13.6065 13.315 13.5483 13.4314 13.4318C13.6642 13.1989 13.6642 12.8213 13.4314 12.5885L12.7691 11.9263L13.9227 10.7726L14.585 11.4349C14.7014 11.5513 14.854 11.6095 15.0066 11.6095C15.1592 11.6095 15.3118 11.5513 15.4282 11.4349C15.6611 11.202 15.6611 10.8244 15.4282 10.5916L14.766 9.92931L15.9196 8.77564L16.5819 9.43799C16.6983 9.55439 16.851 9.61267 17.0035 9.61267C17.1561 9.61267 17.3088 9.55447 17.4252 9.43799C17.6581 9.2051 17.6581 8.82752 17.4252 8.59471L16.7628 7.93236L17.9165 6.77869L18.5788 7.44104C18.6952 7.55752 18.8478 7.61572 19.0004 7.61572C19.153 7.61572 19.3056 7.55752 19.4221 7.44104C19.6549 7.20815 19.6549 6.83065 19.4221 6.59776L18.7597 5.93541L19.9134 4.78174L20.5757 5.44409C20.6921 5.56049 20.8448 5.61877 20.9974 5.61877C21.1499 5.61877 21.3026 5.56057 21.419 5.44409C21.6519 5.2112 21.6519 4.83362 21.419 4.60081L20.7567 3.93847L21.9103 2.7848L22.5727 3.44722C22.6892 3.56362 22.8418 3.6219 22.9944 3.6219C23.147 3.6219 23.2996 3.5637 23.416 3.44722C23.6489 3.21433 23.6489 2.83675 23.416 2.60394L22.7536 1.94152L23.5025 1.19261L24.9848 2.67487L6.54442 21.1148C6.31153 21.3477 6.31153 21.7253 6.54442 21.9581C6.66082 22.0745 6.81348 22.1328 6.96606 22.1328C7.11864 22.1328 7.27129 22.0746 7.3877 21.9581L27.1357 2.21034L31.7765 6.85104L31.7131 6.9144C31.0593 7.56822 31.0593 8.63205 31.7131 9.28588C32.0298 9.60267 32.4509 9.77705 32.8989 9.77705C33.3469 9.77705 33.768 9.60267 34.0847 9.28588L34.148 9.22252L38.7888 13.8633L33.9404 18.7117C33.7075 18.9446 33.7075 19.3222 33.9404 19.555C34.1733 19.7879 34.5508 19.7879 34.7837 19.555L39.6638 14.6749C39.8806 14.4581 40 14.1699 40 13.8633C39.9999 13.5567 39.8805 13.2685 39.6638 13.0518Z" fill="#3498DB"/>
</g>
<defs>
<clipPath id="clip0">
</clipPath>
</defs>
</svg>
