<?xml version="1.0" encoding="iso-8859-1"?>
<!-- Generator: Adobe Illustrator 19.0.0, SVG Export Plug-In . SVG Version: 6.00 Build 0)  -->
<svg version="1.1" id="Capa_1" xmlns="http://www.w3.org/2000/svg" xmlns:xlink="http://www.w3.org/1999/xlink" x="0px" y="0px"
	 viewBox="0 0 512.001 512.001" style="enable-background:new 0 0 512.001 512.001;" xml:space="preserve">
<g>
	<g>
		<path d="M395.44,370.605c-4.14,0-7.496,3.356-7.496,7.496v61.249c0,1.461-1.188,2.649-2.649,2.649H126.707
			c-1.461,0-2.649-1.188-2.649-2.649v-61.4c0-4.14-3.356-7.496-7.496-7.496c-4.14,0-7.496,3.356-7.496,7.496v61.401
			c0,9.727,7.914,17.641,17.641,17.641h258.589c9.727,0,17.641-7.914,17.641-17.641v-61.249
			C402.936,373.961,399.581,370.605,395.44,370.605z"/>
	</g>
</g>
<g>
	<g>
		<path d="M385.295,258.93H126.707c-9.728,0-17.641,7.914-17.641,17.641v61.401c0,4.14,3.356,7.496,7.496,7.496
			c4.14,0,7.496-3.356,7.496-7.496v-61.401c0-1.461,1.188-2.649,2.649-2.649h258.589c1.461,0,2.649,1.188,2.649,2.649v61.218
			c0,4.14,3.356,7.496,7.496,7.496s7.496-3.356,7.496-7.496v-61.218C402.936,266.844,395.023,258.93,385.295,258.93z"/>
	</g>
</g>
<g>
	<g>
		<path d="M395.44,28.827c-4.14,0-7.496,3.356-7.496,7.496v65.955c0,4.14,3.356,7.496,7.496,7.496s7.496-3.356,7.496-7.496V36.323
			C402.936,32.183,399.581,28.827,395.44,28.827z"/>
	</g>
</g>
<g>
	<g>
		<path d="M349.784,28.827c-4.14,0-7.496,3.356-7.496,7.496v65.955c0,4.14,3.356,7.496,7.496,7.496s7.496-3.356,7.496-7.496V36.323
			C357.28,32.183,353.924,28.827,349.784,28.827z"/>
	</g>
</g>
<g>
	<g>
		<path d="M304.129,28.827c-4.14,0-7.496,3.356-7.496,7.496v65.955c0,4.14,3.356,7.496,7.496,7.496c4.14,0,7.496-3.356,7.496-7.496
			V36.323C311.625,32.183,308.269,28.827,304.129,28.827z"/>
	</g>
</g>
<g>
	<g>
		<path d="M258.473,28.827c-4.14,0-7.496,3.356-7.496,7.496v65.955c0,4.14,3.356,7.496,7.496,7.496c4.14,0,7.496-3.356,7.496-7.496
			V36.323C265.969,32.183,262.613,28.827,258.473,28.827z"/>
	</g>
</g>
<g>
	<g>
		<path d="M212.816,28.827c-4.14,0-7.496,3.356-7.496,7.496v65.955c0,4.14,3.357,7.496,7.496,7.496c4.14,0,7.496-3.356,7.496-7.496
			V36.323C220.313,32.183,216.957,28.827,212.816,28.827z"/>
	</g>
</g>
<g>
	<g>
		<path d="M167.161,28.827c-4.14,0-7.496,3.356-7.496,7.496v65.955c0,4.14,3.356,7.496,7.496,7.496c4.14,0,7.496-3.356,7.496-7.496
			V36.323C174.657,32.183,171.301,28.827,167.161,28.827z"/>
	</g>
</g>
<g>
	<g>
		<path d="M116.561,69.681c-4.14,0-7.496,3.356-7.496,7.496v25.101c0,4.14,3.356,7.496,7.496,7.496s7.496-3.356,7.496-7.496V77.177
			C124.057,73.037,120.701,69.681,116.561,69.681z"/>
	</g>
</g>
<g>
	<g>
		<path d="M444.914,180.651V82.097c6.074-0.949,10.735-6.215,10.735-12.551l-0.001-45.897C455.646,10.61,445.037,0,431.997,0
			H143.996c-6.728,0-13.055,2.621-17.812,7.378L63.73,69.832c-4.757,4.758-7.377,11.084-7.377,17.812v69.802
			c0,8.364,6.804,15.168,15.167,15.168c0.096,0,0.175,0.078,0.175,0.175v31.052c0,0.097-0.079,0.175-0.175,0.175
			c-8.363,0-15.167,6.804-15.167,15.168v269.167c0,13.041,10.607,23.65,23.645,23.65L174.152,512
			c6.975,0,13.246-3.878,16.366-10.121c0.06-0.12,0.117-0.241,0.17-0.364c0.387-0.89,1.264-1.466,2.237-1.466l126.151,0.001
			c0.954,0,1.824,0.56,2.219,1.429c2.908,6.39,9.174,10.52,15.963,10.52h94.754c13.033,0,23.636-10.606,23.636-23.642l0.001-295.026
			C455.648,186.973,450.999,181.677,444.914,180.651z M440.656,195.312l-0.001,293.046c0,4.77-3.878,8.65-8.644,8.65h-94.754
			c-1.125,0-1.935-0.897-2.316-1.734c-2.821-6.205-9.049-10.214-15.866-10.214l-126.149-0.001c-0.002,0-0.003,0-0.004,0
			c-6.848,0-13.046,4.004-15.87,10.226c-0.581,1.067-1.682,1.725-2.901,1.725l-94.154-0.001c-4.771,0-8.653-3.884-8.653-8.658
			V219.182c0-0.097,0.079-0.176,0.175-0.176c8.363,0,15.167-6.804,15.167-15.167v-31.052c0-8.363-6.804-15.167-15.167-15.167
			c-0.097,0-0.175-0.079-0.175-0.176V87.643c0-2.724,1.061-5.285,2.987-7.211l62.453-62.453c1.926-1.927,4.487-2.988,7.211-2.988
			h288.001c4.774,0,8.658,3.885,8.659,8.658l0.001,43.787c-6.086,1.026-10.735,6.32-10.735,12.676v102.659
			C429.922,189.102,434.583,194.366,440.656,195.312z"/>
	</g>
</g>
<g>
</g>
<g>
</g>
<g>
</g>
<g>
</g>
<g>
</g>
<g>
</g>
<g>
</g>
<g>
</g>
<g>
</g>
<g>
</g>
<g>
</g>
<g>
</g>
<g>
</g>
<g>
</g>
<g>
</g>
</svg>
