<?xml version="1.0" encoding="iso-8859-1"?>
<!-- Generator: Adobe Illustrator 19.0.0, SVG Export Plug-In . SVG Version: 6.00 Build 0)  -->
<svg version="1.1" id="Capa_1" xmlns="http://www.w3.org/2000/svg" xmlns:xlink="http://www.w3.org/1999/xlink" x="0px" y="0px"
	 viewBox="0 0 511.999 511.999" style="enable-background:new 0 0 511.999 511.999;" xml:space="preserve">
<g>
	<g>
		<path d="M214.541,202.842h-90.889c-4.148,0-7.511,3.363-7.511,7.511s3.363,7.512,7.511,7.512h90.889
			c4.148,0,7.512-3.363,7.512-7.512S218.69,202.842,214.541,202.842z"/>
	</g>
</g>
<g>
	<g>
		<path d="M83.591,202.842H55.383c-4.148,0-7.511,3.363-7.511,7.511s3.362,7.512,7.511,7.512h28.208
			c4.148,0,7.511-3.363,7.511-7.512S87.739,202.842,83.591,202.842z"/>
	</g>
</g>
<g>
	<g>
		<path d="M214.541,243.582H55.383c-4.148,0-7.511,3.363-7.511,7.512s3.363,7.512,7.511,7.512h159.159
			c4.148,0,7.512-3.363,7.512-7.512S218.69,243.582,214.541,243.582z"/>
	</g>
</g>
<g>
	<g>
		<path d="M214.541,284.321H55.383c-4.148,0-7.511,3.363-7.511,7.511c0,4.148,3.363,7.512,7.511,7.512h159.159
			c4.148,0,7.512-3.363,7.512-7.512S218.69,284.321,214.541,284.321z"/>
	</g>
</g>
<g>
	<g>
		<path d="M508.505,182.198l-12.068-30.409c-4.299-10.833-14.608-17.833-26.263-17.833H41.825c-11.655,0-21.963,7-26.262,17.833
			l-12.07,30.412c-2.222,4-3.493,8.6-3.493,13.492v121.7c0,15.372,12.506,27.879,27.879,27.879h2.671l3.307,21.559
			c0.996,6.496,6.489,11.211,13.061,11.211h28.109c6.572,0,12.065-4.715,13.062-11.211l3.306-21.559h199.617
			c19.467,14.419,43.539,22.958,69.57,22.958c22.298,0,43.159-6.265,60.92-17.123l2.411,15.724
			c0.995,6.497,6.488,11.212,13.061,11.212h28.108c6.573,0,12.066-4.715,13.061-11.211l3.306-21.559h2.671
			c15.373,0,27.879-12.506,27.879-27.879v-121.7C512,190.8,510.729,186.199,508.505,182.198z M470.174,148.98L470.174,148.98
			c5.458-0.001,10.286,3.277,12.299,8.351l4.208,10.603c-0.165-0.015-0.331-0.022-0.496-0.035c-0.24-0.018-0.479-0.039-0.72-0.05
			c-0.447-0.022-0.895-0.034-1.345-0.034h-41.165c-7.522-7.453-15.866-13.759-24.832-18.835H470.174z M29.527,157.33
			c2.013-5.073,6.841-8.352,12.299-8.352H303.04c-8.966,5.076-17.31,11.383-24.833,18.835H27.879c-0.45,0-0.898,0.012-1.345,0.034
			c-0.241,0.012-0.48,0.033-0.72,0.05c-0.165,0.012-0.331,0.019-0.496,0.035L29.527,157.33z M73.474,363.019H48.47l-2.721-17.748
			h30.447L73.474,363.019z M27.879,330.248c-7.089,0-12.856-5.767-12.856-12.856v-121.7c0-2.329,0.632-4.509,1.719-6.394
			c0.007-0.011,0.015-0.021,0.022-0.033c1.292-2.226,3.201-3.978,5.432-5.087c0.014-0.007,0.028-0.013,0.042-0.02
			c0.451-0.222,0.916-0.416,1.391-0.584c0.048-0.017,0.095-0.036,0.144-0.053c0.207-0.07,0.416-0.133,0.627-0.193
			c0.165-0.047,0.332-0.089,0.5-0.129c0.2-0.048,0.4-0.094,0.602-0.133c0.295-0.055,0.593-0.102,0.895-0.137
			c0.115-0.014,0.23-0.024,0.345-0.035c0.375-0.033,0.753-0.058,1.137-0.058h237.489c-8.441,11.738-14.56,24.863-18.16,38.76
			c-0.042,0.162-0.084,0.324-0.126,0.486c-0.398,1.565-0.765,3.138-1.099,4.721c-0.052,0.245-0.109,0.488-0.16,0.734
			c-0.134,0.656-0.257,1.315-0.379,1.974c-0.13,0.696-0.253,1.394-0.371,2.094c-0.089,0.53-0.183,1.059-0.264,1.591
			c-0.18,1.172-0.339,2.351-0.484,3.534c-0.053,0.434-0.101,0.869-0.149,1.303c-0.123,1.104-0.232,2.213-0.324,3.326
			c-0.018,0.214-0.041,0.427-0.057,0.641c-0.102,1.319-0.175,2.645-0.232,3.976c-0.014,0.337-0.027,0.674-0.039,1.012
			c-0.047,1.363-0.08,2.729-0.08,4.103c0,0.978,0.013,1.953,0.037,2.927c0.006,0.231,0.017,0.46,0.024,0.691
			c0.023,0.757,0.049,1.513,0.086,2.268c0.01,0.202,0.024,0.404,0.035,0.606c0.043,0.802,0.093,1.602,0.153,2.401
			c0.009,0.116,0.019,0.232,0.028,0.349c2.038,26.278,12.719,50.71,30.399,69.915H27.879z M424.402,330.742
			c-1.165,0.44-2.219,1.159-3.048,2.125c-0.147,0.171-0.279,0.351-0.409,0.533c-16.921,12.443-37.797,19.806-60.364,19.806
			c-51.891,0-94.865-38.906-101.285-89.08c-0.004-0.028-0.007-0.056-0.011-0.084c-0.095-0.744-0.178-1.492-0.257-2.241
			c-0.023-0.225-0.046-0.45-0.067-0.676c-0.06-0.616-0.116-1.233-0.165-1.852c-0.03-0.378-0.055-0.757-0.081-1.135
			c-0.035-0.505-0.069-1.009-0.096-1.516c-0.028-0.533-0.048-1.068-0.068-1.602c-0.014-0.378-0.033-0.754-0.043-1.133
			c-0.025-0.929-0.04-1.861-0.04-2.794c0-0.856,0.011-1.71,0.033-2.561c0.006-0.247,0.019-0.493,0.026-0.739
			c0.019-0.608,0.039-1.216,0.069-1.822c0.013-0.267,0.032-0.532,0.048-0.799c0.034-0.589,0.068-1.178,0.112-1.764
			c0.018-0.245,0.041-0.489,0.061-0.733c0.051-0.616,0.103-1.232,0.164-1.845c0.02-0.196,0.042-0.392,0.063-0.588
			c0.071-0.669,0.146-1.337,0.23-2.003c0.017-0.134,0.035-0.267,0.053-0.401c0.096-0.741,0.199-1.48,0.311-2.216
			c0.008-0.051,0.016-0.102,0.024-0.153c7.542-48.916,49.925-86.491,100.919-86.491c50.997,0,93.381,37.577,100.921,86.497
			c0.007,0.048,0.015,0.095,0.022,0.143c0.113,0.74,0.216,1.482,0.313,2.227c0.017,0.13,0.035,0.26,0.051,0.39
			c0.084,0.668,0.159,1.338,0.23,2.01c0.02,0.194,0.043,0.389,0.063,0.583c0.061,0.613,0.114,1.23,0.165,1.846
			c0.02,0.245,0.043,0.488,0.061,0.733c0.044,0.586,0.078,1.175,0.112,1.764c0.015,0.266,0.034,0.532,0.048,0.799
			c0.03,0.606,0.05,1.214,0.069,1.822c0.008,0.247,0.02,0.492,0.026,0.739c0.021,0.851,0.033,1.705,0.033,2.561
			c0,0.934-0.015,1.865-0.04,2.794c-0.01,0.379-0.029,0.756-0.043,1.134c-0.02,0.534-0.04,1.068-0.068,1.601
			c-0.027,0.507-0.062,1.013-0.096,1.518c-0.026,0.378-0.051,0.756-0.081,1.132c-0.049,0.62-0.105,1.239-0.165,1.856
			c-0.022,0.224-0.044,0.448-0.067,0.671c-0.079,0.751-0.163,1.5-0.257,2.245c-0.003,0.026-0.007,0.051-0.01,0.077
			C458.433,290.967,444.531,314.581,424.402,330.742z M463.529,363.019h-25.003l-2.721-17.748h30.446L463.529,363.019z
			 M496.977,317.393L496.977,317.393c0,7.089-5.767,12.856-12.856,12.856h-37.164c17.682-19.206,28.363-43.641,30.398-69.919
			c0.009-0.114,0.019-0.227,0.028-0.341c0.06-0.801,0.109-1.603,0.153-2.407c0.011-0.201,0.025-0.401,0.035-0.602
			c0.037-0.755,0.064-1.511,0.086-2.268c0.007-0.231,0.018-0.46,0.024-0.691c0.024-0.974,0.037-1.95,0.037-2.927
			c0-1.374-0.033-2.74-0.08-4.103c-0.012-0.337-0.024-0.675-0.039-1.012c-0.057-1.331-0.13-2.657-0.232-3.976
			c-0.016-0.214-0.039-0.427-0.057-0.64c-0.092-1.114-0.201-2.223-0.325-3.328c-0.048-0.434-0.096-0.868-0.149-1.302
			c-0.145-1.183-0.304-2.363-0.484-3.535c-0.081-0.531-0.176-1.06-0.264-1.59c-0.118-0.7-0.24-1.398-0.371-2.094
			c-0.123-0.66-0.246-1.319-0.379-1.975c-0.051-0.249-0.109-0.495-0.162-0.743c-0.332-1.578-0.698-3.146-1.095-4.706
			c-0.043-0.167-0.086-0.333-0.129-0.499c-3.6-13.894-9.718-27.017-18.157-38.753h28.326c0.384,0,0.762,0.024,1.137,0.058
			c0.115,0.01,0.231,0.021,0.345,0.035c0.303,0.035,0.602,0.082,0.898,0.137c0.199,0.038,0.396,0.084,0.592,0.131
			c0.171,0.041,0.341,0.084,0.51,0.131c0.208,0.059,0.415,0.121,0.62,0.191c0.055,0.019,0.108,0.04,0.162,0.059
			c0.464,0.165,0.919,0.355,1.36,0.571c0.022,0.011,0.044,0.021,0.066,0.032c2.228,1.109,4.134,2.859,5.424,5.082
			c0.006,0.011,0.014,0.02,0.021,0.031c1.088,1.886,1.721,4.067,1.721,6.397V317.393z"/>
	</g>
</g>
<g>
	<g>
		<path d="M360.581,162.814c-48.677,0-88.278,39.602-88.278,88.279c0,48.676,39.601,88.278,88.278,88.278
			s88.278-39.602,88.278-88.278C448.859,202.416,409.258,162.814,360.581,162.814z M360.581,324.348
			c-40.393,0-73.255-32.862-73.255-73.255s32.862-73.256,73.255-73.256s73.255,32.863,73.255,73.256
			S400.974,324.348,360.581,324.348z"/>
	</g>
</g>
<g>
</g>
<g>
</g>
<g>
</g>
<g>
</g>
<g>
</g>
<g>
</g>
<g>
</g>
<g>
</g>
<g>
</g>
<g>
</g>
<g>
</g>
<g>
</g>
<g>
</g>
<g>
</g>
<g>
</g>
</svg>
