<?xml version="1.0" encoding="iso-8859-1"?>
<!-- Generator: Adobe Illustrator 19.0.0, SVG Export Plug-In . SVG Version: 6.00 Build 0)  -->
<svg version="1.1" id="Capa_1" xmlns="http://www.w3.org/2000/svg" xmlns:xlink="http://www.w3.org/1999/xlink" x="0px" y="0px"
	 viewBox="0 0 512 512" style="enable-background:new 0 0 512 512;" xml:space="preserve">
<g>
	<g>
		<path d="M117.042,449.835H93.608c-4.167,0-7.545,3.378-7.545,7.545c0,4.167,3.378,7.545,7.545,7.545h23.434
			c4.167,0,7.545-3.378,7.545-7.545C124.587,453.213,121.209,449.835,117.042,449.835z"/>
	</g>
</g>
<g>
	<g>
		<path d="M291.638,449.835H157.281c-4.167,0-7.545,3.378-7.545,7.545c0,4.167,3.378,7.545,7.545,7.545h134.357
			c4.167,0,7.545-3.378,7.545-7.545C299.183,453.213,295.805,449.835,291.638,449.835z"/>
	</g>
</g>
<g>
	<g>
		<path d="M223.074,315.153c-6.028-7.535-16.499-9.561-24.907-4.816l-80.415,45.428c-8.819,4.983-14.981,13.544-16.904,23.49
			s0.603,20.187,6.93,28.1c6.327,7.911,15.763,12.627,25.887,12.937c0.357,0.011,0.711,0.017,1.066,0.017
			c9.739,0.001,19.006-4.096,25.567-11.342l61.998-68.458C228.774,333.356,229.102,322.692,223.074,315.153z M211.11,330.381
			l-61.997,68.458c-3.827,4.224-9.28,6.569-14.985,6.372c-5.696-0.175-11.005-2.827-14.565-7.28
			c-3.56-4.451-4.981-10.214-3.899-15.81c1.083-5.596,4.549-10.413,9.512-13.216l80.414-45.428c0.698-0.394,1.458-0.585,2.209-0.585
			c1.319,0,2.611,0.587,3.49,1.686C212.668,326.303,212.594,328.743,211.11,330.381z"/>
	</g>
</g>
<g>
	<g>
		<path d="M192.623,236.442c-12.812,0-23.235,10.423-23.235,23.235s10.423,23.235,23.235,23.235
			c12.812,0,23.234-10.423,23.234-23.235S205.435,236.442,192.623,236.442z M192.623,267.822c-4.491,0-8.145-3.653-8.145-8.145
			s3.654-8.145,8.145-8.145c4.491,0,8.144,3.654,8.144,8.145C200.767,264.169,197.113,267.822,192.623,267.822z"/>
	</g>
</g>
<g>
	<g>
		<path d="M192.623,147.011c-62.125,0-112.667,50.542-112.667,112.666c0,24.532,7.747,47.852,22.405,67.438
			c2.495,3.336,7.225,4.017,10.561,1.521c3.336-2.496,4.017-7.225,1.521-10.561c-12.69-16.957-19.397-37.151-19.397-58.398
			c0-53.803,43.773-97.576,97.577-97.576c53.803,0,97.576,43.773,97.576,97.576c0,37.198-20.68,70.656-53.967,87.316
			c-3.726,1.866-5.235,6.397-3.371,10.124c1.322,2.643,3.987,4.17,6.753,4.17c1.135,0,2.287-0.257,3.371-0.8
			c38.431-19.234,62.304-57.863,62.304-100.81C305.289,197.553,254.747,147.011,192.623,147.011z"/>
	</g>
</g>
<g>
	<g>
		<path d="M466.508,313.747h-7.956v-12.298c0-6.639-5.401-12.04-12.04-12.04h-4.538V52.53c0-28.965-23.565-52.53-52.53-52.53
			h-235.82c-28.965,0-52.53,23.565-52.53,52.53v23.705c-5.632,0.738-10.432,4.603-12.277,10.098l-6.977,20.782H61.477
			c-16.294,0-29.55,13.256-29.55,29.55V482.45c0,16.294,13.256,29.55,29.55,29.55h262.291c16.294,0,29.55-13.256,29.55-29.55
			V136.665c0-16.294-13.256-29.55-29.55-29.55H134.397l-6.979-20.783c-1.73-5.153-6.06-8.871-11.237-9.923V52.53
			c0-20.644,16.796-37.44,37.44-37.44h235.82c20.644,0,37.44,16.796,37.44,37.44v236.878h-3.908c-6.639,0-12.04,5.401-12.04,12.04
			v12.298h-7.956c-7.482,0-13.569,6.087-13.569,13.569v73.096c0,7.482,6.087,13.569,13.569,13.569h1.666v17.038
			c0,7.717,6.279,13.995,13.995,13.995h32.205c7.717,0,13.994-6.279,13.994-13.995V413.98h1.667c7.482,0,13.569-6.087,13.569-13.569
			v-73.096C480.077,319.834,473.99,313.747,466.508,313.747z M323.768,122.205c7.973,0,14.46,6.487,14.46,14.46V482.45
			c0,7.973-6.487,14.46-14.46,14.46H61.477c-7.973,0-14.46-6.487-14.46-14.46V136.665c0-7.973,6.487-14.46,14.46-14.46H323.768z
			 M118.48,107.116H97.738l5.314-15.929l10.063-0.051L118.48,107.116z M426.025,304.498h17.437v9.248h-17.437V304.498z
			 M449.751,429.924h-30.015v-15.943h30.015V429.924z M464.987,398.891H404.5v-70.054h60.487V398.891z"/>
	</g>
</g>
<g>
</g>
<g>
</g>
<g>
</g>
<g>
</g>
<g>
</g>
<g>
</g>
<g>
</g>
<g>
</g>
<g>
</g>
<g>
</g>
<g>
</g>
<g>
</g>
<g>
</g>
<g>
</g>
<g>
</g>
</svg>
