<?xml version="1.0" encoding="iso-8859-1"?>
<!-- Generator: Adobe Illustrator 19.0.0, SVG Export Plug-In . SVG Version: 6.00 Build 0)  -->
<svg version="1.1" id="Capa_1" xmlns="http://www.w3.org/2000/svg" xmlns:xlink="http://www.w3.org/1999/xlink" x="0px" y="0px"
	 viewBox="0 0 512 512" style="enable-background:new 0 0 512 512;" xml:space="preserve">
<g>
	<g>
		<path d="M337.483,0c-4.203,0-7.611,3.407-7.611,7.611c0,4.204,3.408,7.611,7.611,7.611c87.817,0,159.261,71.444,159.261,159.26
			c0,4.204,3.408,7.611,7.611,7.611s7.611-3.407,7.611-7.611C511.966,78.272,433.693,0,337.483,0z"/>
	</g>
</g>
<g>
	<g>
		<path d="M337.483,59.714c-4.203,0-7.611,3.407-7.611,7.611c0,4.204,3.408,7.611,7.611,7.611c54.89,0,99.547,44.656,99.547,99.547
			c0,4.204,3.408,7.611,7.611,7.611s7.611-3.407,7.611-7.611C452.252,111.199,400.767,59.714,337.483,59.714z"/>
	</g>
</g>
<g>
	<g>
		<path d="M330.694,114.926c-4.203,0-7.611,3.407-7.611,7.611c0,4.204,3.408,7.611,7.611,7.611
			c28.189,0,51.123,22.934,51.123,51.124c0,4.204,3.408,7.611,7.611,7.611s7.611-3.407,7.611-7.611
			C397.039,144.688,367.277,114.926,330.694,114.926z"/>
	</g>
</g>
<g>
	<g>
		<path d="M342.107,180.528c-0.029-0.032-0.057-0.065-0.086-0.097c-0.718-0.794-1.449-1.58-2.187-2.36
			c-0.116-0.123-0.228-0.248-0.344-0.37c-0.847-0.891-1.707-1.773-2.579-2.646c-27.304-27.303-63.607-42.341-102.221-42.341
			c-1.207,0-2.411,0.015-3.613,0.044c-36.059,0.879-69.903,14.898-96.022,39.773c-0.871,0.829-1.733,1.67-2.586,2.524
			l-90.161,90.161c-56.365,56.365-56.365,148.079,0,204.444C69.612,496.963,105.915,512,144.529,512s74.917-15.037,102.221-42.341
			l4.817-4.816c2.972-2.972,2.973-7.791,0.001-10.763c-2.973-2.973-7.791-2.972-10.764-0.001l-4.817,4.816
			c-24.429,24.43-56.91,37.884-91.457,37.884c-34.548,0-67.028-13.454-91.458-37.884c-50.429-50.43-50.429-132.485,0-182.915
			l60.669-60.669l15.99,15.99c2.972,2.971,7.791,2.971,10.763,0c2.973-2.973,2.973-7.791,0-10.764l-15.989-15.989l18.729-18.728
			c0.763-0.763,1.535-1.516,2.314-2.258c21.811-20.773,49.642-33.085,79.487-35.273c3.198-0.234,6.418-0.353,9.657-0.353
			c31.944,0,62.115,11.51,85.794,32.556l-12.382,12.382c-4.851-2.902-10.412-4.452-16.212-4.452c-8.455,0-16.405,3.292-22.384,9.271
			l-41.671,41.67c-5.979,5.98-9.272,13.929-9.272,22.384c0,5.8,1.55,11.361,4.453,16.212l-12.55,12.55l-41.446-41.446
			c-2.972-2.971-7.791-2.971-10.763,0c-2.973,2.973-2.973,7.791,0,10.764l138.399,138.399l-27.149,27.149
			c-2.973,2.973-2.973,7.791,0,10.764c2.972,2.97,7.791,2.972,10.763,0l56.641-56.641c0.304-0.304,0.597-0.615,0.898-0.921
			c0.556-0.566,1.116-1.131,1.662-1.704c0.223-0.235,0.439-0.474,0.66-0.71c0.629-0.67,1.257-1.34,1.871-2.02
			c0.094-0.104,0.184-0.209,0.277-0.313c23.898-26.564,36.974-60.553,36.974-96.554C379.252,241.187,366.115,207.12,342.107,180.528
			z M238.598,250.127l41.671-41.67c6.408-6.408,16.833-6.408,23.241,0c6.407,6.407,6.407,16.832,0,23.239l-41.671,41.67
			c-6.408,6.408-16.833,6.408-23.241,0C232.191,266.96,232.191,256.534,238.598,250.127z M330.956,363.655
			c-0.086,0.095-0.169,0.193-0.255,0.288c-0.536,0.593-1.085,1.178-1.634,1.764c-0.212,0.226-0.419,0.456-0.633,0.681
			c-0.449,0.472-0.911,0.937-1.369,1.404c-0.307,0.313-0.608,0.63-0.918,0.941l-18.729,18.729L221.457,301.5l12.559-12.559
			l-0.001-0.001c4.973,2.962,10.588,4.446,16.204,4.446c8.106,0,16.213-3.085,22.384-9.256l41.671-41.67
			c5.979-5.98,9.272-13.929,9.271-22.384c0-5.799-1.55-11.361-4.452-16.212l12.381-12.381
			C374.964,240.485,374.795,314.858,330.956,363.655z"/>
	</g>
</g>
<g>
</g>
<g>
</g>
<g>
</g>
<g>
</g>
<g>
</g>
<g>
</g>
<g>
</g>
<g>
</g>
<g>
</g>
<g>
</g>
<g>
</g>
<g>
</g>
<g>
</g>
<g>
</g>
<g>
</g>
</svg>
