<?xml version="1.0" encoding="iso-8859-1"?>
<!-- Generator: Adobe Illustrator 19.0.0, SVG Export Plug-In . SVG Version: 6.00 Build 0)  -->
<svg version="1.1" id="Capa_1" xmlns="http://www.w3.org/2000/svg" xmlns:xlink="http://www.w3.org/1999/xlink" x="0px" y="0px"
	 viewBox="0 0 512.001 512.001" style="enable-background:new 0 0 512.001 512.001;" xml:space="preserve">
<g>
	<g>
		<path d="M325.727,438.014H186.273c-4.171,0-7.552,3.381-7.552,7.552c0,4.171,3.381,7.552,7.552,7.552h139.453
			c4.171,0,7.552-3.381,7.552-7.552C333.278,441.395,329.898,438.014,325.727,438.014z"/>
	</g>
</g>
<g>
	<g>
		<circle cx="124.83" cy="40.3" r="7.476"/>
	</g>
</g>
<g>
	<g>
		<circle cx="387.17" cy="40.3" r="7.476"/>
	</g>
</g>
<g>
	<g>
		<circle cx="124.83" cy="445.57" r="7.476"/>
	</g>
</g>
<g>
	<g>
		<circle cx="387.17" cy="445.57" r="7.476"/>
	</g>
</g>
<g>
	<g>
		<path d="M425.392,254.297c-4.171,0-7.552,3.381-7.552,7.552v187.584c0.001,10.414-8.471,18.886-18.885,18.886h-285.91
			c-10.414,0-18.886-8.472-18.886-18.886V261.849c0-4.171-3.381-7.552-7.552-7.552s-7.552,3.381-7.552,7.552v187.584
			c0,18.742,15.248,33.989,33.989,33.989h1.578l3.005,16.816c1.216,6.816,7.125,11.763,14.049,11.763h23.425
			c6.924,0,12.833-4.947,14.049-11.762l3.005-16.817h167.689l3.005,16.816c1.216,6.816,7.125,11.763,14.049,11.763h23.425
			c6.924,0,12.833-4.947,14.049-11.762l3.005-16.817h1.578c18.741,0,33.989-15.247,33.989-33.989V261.849
			C432.944,257.678,429.563,254.297,425.392,254.297z M154.405,496.897h-22.032l-2.408-13.475h26.849L154.405,496.897z
			 M379.627,496.897h-22.032l-2.408-13.475h26.849L379.627,496.897z"/>
	</g>
</g>
<g>
	<g>
		<path d="M398.955,0h-285.91c-18.742,0-33.99,15.248-33.99,33.99v187.584c0,4.171,3.381,7.552,7.552,7.552s7.552-3.381,7.552-7.552
			V33.99c0-10.414,8.472-18.886,18.886-18.886h285.911c10.414,0,18.886,8.472,18.886,18.886v187.584
			c0,4.171,3.381,7.552,7.552,7.552c4.171,0,7.552-3.381,7.552-7.552V33.99C432.945,15.248,417.697,0,398.955,0z"/>
	</g>
</g>
<g>
	<g>
		<path d="M256,40.221c-41.993,0-76.156,34.164-76.156,76.156c0,41.992,34.163,76.156,76.156,76.156
			c41.993,0,76.156-34.164,76.156-76.156C332.156,74.384,297.993,40.221,256,40.221z M256,177.43
			c-33.665,0-61.053-27.388-61.053-61.053c0-33.665,27.388-61.053,61.053-61.053s61.053,27.388,61.053,61.053
			C317.053,150.042,289.665,177.43,256,177.43z"/>
	</g>
</g>
<g>
	<g>
		<path d="M256,206.023c-59.839,0-108.521,48.682-108.521,108.52c0,59.839,48.682,108.52,108.521,108.52
			s108.521-48.682,108.521-108.52C364.521,254.705,315.839,206.023,256,206.023z M256,407.96c-51.51,0-93.418-41.907-93.418-93.417
			c0-51.51,41.908-93.417,93.418-93.417s93.418,41.907,93.418,93.417C349.418,366.053,307.51,407.96,256,407.96z"/>
	</g>
</g>
<g>
	<g>
		<path d="M305.55,264.994c-13.235-13.235-30.832-20.524-49.55-20.524c-18.718,0-36.315,7.289-49.549,20.524
			c-13.236,13.235-20.525,30.832-20.525,49.549c0,18.717,7.289,36.314,20.524,49.549s30.832,20.524,49.55,20.524
			s36.315-7.289,49.549-20.524c13.236-13.235,20.525-30.832,20.525-49.549C326.074,295.826,318.785,278.229,305.55,264.994z
			 M294.87,353.414C294.869,353.414,294.869,353.414,294.87,353.414c-10.383,10.382-24.187,16.1-38.87,16.1
			s-28.488-5.718-38.87-16.1c-10.382-10.382-16.1-24.187-16.1-38.87s5.717-28.488,16.101-38.87
			c10.382-10.382,24.186-16.1,38.869-16.1s28.488,5.718,38.87,16.1c10.383,10.382,16.1,24.187,16.1,38.87
			S305.252,343.031,294.87,353.414z"/>
	</g>
</g>
<g>
	<g>
		<path d="M284.96,87.417c-7.735-7.735-18.02-11.996-28.96-11.996s-21.224,4.26-28.959,11.996
			c-7.736,7.735-11.996,18.02-11.996,28.96s4.26,21.224,11.995,28.96c7.735,7.735,18.02,11.996,28.96,11.996
			s21.224-4.261,28.96-11.996c7.735-7.735,11.995-18.02,11.995-28.96S292.695,95.152,284.96,87.417z M274.279,134.657
			c-4.882,4.882-11.374,7.572-18.279,7.572c-6.906,0-13.397-2.689-18.279-7.572c-4.883-4.883-7.572-11.375-7.572-18.28
			c0-6.906,2.689-13.397,7.572-18.28c4.882-4.882,11.374-7.572,18.279-7.572c6.906,0,13.397,2.689,18.28,7.572
			c4.882,4.883,7.571,11.375,7.571,18.28C281.851,123.282,279.162,129.774,274.279,134.657z"/>
	</g>
</g>
<g>
</g>
<g>
</g>
<g>
</g>
<g>
</g>
<g>
</g>
<g>
</g>
<g>
</g>
<g>
</g>
<g>
</g>
<g>
</g>
<g>
</g>
<g>
</g>
<g>
</g>
<g>
</g>
<g>
</g>
</svg>
