<?xml version="1.0" encoding="iso-8859-1"?>
<!-- Generator: Adobe Illustrator 19.0.0, SVG Export Plug-In . SVG Version: 6.00 Build 0)  -->
<svg version="1.1" id="Capa_1" xmlns="http://www.w3.org/2000/svg" xmlns:xlink="http://www.w3.org/1999/xlink" x="0px" y="0px"
	 viewBox="0 0 512 512" style="enable-background:new 0 0 512 512;" xml:space="preserve">
<g>
	<g>
		<path d="M312.084,343.495h-48.361v-48.361c0-4.266-3.458-7.724-7.724-7.724s-7.724,3.458-7.724,7.724v48.361h-48.361
			c-4.266,0-7.724,3.458-7.724,7.724s3.458,7.724,7.724,7.724h48.361v48.361c0,4.266,3.458,7.724,7.724,7.724
			s7.724-3.458,7.724-7.724v-48.361h48.361c4.266,0,7.724-3.458,7.724-7.724S316.351,343.495,312.084,343.495z"/>
	</g>
</g>
<g>
	<g>
		<path d="M177.935,186.053c7.769-3.153,12.7-10.829,12.7-22.206c0-19.328-14.194-23.714-30.181-23.714h-27.192
			c-3.586,0-7.023,1.645-7.023,4.798h-0.001v90.743c0,2.467,2.689,4.66,7.023,4.66h30.33c16.734,0,29.733-7.539,29.733-28.786
			v-2.604C193.324,194.963,187.199,189.343,177.935,186.053z M141.928,153.018h17.481c9.412,0,15.389,3.975,15.389,13.159
			c0,9.321-4.931,14.119-15.091,14.119h-17.779V153.018z M177.487,210.452c0,11.788-6.276,16.997-16.884,16.997h-18.676V191.81
			h18.676c10.608,0,16.884,4.387,16.884,16.449V210.452z"/>
	</g>
</g>
<g>
	<g>
		<path d="M216.781,140.133c-3.885,0-7.919,1.37-7.919,4.66v90.744c0,3.153,4.034,4.798,7.919,4.798
			c4.034,0,7.919-1.645,7.919-4.798v-90.744C224.7,141.504,220.815,140.133,216.781,140.133z"/>
	</g>
</g>
<g>
	<g>
		<path d="M276.843,140.132c-18.975,0-33.468,8.362-33.468,30.568v39.889c0,22.206,14.494,30.568,33.468,30.568
			c18.826,0,33.618-8.362,33.618-30.568V170.7C310.461,148.493,295.669,140.132,276.843,140.132z M294.623,210.589
			c0,12.063-6.723,17.683-17.78,17.683c-11.206,0-17.63-5.621-17.63-17.683V170.7c0-12.062,6.424-17.682,17.63-17.682
			c11.057,0,17.78,5.62,17.78,17.682V210.589z"/>
	</g>
</g>
<g>
	<g>
		<path d="M341.985,164.67c0-8.636,7.769-12.474,18.676-12.474c12.7,0,16.585,5.209,20.619,5.209c4.482,0,6.574-5.071,6.574-7.813
			c0-7.54-17.481-9.87-27.193-9.87c-15.987,0-34.514,6.031-34.514,26.318c0,32.898,48.559,23.44,48.559,47.702
			c0,9.87-8.068,14.53-18.825,14.531c-16.584,0-20.17-10.829-25.549-10.829c-3.735,0-6.873,4.523-6.873,7.813
			c0,6.854,13.597,16.175,33.02,16.175c19.722,0,34.065-9.595,34.065-29.197C390.544,175.773,341.985,184.957,341.985,164.67z"/>
	</g>
</g>
<g>
	<g>
		<path d="M437.02,74.981C388.667,26.629,324.381,0,256,0S123.333,26.629,74.98,74.981C26.629,123.333,0,187.62,0,256
			s26.629,132.667,74.98,181.019C123.333,485.371,187.619,512,256,512s132.667-26.629,181.02-74.981
			C485.371,388.667,512,324.38,512,256S485.371,123.333,437.02,74.981z M426.414,426.415
			c-45.519,45.519-106.04,70.588-170.414,70.588s-124.895-25.069-170.414-70.588C40.066,380.895,14.998,320.374,14.998,256
			S40.066,131.105,85.586,85.585C131.105,40.066,191.626,14.998,256,14.998s124.895,25.069,170.414,70.588
			c45.52,45.52,70.588,106.041,70.588,170.415S471.934,380.895,426.414,426.415z"/>
	</g>
</g>
<g>
	<g>
		<path d="M473.492,235.237c-5.082-53.883-29.959-103.761-70.048-140.446C363.094,57.869,310.731,37.535,256,37.535
			c-54.728,0-107.088,20.332-147.435,57.25c-40.088,36.681-64.967,86.554-70.053,140.433c-0.39,4.123,2.637,7.781,6.76,8.17
			c4.136,0.389,7.781-2.638,8.171-6.761c4.737-50.168,27.908-96.612,65.246-130.778C156.265,71.468,205.029,52.533,256,52.533
			c50.974,0,99.741,18.937,137.318,53.323c37.34,34.169,60.509,80.618,65.242,130.79c0.366,3.884,3.632,6.795,7.457,6.795
			c0.235,0,0.474-0.011,0.713-0.034C470.853,243.018,473.88,239.36,473.492,235.237z"/>
	</g>
</g>
<g>
	<g>
		<path d="M466.728,268.599c-4.1-0.387-7.78,2.638-8.17,6.761c-4.733,50.171-27.904,96.618-65.242,130.787
			c-37.576,34.384-86.343,53.32-137.316,53.32c-50.985,0-99.759-18.944-137.338-53.342c-37.344-34.182-60.508-80.645-65.227-130.831
			c-0.388-4.124-4.054-7.147-8.168-6.764c-4.123,0.388-7.151,4.045-6.764,8.168c5.067,53.897,29.939,103.79,70.032,140.49
			c40.351,36.935,92.721,57.276,147.465,57.276c54.73,0,107.092-20.333,147.44-57.254c40.089-36.684,64.966-86.561,70.049-140.442
			C473.878,272.646,470.851,268.988,466.728,268.599z"/>
	</g>
</g>
<g>
</g>
<g>
</g>
<g>
</g>
<g>
</g>
<g>
</g>
<g>
</g>
<g>
</g>
<g>
</g>
<g>
</g>
<g>
</g>
<g>
</g>
<g>
</g>
<g>
</g>
<g>
</g>
<g>
</g>
</svg>
