<?xml version="1.0" encoding="iso-8859-1"?>
<!-- Generator: Adobe Illustrator 19.0.0, SVG Export Plug-In . SVG Version: 6.00 Build 0)  -->
<svg version="1.1" id="Capa_1" xmlns="http://www.w3.org/2000/svg" xmlns:xlink="http://www.w3.org/1999/xlink" x="0px" y="0px"
	 viewBox="0 0 511.997 511.998" style="enable-background:new 0 0 511.997 511.998;" xml:space="preserve">
<g>
	<g>
		<path d="M368.343,107.095c-3.708-1.883-8.236-0.403-10.122,3.306l-4.392,8.651c-1.882,3.709-0.402,8.241,3.306,10.123
			c2.981,1.512,6.493,0.853,8.734-1.388c0.548-0.548,1.019-1.19,1.389-1.918l4.391-8.651
			C373.531,113.509,372.051,108.977,368.343,107.095z"/>
	</g>
</g>
<g>
	<g>
		<path d="M391.677,129.901c-2.94-2.941-7.708-2.941-10.649,0l-6.521,6.521c-2.941,2.941-2.941,7.709,0,10.649
			c2.941,2.941,7.708,2.941,10.649,0l6.521-6.521C394.617,137.609,394.617,132.841,391.677,129.901z"/>
	</g>
</g>
<g>
	<g>
		<path d="M414.484,153.236c-1.882-3.709-6.415-5.189-10.123-3.306l-8.651,4.391c-3.711,1.884-5.188,6.415-3.306,10.122
			c1.882,3.708,6.414,5.188,10.123,3.306l8.651-4.391c0.728-0.37,1.37-0.841,1.918-1.389
			C415.338,159.727,415.995,156.215,414.484,153.236z"/>
	</g>
</g>
<g>
	<g>
		<path d="M422.511,76.762l-56.69-56.69c-12.896-12.897-33.88-12.897-46.777-0.001L118.367,220.75
			c-2.941,2.941-2.941,7.709,0,10.649c2.941,2.941,7.709,2.941,10.649,0L329.695,30.721c7.024-7.024,18.454-7.024,25.478,0
			l56.69,56.69c2.941,2.941,7.708,2.941,10.649,0C425.452,84.47,425.453,79.702,422.511,76.762z"/>
	</g>
</g>
<g>
	<g>
		<path d="M502.326,156.577l-51.418-51.418c-2.938-2.94-7.705-2.94-10.646,0.001c-2.941,2.941-2.941,7.709,0,10.649l51.418,51.418
			c7.024,7.024,7.024,18.454,0,25.478l-21.133,21.133L355.177,329.207l-29.233,29.233l-63.554,63.554l-16.319,16.319L84.087,276.328
			l16.525-16.525c2.941-2.941,2.941-7.709,0-10.649s-7.709-2.941-10.649,0l-16.526,16.525l-10.167-10.166
			c-7.224-7.224-18.978-7.224-26.202,0L4.225,288.355c-5.634,5.634-5.634,14.801,0,20.435l9.654,9.654
			c5.634,5.634,14.801,5.634,20.435,0l15.856-15.855l15.746,15.746l-8.689,8.689c-6.403,6.403-6.403,16.821,0,23.223l10.754,10.754
			c6.402,6.402,16.82,6.402,23.223,0l8.688-8.689l10.195,10.195l-8.689,8.689c-6.403,6.403-6.403,16.821,0,23.223l10.754,10.754
			c6.402,6.402,16.82,6.402,23.223,0l8.689-8.689l10.195,10.195l-8.689,8.689c-6.403,6.403-6.403,16.821,0,23.223l10.754,10.754
			c6.402,6.402,16.82,6.402,23.223,0l8.689-8.689l56.717,56.717c5.634,5.634,14.801,5.634,20.435,0l9.654-9.654
			c5.634-5.634,5.634-14.801,0-20.435l-18.323-18.323l10.995-10.995l11.002,11.002c6.402,6.402,16.82,6.402,23.223,0l50.98-50.98
			c6.402-6.402,6.402-16.82,0-23.223l-11.002-11.002L360.5,345.18l11.002,11.002c6.402,6.402,16.82,6.402,23.222,0l102.795-102.795
			c6.403-6.403,6.403-16.821,0-23.223l-11.002-11.002l15.808-15.808C515.221,190.458,515.221,169.474,502.326,156.577z
			 M80.555,350.35c-0.531,0.531-1.395,0.531-1.925,0.001l-10.754-10.754c-0.531-0.531-0.531-1.394,0-1.925l8.689-8.689
			l12.678,12.679L80.555,350.35z M124.727,394.524c-0.531,0.531-1.394,0.531-1.924,0L112.05,383.77
			c-0.531-0.531-0.531-1.394,0-1.925l8.689-8.689l12.678,12.679L124.727,394.524z M168.899,438.696
			c-0.531,0.531-1.394,0.531-1.924,0l-10.754-10.754c-0.53-0.53-0.53-1.394,0-1.924l8.689-8.689l12.678,12.678L168.899,438.696z
			 M263.961,477.502l-8.79,8.79l-61.61-61.61l-23.328-23.328l-20.845-20.845l-23.328-23.328l-20.845-20.845l-23.328-23.328
			l-26.395-26.395c-2.941-2.941-7.709-2.941-10.649,0l-20.748,20.748l-8.79-8.79l32.411-32.411c1.352-1.352,3.551-1.352,4.903,0
			l15.493,15.493l172.634,172.634L263.961,477.502z M291.291,438.32c-0.53,0.53-1.394,0.53-1.924,0l-11.002-11.002l10.266-10.266
			l11.964,11.964L291.291,438.32z M311.245,418.366l-11.964-11.964l11.073-11.073l11.964,11.964L311.245,418.366z M342.271,385.415
			c0.531,0.531,0.531,1.394,0,1.925l-9.304,9.304l-11.964-11.964l10.267-10.267L342.271,385.415z M384.076,345.534
			c-0.53,0.53-1.393,0.53-1.924,0l-11.002-11.002l10.909-10.909l11.964,11.964L384.076,345.534z M404.674,324.937l-11.964-11.964
			l13.434-13.434l11.964,11.964L404.674,324.937z M428.758,300.853l-11.964-11.964l13.434-13.434l11.964,11.964L428.758,300.853z
			 M452.841,276.769l-11.964-11.964l13.434-13.434l11.964,11.964L452.841,276.769z M486.872,240.814c0.53,0.53,0.53,1.394,0,1.924
			l-9.947,9.947l-11.964-11.964l10.909-10.909L486.872,240.814z"/>
	</g>
</g>
<g>
	<g>
		<path d="M176.875,284.753c-9.703-9.703-25.491-9.703-35.194,0c-9.703,9.702-9.703,25.491,0,35.194s25.491,9.703,35.194,0
			S186.578,294.456,176.875,284.753z M166.227,309.298c-3.831,3.831-10.065,3.831-13.896,0s-3.831-10.065,0-13.896
			s10.065-3.831,13.896,0S170.058,305.467,166.227,309.298z"/>
	</g>
</g>
<g>
	<g>
		<path d="M232.594,229.034c-9.703-9.703-25.491-9.703-35.194,0s-9.703,25.491,0,35.194c9.703,9.703,25.491,9.703,35.194,0
			C242.297,254.525,242.297,238.737,232.594,229.034z M221.945,253.579c-3.831,3.831-10.065,3.831-13.896,0
			c-3.831-3.831-3.831-10.065,0-13.896c3.831-3.831,10.065-3.831,13.896,0S225.776,249.748,221.945,253.579z"/>
	</g>
</g>
<g>
	<g>
		<path d="M237.648,345.525c-9.703-9.703-25.491-9.703-35.194,0s-9.703,25.491,0,35.194s25.491,9.703,35.194,0
			S247.351,355.228,237.648,345.525z M226.998,370.069c-3.831,3.831-10.065,3.831-13.896,0s-3.831-10.065,0-13.896
			s10.065-3.831,13.896,0C230.829,360.005,230.829,366.239,226.998,370.069z"/>
	</g>
</g>
<g>
	<g>
		<path d="M293.367,289.806c-9.703-9.703-25.491-9.703-35.194,0c-9.703,9.703-9.703,25.491,0,35.194
			c9.702,9.703,25.491,9.703,35.194,0S303.07,299.509,293.367,289.806z M282.718,314.351c-3.831,3.831-10.065,3.831-13.896,0
			s-3.831-10.065,0-13.896c3.831-3.831,10.065-3.831,13.896,0S286.549,310.52,282.718,314.351z"/>
	</g>
</g>
<g>
	<g>
		<path d="M411.367,110.21c-38.989-38.989-102.427-38.989-141.415,0s-38.988,102.427,0,141.415
			c38.988,38.989,102.427,38.989,141.415,0C450.356,212.637,450.356,149.198,411.367,110.21z M400.719,240.975
			c-33.116,33.116-87,33.116-120.116,0c-33.117-33.115-33.117-86.999-0.001-120.116c33.116-33.116,87-33.116,120.117,0
			C433.835,153.975,433.835,207.859,400.719,240.975z"/>
	</g>
</g>
<g>
	<g>
		<path d="M411.398,191.702l-81.522-81.522c-2.94-2.94-7.101-4.085-11.131-3.062c-4.031,1.021-7.143,4.013-8.326,7.998
			l-15.413,51.929l-20.303,20.303c-3.508,3.508-3.508,9.215,0,12.722l46.806,46.806c3.507,3.508,9.214,3.507,12.721,0l20.303-20.303
			l51.929-15.413c0.001-0.001,0.001,0,0.001,0c1.916-0.569,3.6-1.583,4.948-2.931c1.457-1.457,2.518-3.303,3.05-5.396
			C415.482,198.803,414.338,194.642,411.398,191.702z M327.868,231.938l-38.229-38.229l12.041-12.041l38.229,38.229L327.868,231.938
			z M352.714,211.402l-42.539-42.538l13.066-44.02l73.493,73.493L352.714,211.402z"/>
	</g>
</g>
<g>
</g>
<g>
</g>
<g>
</g>
<g>
</g>
<g>
</g>
<g>
</g>
<g>
</g>
<g>
</g>
<g>
</g>
<g>
</g>
<g>
</g>
<g>
</g>
<g>
</g>
<g>
</g>
<g>
</g>
</svg>
