<?xml version="1.0" encoding="iso-8859-1"?>
<!-- Generator: Adobe Illustrator 19.0.0, SVG Export Plug-In . SVG Version: 6.00 Build 0)  -->
<svg version="1.1" id="Capa_1" xmlns="http://www.w3.org/2000/svg" xmlns:xlink="http://www.w3.org/1999/xlink" x="0px" y="0px"
	 viewBox="0 0 512 512" style="enable-background:new 0 0 512 512;" xml:space="preserve">
<g>
	<g>
		<path d="M208.234,386.755c-2.954-2.954-7.747-2.954-10.703,0.002l-98.355,98.356c-3.066,3.066-7.142,4.754-11.478,4.754
			s-8.412-1.689-11.478-4.754l-49.332-49.333c-3.066-3.066-4.754-7.142-4.754-11.478s1.689-8.412,4.754-11.478l98.356-98.355
			c2.956-2.956,2.956-7.748,0-10.704c-2.956-2.957-7.748-2.956-10.704,0l-98.356,98.355c-5.925,5.925-9.188,13.803-9.188,22.182
			c0,8.379,3.263,16.257,9.188,22.182l19.314,19.314l-33.281,33.28c-2.956,2.956-2.956,7.748,0,10.704
			c2.956,2.956,7.748,2.956,10.704,0l33.28-33.281l19.314,19.314c5.925,5.925,13.803,9.188,22.182,9.188
			c8.379,0,16.257-3.263,22.182-9.188l98.355-98.356C211.19,394.504,211.19,389.712,208.234,386.755z"/>
	</g>
</g>
<g>
	<g>
		<path d="M509.784,2.218c-1.523-1.524-3.621-2.327-5.773-2.205l-36.105,2.013c-2.465,0.137-4.708,1.468-6.01,3.566l-15.263,24.591
			c-6.065-2.142-13.094-0.81-17.939,4.033L300.816,162.095c-9.223-4.096-20.426-2.374-27.978,5.178l-24.254,24.254
			c-10.388-2.653-21.878,0.072-29.992,8.187l-75.508,75.508c-2.956,2.956-2.956,7.748,0,10.704c2.956,2.956,7.748,2.956,10.704,0
			l75.508-75.508c4.722-4.721,11.65-5.915,17.493-3.593l0.674,0.305c0.892,0.403,1.733,0.877,2.52,1.414
			c0.097,0.067,0.191,0.141,0.287,0.211c0.293,0.209,0.583,0.422,0.859,0.649c0.385,0.319,0.762,0.654,1.123,1.014l49.332,49.332
			c0.361,0.361,0.695,0.738,1.015,1.123c0.229,0.278,0.442,0.569,0.653,0.864c0.068,0.094,0.14,0.185,0.206,0.28
			c0.537,0.788,1.012,1.63,1.416,2.523l0.305,0.673c2.322,5.843,1.127,12.772-3.594,17.493l-75.508,75.508
			c-2.956,2.956-2.956,7.748,0,10.704c1.478,1.478,3.415,2.217,5.352,2.217s3.874-0.739,5.352-2.217l75.508-75.508
			c8.115-8.115,10.839-19.604,8.186-29.992l24.254-24.254c7.552-7.552,9.274-18.754,5.178-27.977l48.597-48.598l24.297-24.297
			l54.984-54.985c4.844-4.844,6.175-11.873,4.033-17.939l24.591-15.263c2.097-1.302,3.428-3.545,3.566-6.01l2.013-36.105
			C512.109,5.841,511.307,3.741,509.784,2.218z M334.024,228.46l-21.169,21.169c-0.187-0.197-0.376-0.391-0.568-0.582
			l-49.332-49.332c-0.192-0.192-0.386-0.381-0.582-0.568l21.168-21.169c3.605-3.605,9.301-3.863,13.213-0.788l0.29,0.246
			c0.206,0.175,0.414,0.347,0.609,0.542l36.37,36.37c0.195,0.196,0.369,0.405,0.545,0.612l0.237,0.278
			C337.888,219.151,337.631,224.852,334.024,228.46z M340.385,199.3l-27.682-27.683l47.415-47.415l27.683,27.683L340.385,199.3z
			 M398.504,141.181l-27.683-27.683l19.001-19.001l27.682,27.682L398.504,141.181z M467.081,72.603l-38.872,38.872l-27.683-27.683
			l38.872-38.872c0.816-0.816,2.143-0.816,2.958,0l1.24,1.24l22.246,22.246l1.24,1.24C467.896,70.462,467.896,71.788,467.081,72.603
			z M495.081,39.321l-22.779,14.138l-13.758-13.758l14.138-22.779l23.723-1.323L495.081,39.321z"/>
	</g>
</g>
<g>
</g>
<g>
</g>
<g>
</g>
<g>
</g>
<g>
</g>
<g>
</g>
<g>
</g>
<g>
</g>
<g>
</g>
<g>
</g>
<g>
</g>
<g>
</g>
<g>
</g>
<g>
</g>
<g>
</g>
</svg>
