<?xml version="1.0" encoding="iso-8859-1"?>
<!-- Generator: Adobe Illustrator 19.0.0, SVG Export Plug-In . SVG Version: 6.00 Build 0)  -->
<svg version="1.1" id="Capa_1" xmlns="http://www.w3.org/2000/svg" xmlns:xlink="http://www.w3.org/1999/xlink" x="0px" y="0px"
	 viewBox="0 0 512.001 512.001" style="enable-background:new 0 0 512.001 512.001;" xml:space="preserve">
<g>
	<g>
		<path d="M263.641,179.265c-2.287-2.287-5.268-3.742-7.049-1.962L239.996,193.9l-15.595-15.594l16.597-16.597
			c1.781-1.781,0.257-4.831-1.961-7.048c-2.288-2.288-5.269-3.743-7.049-1.962l-41.334,41.334c-1.718,1.717-0.39,4.825,1.899,7.112
			c2.218,2.22,5.395,3.616,7.111,1.898l18.25-18.249l15.595,15.594l-18.251,18.25c-1.717,1.718-0.388,4.826,1.899,7.112
			c2.218,2.218,5.395,3.614,7.111,1.896l41.334-41.333C267.383,184.532,265.859,181.482,263.641,179.265z"/>
	</g>
</g>
<g>
	<g>
		<path d="M292.681,208.306l-12.267-12.267c-2.357-2.357-5.159-2.742-6.494-1.407l-41.398,41.398
			c-1.335,1.335-0.949,4.137,1.407,6.493l12.268,12.268c9.148,9.147,20.228,12.343,30.849,1.724l17.359-17.36
			C305.026,228.535,301.829,217.454,292.681,208.306z M285.396,230.145l-17.36,17.361c-4.961,4.96-10.016,4.61-14.59,0.036
			l-7.209-7.209l31.986-31.986l7.209,7.209C290.006,220.13,290.355,225.185,285.396,230.145z"/>
	</g>
</g>
<g>
	<g>
		<path d="M352.284,267.908c-3.257-3.257-5.418-4.146-11.457-2.682l-22.768,5.721l5.719-22.769c1.464-6.038,0.645-8.13-2.612-11.387
			c-2.287-2.287-5.586-3.424-8.639-0.372l-39.744,39.744c-1.717,1.718-0.388,4.826,1.899,7.112c2.218,2.218,5.395,3.614,7.112,1.897
			l27.852-27.853l-5.765,21.706c-0.51,2.035,0.217,3.526,1.326,4.633c1.109,1.11,2.669,1.907,4.704,1.396l21.335-5.118
			l-27.344,27.344c-1.717,1.718-0.389,4.826,1.898,7.112c2.218,2.218,5.395,3.615,7.112,1.899l39.744-39.744
			C355.708,273.494,354.572,270.196,352.284,267.908z"/>
	</g>
</g>
<g>
	<g>
		<path d="M369.611,285.237c-2.287-2.287-5.269-3.742-7.049-1.962l-41.333,41.334c-1.717,1.717-0.389,4.826,1.898,7.113
			c2.218,2.218,5.395,3.614,7.111,1.897l41.334-41.334C373.354,290.504,371.829,287.454,369.611,285.237z"/>
	</g>
</g>
<g>
	<g>
		<path d="M278.657,342.75l-29.204-29.205c-3.049-3.049-7.991-3.049-11.038,0c-3.049,3.048-3.049,7.99-0.001,11.038l29.204,29.205
			c1.524,1.524,3.521,2.286,5.519,2.286c1.997,0,3.995-0.762,5.519-2.286C281.705,350.74,281.705,345.798,278.657,342.75z"/>
	</g>
</g>
<g>
	<g>
		<path d="M219.879,283.971l-50.627-50.626c-3.049-3.048-7.99-3.048-11.04,0c-3.048,3.048-3.048,7.99,0,11.038l50.627,50.626
			c1.525,1.524,3.523,2.286,5.52,2.286s3.995-0.762,5.52-2.286C222.927,291.961,222.927,287.019,219.879,283.971z"/>
	</g>
</g>
<g>
	<g>
		<path d="M236.348,361.999l-86.346-86.347c-3.049-3.049-7.991-3.049-11.04,0c-3.048,3.048-3.048,7.99,0,11.038l86.346,86.347
			c1.525,1.525,3.522,2.286,5.52,2.286c1.997,0,3.995-0.762,5.52-2.286C239.396,369.989,239.396,365.047,236.348,361.999z"/>
	</g>
</g>
<g>
	<g>
		<path d="M505.695,144.633L367.367,6.305c-8.407-8.406-22.088-8.408-30.497,0.001l-65.105,65.106L258.424,58.07
			c-5.576-5.576-12.99-8.647-20.875-8.647c-7.886,0-15.3,3.071-20.876,8.647l-23.314,23.314c-3.048,3.048-3.048,7.99,0,11.038
			c3.049,3.048,7.99,3.048,11.039,0l23.314-23.314c2.627-2.627,6.12-4.075,9.836-4.075s7.209,1.447,9.836,4.075l195.505,195.506
			c5.424,5.424,5.424,14.249,0,19.673l-92.354,92.354c-1.638,1.639-3.703,2.762-5.968,3.249l-117.851,25.306
			c-4.002,0.861-8.117-0.355-11.01-3.248L110.052,296.293c-2.894-2.894-4.108-7.01-3.249-11.011l25.307-117.851
			c0.486-2.265,1.61-4.329,3.249-5.968l39.604-39.604c3.048-3.048,3.048-7.99,0-11.038c-3.049-3.048-7.99-3.048-11.039,0
			l-39.604,39.604c-3.77,3.77-6.354,8.518-7.473,13.73L91.539,282.006c-1.975,9.202,0.819,18.669,7.473,25.325l5.765,5.765
			l-21.735,21.735c-10.836,10.836-10.836,28.469,0,39.306l21.891,21.891L2.286,498.675c-3.048,3.048-3.049,7.99,0,11.039
			c3.049,3.048,7.99,3.048,11.039,0l102.647-102.647l21.891,21.891c5.418,5.418,12.536,8.127,19.653,8.127
			s14.235-2.709,19.653-8.127l21.735-21.735l5.765,5.765c5.248,5.248,12.245,8.095,19.482,8.095c1.94,0,3.899-0.204,5.843-0.622
			l117.852-25.306c5.212-1.12,9.96-3.704,13.73-7.474l92.354-92.354c11.509-11.511,11.509-30.239,0-41.75l-13.341-13.341
			l65.107-65.106C514.102,166.721,514.102,153.041,505.695,144.633z M166.13,417.919c-4.748,4.75-12.48,4.749-17.228,0
			l-54.819-54.82c-4.75-4.75-4.75-12.479,0-17.229l21.734-21.735l72.049,72.049L166.13,417.919z M494.656,164.091l-65.106,65.106
			L282.804,82.45l65.105-65.105c2.323-2.322,6.101-2.321,8.42-0.001l138.327,138.327
			C496.977,157.993,496.977,161.77,494.656,164.091z"/>
	</g>
</g>
<g>
</g>
<g>
</g>
<g>
</g>
<g>
</g>
<g>
</g>
<g>
</g>
<g>
</g>
<g>
</g>
<g>
</g>
<g>
</g>
<g>
</g>
<g>
</g>
<g>
</g>
<g>
</g>
<g>
</g>
</svg>
