<?xml version="1.0" encoding="iso-8859-1"?>
<!-- Generator: Adobe Illustrator 19.0.0, SVG Export Plug-In . SVG Version: 6.00 Build 0)  -->
<svg version="1.1" id="Capa_1" xmlns="http://www.w3.org/2000/svg" xmlns:xlink="http://www.w3.org/1999/xlink" x="0px" y="0px"
	 viewBox="0 0 512 512" style="enable-background:new 0 0 512 512;" xml:space="preserve">
<g>
	<g>
		<path d="M227.579,366.863l-82.437-82.436c-2.946-2.945-7.72-2.945-10.666,0c-2.945,2.945-2.945,7.72,0,10.665l82.437,82.436
			c1.473,1.472,3.403,2.209,5.333,2.209c1.929,0,3.86-0.736,5.333-2.209C230.524,374.583,230.524,369.808,227.579,366.863z"/>
	</g>
</g>
<g>
	<g>
		<path d="M184.102,378.415l-50.513-50.513c-2.946-2.945-7.72-2.945-10.666,0c-2.945,2.945-2.945,7.72,0,10.665l50.513,50.513
			c1.473,1.472,3.403,2.209,5.333,2.209c1.929,0,3.86-0.736,5.333-2.209C187.047,386.135,187.047,381.36,184.102,378.415z"/>
	</g>
</g>
<g>
	<g>
		<path d="M181.827,266.031l-17.524-17.524c-2.946-2.945-7.72-2.945-10.666,0c-2.945,2.945-2.945,7.72,0,10.665l17.524,17.524
			c1.473,1.472,3.403,2.209,5.333,2.209s3.86-0.736,5.333-2.209C184.772,273.751,184.772,268.976,181.827,266.031z"/>
	</g>
</g>
<g>
	<g>
		<path d="M263.498,347.703l-53.232-53.232c-2.946-2.945-7.72-2.945-10.666,0c-2.945,2.945-2.945,7.72,0,10.665l53.232,53.232
			c1.473,1.472,3.403,2.209,5.333,2.209s3.86-0.736,5.333-2.209C266.443,355.423,266.443,350.648,263.498,347.703z"/>
	</g>
</g>
<g>
	<g>
		<path d="M370.706,171.59l-30.293-30.291c-2.364-2.365-5.509-3.668-8.854-3.668c-3.343,0-6.488,1.303-8.854,3.667l-72.826,72.828
			c-6.411,6.411-9.942,14.934-9.942,24c0,9.066,3.531,17.589,9.941,24h0.001c6.616,6.617,15.308,9.925,23.999,9.925
			c8.692,0,17.384-3.308,24.001-9.925l72.826-72.827c2.365-2.365,3.668-5.51,3.668-8.855
			C374.373,177.099,373.07,173.954,370.706,171.59z M287.215,251.462c-7.354,7.352-19.316,7.353-26.672,0h0.001
			c-3.562-3.562-5.524-8.298-5.524-13.336c0-5.038,1.962-9.774,5.524-13.336l71.016-71.017l26.671,26.671L287.215,251.462z"/>
	</g>
</g>
<g>
	<g>
		<path d="M505.993,133.284L378.72,6.012C374.843,2.135,369.688,0,364.204,0c-5.484,0-10.639,2.135-14.517,6.013L243.762,111.938
			l-1.967-1.967c-7.502-7.502-19.71-7.504-27.214,0l-86.707,86.707c-1.484,1.484-2.628,3.227-3.401,5.187L76.015,324.789
			c-3.842,9.747-1.539,20.832,5.87,28.24l8.688,8.688l-11.954,11.954c-8.355,8.356-8.355,21.952,0,30.308l9.371,9.371L2.214,499.126
			c-2.945,2.945-2.945,7.719,0,10.665c2.945,2.945,7.72,2.945,10.665,0l85.776-85.776l9.37,9.37
			c4.178,4.178,9.666,6.267,15.154,6.267c5.489,0,10.977-2.089,15.155-6.267l11.953-11.953l8.688,8.688
			c5.028,5.028,11.75,7.705,18.597,7.705c3.242,0,6.512-0.6,9.644-1.834l122.922-48.459c1.956-0.771,3.702-1.915,5.189-3.402
			l86.707-86.706c7.502-7.502,7.502-19.711,0-27.214l-1.967-1.967l105.925-105.925C513.996,154.313,513.996,141.288,505.993,133.284
			z M476.363,124.985l-41.086,41.085c-0.791,0.792-1.844,1.228-2.963,1.228c-1.12,0-2.173-0.436-2.964-1.228l-6.543-6.543
			l44.05-44.049L476.363,124.985z M456.191,104.813l-44.05,44.049l-9.223-9.223l44.05-44.049L456.191,104.813z M436.303,84.925
			l-44.05,44.049l-9.223-9.223l44.05-44.049L436.303,84.925z M416.415,65.037l-44.05,44.049l-9.223-9.223l44.049-44.049
			L416.415,65.037z M387.019,35.641l9.507,9.507l-44.049,44.049l-6.543-6.543c-1.635-1.634-1.635-4.294,0-5.929L387.019,35.641z
			 M127.668,422.72c-2.474,2.474-6.503,2.475-8.978,0l-29.406-29.406c-2.475-2.475-2.475-6.503,0-8.979l11.953-11.953l38.384,38.384
			L127.668,422.72z M495.327,151.652L389.402,257.577l-20.379-20.38c-2.945-2.945-7.719-2.946-10.666,0
			c-2.945,2.945-2.945,7.72,0,10.665l33.011,33.011c1.622,1.623,1.623,4.263,0,5.885l-86.76,86.741l-122.923,48.459
			c-4.159,1.64-8.886,0.656-12.044-2.503L92.55,342.364c-3.159-3.159-4.142-7.887-2.503-12.044l48.492-122.977l86.708-86.707
			c1.622-1.624,4.261-1.622,5.883,0l33.011,33.011c2.946,2.945,7.72,2.946,10.666,0c2.945-2.945,2.945-7.72,0-10.665l-20.38-20.38
			L360.353,16.678c1.028-1.029,2.396-1.595,3.851-1.595c1.454,0,2.823,0.567,3.851,1.595l8.299,8.299l-41.086,41.085
			c-7.514,7.515-7.514,19.743,0,27.258l83.415,83.415c3.64,3.64,8.481,5.646,13.63,5.646c5.148,0,9.989-2.005,13.629-5.646
			l41.085-41.085l8.299,8.299C497.451,146.073,497.451,149.528,495.327,151.652z"/>
	</g>
</g>
<g>
</g>
<g>
</g>
<g>
</g>
<g>
</g>
<g>
</g>
<g>
</g>
<g>
</g>
<g>
</g>
<g>
</g>
<g>
</g>
<g>
</g>
<g>
</g>
<g>
</g>
<g>
</g>
<g>
</g>
</svg>
