<?xml version="1.0" encoding="iso-8859-1"?>
<!-- Generator: Adobe Illustrator 19.0.0, SVG Export Plug-In . SVG Version: 6.00 Build 0)  -->
<svg version="1.1" id="Capa_1" xmlns="http://www.w3.org/2000/svg" xmlns:xlink="http://www.w3.org/1999/xlink" x="0px" y="0px"
	 viewBox="0 0 512 512" style="enable-background:new 0 0 512 512;" xml:space="preserve">
<g>
	<g>
		<path d="M335.14,219.784c-0.88-4.125-4.935-6.757-9.063-5.876l-94.171,20.083c-2.492,0.532-4.555,2.271-5.5,4.638
			s-0.646,5.049,0.795,7.151l21.563,31.442l-83.288,22.875c-4.066,1.117-6.458,5.32-5.341,9.387
			c0.931,3.391,4.007,5.617,7.361,5.617c0.669,0,1.351-0.089,2.027-0.275l93.629-25.715c2.382-0.654,4.301-2.421,5.149-4.74
			c0.849-2.32,0.524-4.907-0.874-6.944l-21.175-30.877l83.012-17.703C333.389,227.967,336.02,223.91,335.14,219.784z"/>
	</g>
</g>
<g>
	<g>
		<path d="M389.426,284.384c-2.983-2.983-7.819-2.983-10.802-0.001L215.731,447.276c-2.648,2.648-6.957,2.648-9.606,0L64.73,305.88
			c-1.283-1.283-1.989-2.988-1.989-4.803c0-1.814,0.707-3.519,1.989-4.802l21.452-21.452c2.983-2.982,2.983-7.819,0-10.801
			c-2.982-2.982-7.819-2.982-10.801,0l-21.452,21.452c-4.168,4.168-6.464,9.71-6.464,15.604c0,5.894,2.296,11.436,6.464,15.604
			l29.54,29.54l-17.073,17.073c-10.303,10.303-10.303,27.067,0,37.37l17.073,17.073L2.242,498.962
			c-2.983,2.983-2.983,7.818,0,10.801c2.983,2.983,7.819,2.983,10.801,0l81.226-81.226l17.073,17.073
			c5.151,5.151,11.918,7.727,18.685,7.727c6.767,0,13.533-2.576,18.685-7.727l17.073-17.073l29.54,29.54
			c4.302,4.302,9.953,6.453,15.604,6.453s11.302-2.151,15.604-6.453l162.893-162.892
			C392.409,292.203,392.409,287.366,389.426,284.384z M137.911,434.809c-4.347,4.347-11.421,4.347-15.767,0l-44.947-44.947
			c-4.347-4.347-4.347-11.421,0-15.768l17.073-17.072l60.714,60.714L137.911,434.809z"/>
	</g>
</g>
<g>
	<g>
		<path d="M505.543,95.189L416.817,6.464C412.649,2.296,407.107,0,401.213,0s-11.436,2.296-15.603,6.464l-75.031,75.031
			l-10.731-10.731c-8.604-8.604-22.604-8.604-31.208,0L104.184,235.217c-2.983,2.982-2.983,7.819,0,10.801
			c2.982,2.983,7.819,2.982,10.801,0L279.441,81.564c2.648-2.648,6.957-2.648,9.606,0L430.442,222.96
			c1.283,1.283,1.989,2.988,1.989,4.803c0,1.814-0.707,3.519-1.989,4.802l-23.015,23.015c-2.983,2.982-2.983,7.819,0,10.801
			c1.491,1.491,3.446,2.237,5.401,2.237c1.955,0,3.909-0.746,5.401-2.237l23.015-23.015c4.168-4.168,6.464-9.71,6.464-15.604
			c0-5.894-2.296-11.436-6.464-15.604l-10.731-10.731l75.031-75.031C514.145,117.793,514.145,103.793,505.543,95.189z
			 M494.741,115.595l-75.031,75.031l-98.33-98.331l75.031-75.031c1.282-1.283,2.988-1.989,4.802-1.989
			c1.814,0,3.519,0.707,4.802,1.989l88.726,88.726C497.389,108.639,497.389,112.947,494.741,115.595z"/>
	</g>
</g>
<g>
</g>
<g>
</g>
<g>
</g>
<g>
</g>
<g>
</g>
<g>
</g>
<g>
</g>
<g>
</g>
<g>
</g>
<g>
</g>
<g>
</g>
<g>
</g>
<g>
</g>
<g>
</g>
<g>
</g>
</svg>
