<?xml version="1.0" encoding="iso-8859-1"?>
<!-- Generator: Adobe Illustrator 19.0.0, SVG Export Plug-In . SVG Version: 6.00 Build 0)  -->
<svg version="1.1" id="Capa_1" xmlns="http://www.w3.org/2000/svg" xmlns:xlink="http://www.w3.org/1999/xlink" x="0px" y="0px"
	 viewBox="0 0 512 512" style="enable-background:new 0 0 512 512;" xml:space="preserve">
<g>
	<g>
		<path d="M504.95,109.119L402.881,7.051c-9.4-9.401-24.696-9.401-34.098,0l-73.367,73.367L282.17,67.171
			c-9.401-9.401-24.697-9.401-34.098,0L103.244,211.999c-2.934,2.933-2.934,7.69,0,10.623c2.933,2.933,7.69,2.933,10.623,0
			L258.695,77.794c3.544-3.544,9.309-3.544,12.853,0l162.659,162.659c1.716,1.717,2.662,3.999,2.662,6.426s-0.945,4.709-2.662,6.426
			l-21.149,21.149c-2.934,2.933-2.934,7.69,0,10.623c1.467,1.467,3.389,2.2,5.311,2.2s3.845-0.734,5.311-2.2l21.149-21.149
			c4.554-4.554,7.062-10.609,7.062-17.049s-2.508-12.495-7.062-17.049l-13.247-13.247l73.367-73.367
			C514.35,133.816,514.35,118.52,504.95,109.119z M494.327,132.594l-73.367,73.367L306.039,91.04l73.367-73.367
			c3.544-3.544,9.31-3.543,12.852,0l102.069,102.069c1.716,1.716,2.661,3.998,2.661,6.426
			C496.988,128.596,496.043,130.877,494.327,132.594z"/>
	</g>
</g>
<g>
	<g>
		<path d="M406.604,69.631l-18.143-18.144c-5.344-5.345-14.041-5.345-19.385,0l-18.144,18.144c-5.345,5.345-5.345,14.041,0,19.385
			l18.144,18.144c2.672,2.672,6.182,4.008,9.692,4.008s7.021-1.336,9.693-4.008l18.143-18.144
			C411.949,83.672,411.949,74.976,406.604,69.631z M378.769,95.607l-16.283-16.283l16.283-16.283l16.283,16.283L378.769,95.607z"/>
	</g>
</g>
<g>
	<g>
		<path d="M460.512,123.54l-18.143-18.145c-2.589-2.589-6.031-4.015-9.693-4.015s-7.104,1.426-9.693,4.015l-18.144,18.144
			c-2.589,2.589-4.015,6.031-4.015,9.693c0,3.661,1.426,7.104,4.015,9.693l18.144,18.144c2.589,2.589,6.031,4.015,9.693,4.015
			s7.104-1.426,9.693-4.015l18.143-18.144C465.857,137.58,465.857,128.884,460.512,123.54z M432.677,149.515l-16.283-16.283
			l16.283-16.283l16.283,16.283L432.677,149.515z"/>
	</g>
</g>
<g>
	<g>
		<path d="M344.843,245.69c-2.933-2.933-7.69-2.933-10.623,0l-28.449,28.449l-51.273-6.014l56.64-56.64
			c2.934-2.933,2.934-7.69,0-10.623c-2.933-2.933-7.69-2.933-10.623,0l-84.359,84.359l-6.014-51.273l28.449-28.449
			c2.934-2.933,2.934-7.69,0-10.623c-2.933-2.933-7.69-2.933-10.623,0l-31.022,31.022c-1.625,1.625-2.417,3.904-2.149,6.186
			l7.821,66.675l-26.646,26.646c-2.934,2.933-2.934,7.69,0,10.623c1.467,1.466,3.389,2.2,5.312,2.2c1.922,0,3.845-0.734,5.311-2.2
			l54.365-54.365l66.675,7.821c0.292,0.035,0.584,0.051,0.875,0.051c1.98,0,3.894-0.783,5.311-2.2l31.022-31.022
			C347.777,253.38,347.777,248.623,344.843,245.69z"/>
	</g>
</g>
<g>
	<g>
		<path d="M395.352,302.782c-2.933-2.933-7.69-2.933-10.623,0L236.924,450.587c-3.543,3.544-9.308,3.544-12.852,0L61.413,287.928
			c-3.544-3.544-3.544-9.309,0-12.853l24.127-24.126c2.934-2.933,2.934-7.69,0-10.623c-2.933-2.934-7.69-2.933-10.623,0
			L50.79,264.452c-9.4,9.401-9.4,24.697,0,34.098l34.883,34.883L52.186,366.92c-11.735,11.735-11.735,30.829,0,42.564l19.853,19.853
			L2.2,499.177c-2.933,2.933-2.933,7.69,0,10.623s7.689,2.933,10.623,0l69.839-69.839l19.853,19.853
			c5.867,5.867,13.575,8.802,21.282,8.802c7.707,0,15.415-2.934,21.282-8.802l33.487-33.487l34.883,34.883
			c4.701,4.701,10.875,7.051,17.049,7.051s12.348-2.35,17.049-7.051l147.806-147.806
			C398.286,310.471,398.286,305.715,395.352,302.782z M134.456,449.191c-5.878,5.877-15.441,5.877-21.319,0l-50.329-50.329
			c-2.847-2.847-4.415-6.633-4.415-10.659s1.568-7.812,4.415-10.659l33.487-33.487l71.647,71.647L134.456,449.191z"/>
	</g>
</g>
<g>
</g>
<g>
</g>
<g>
</g>
<g>
</g>
<g>
</g>
<g>
</g>
<g>
</g>
<g>
</g>
<g>
</g>
<g>
</g>
<g>
</g>
<g>
</g>
<g>
</g>
<g>
</g>
<g>
</g>
</svg>
